<mxfile host="65bd71144e">
    <diagram id="HIP3nbAZw_EuaXWnEj3U" name="Page-1">
        <mxGraphModel dx="1326" dy="658" grid="1" gridSize="10" guides="1" tooltips="1" connect="1" arrows="1" fold="1" page="1" pageScale="1" pageWidth="850" pageHeight="1100" math="0" shadow="0">
            <root>
                <mxCell id="0"/>
                <mxCell id="1" parent="0"/>
                <mxCell id="7" value="http://ics2o.mths.ca" style="swimlane;whiteSpace=wrap;html=1;" parent="1" vertex="1">
                    <mxGeometry x="40" y="40" width="760" height="480" as="geometry"/>
                </mxCell>
                <mxCell id="8" value="&lt;font style=&quot;font-size: 36px;&quot;&gt;Cookie Clicker, in JS&lt;/font&gt;" style="text;html=1;align=center;verticalAlign=middle;resizable=0;points=[];autosize=1;strokeColor=none;fillColor=none;" vertex="1" parent="7">
                    <mxGeometry x="205" y="40" width="350" height="60" as="geometry"/>
                </mxCell>
                <mxCell id="9" value="&lt;font style=&quot;font-size: 24px;&quot;&gt;Click the Cookie!!!&lt;/font&gt;" style="text;html=1;align=center;verticalAlign=middle;resizable=0;points=[];autosize=1;strokeColor=none;fillColor=none;" vertex="1" parent="7">
                    <mxGeometry x="30" y="110" width="220" height="40" as="geometry"/>
                </mxCell>
                <mxCell id="10" value="" style="shape=image;verticalLabelPosition=bottom;labelBackgroundColor=default;verticalAlign=top;aspect=fixed;imageAspect=0;image=data:image/webp,UklGRsLbAQBXRUJQVlA4WAoAAAAQAAAA/wEA/wEAQUxQSIwDAAABjShu2zaCbP+6/8Tp3Q4Q0f8J4G4fMdNZcvMCJFOuKySnSAbur5GcoqfhDuUUAuQjAY23oA/olDjE9/SFnJAEOpbsc4dzZJdHZI+nwkZPQbLi7gwr3vCuQ5LbSJIkdf//0X3aZzU3C88Q7CIgKPJ/NAFBkf+jTQAsSFYaQRvqKaYLoIhsuPD1wiv//vi/nXDbW7n3vj4+2Cp23m/slZry80V5x5oahn5FVpTuoX6UN9Wiik9A/AyI3xLSqyBor4Si/kQE7WekiG+TQHuzFNrbJ9HbRo32ixRov0yF+OuUaL9SjfS+CqC9twr/BH+lBLjsYQC+XdglwwSIqfZE0L78f5REKdY1DwGFDkCO6l9PRdc3huJuBvJPNmbgBP7lIfGljwnof7UPIL+cif+twP2+uOJTrJ+fa5G9Yz3XeKDdI9KIivhSy/+g3P5nZXsuW7A77Nut+2W64dWOffp1vH/i/Tw89XvDNX9v6zJ8TB8AJBPCkRNt+t9LfCvH/jnofag1NUIC4CIw+/dtA4AcALeB0H9ca76MaulPutqT8On0wP14L2PFzNkfJQBWCN0K9u/IBgDJEkeW1e+J4DVujcwQqeIdAVCh/xmX+LBdur/vwP2DBzryz/CghyvJf5sjkRFP/16EOM/NtnDPio0uBffjPQCQCcDj35qc/znxP29yRpielv8EFgDLw36f0OVAK2XBtzt3//c72Q7tDn3A+zcc2A79jlCYs9Y/v4Ou/38IpANgWiJ+tP6HGxFQ+TlK2TP+TYrnBDbU4/FfeltIWee11Ma/HnlePJ1m/bM69Dh3IjkxEhrk0GNjAlEX4+ScDQCVVX/Oye9of4Pj8L4CtVN02pZ7e6/3oYPUWzSzvY2HiYkdG3c/G3ejeGokK+BDw3EpjtZJSNOMTyIAmDv3IW90gW4AlWF/+fchhk+cAyA37sebAdgBiDeOckdcN8g89vJnABKyTdX8t5Wfz4GdZE29gdXkEjVOdm5DGCjHEvMiDP9rDkbHWRUZEBiB2snHqptxs3McUapVX8aGPMdIqBvjL3ENQIeUyZe4WfgGHPaNddhDUbHCzAg8uWqwjxqFeLmdZhWk4idV/OIVfwCq+CpIlVdEK/5UpOpPR6u9QaLq26Qqvmmynnv9Pv4iZbUOVPVlyuq+VF3lfRYqvtdKtXdcqvbea9Xef7HiO7FWY1fm6u7P3iv//vi/HYLbBVZQOCAQ2AEAMBADnQEqAAIAAj4VCINBIQaPe2QEAFEsrd+Pky3YAGa3X7+h/LHtVaB8k/YPxv/sP7Y/JPzf4A/FfEH5h/eV/U5MvjP+P/4/uZ92jo//Y/4j96v8n/////+Bf+f/7vYR/bP9r/5vz/+gD9Tv9F/eP9V/7v8P9J//f+6XuL/xv/f/Kr4A/1H/Hf+L/Ofvz8z3/k/db3Gf4b/p/t3/rfkB/p/+L/8XtYf+7///974C/8x/5f///3vgA/qn+e/+ftI/+f/8f9H/b//b6I/7v/1v3Q/5P/////2E/03/P//b/U/7j///IB/7f///5viZ/gH/i////p9wD9//cf6Pfy78Rf1D/mHlz/bvyA/VH+o+wf4f8j/Yv7D/kP9j/cf3L+o/3v/s/7n/iPA75J+k/6L+8/6r2E/jf2n/I/2j/K/9b/D/vH8B/6r+1fvR/p/QP8i/Rf9F/Yv9H/6v8/8gX41/L/8T/a/8b/zv8V+7Pxwer/7z/Gf6H9q/EVyv+s/8X++/573AvV/59/ov7f/k//B/kPb59a/4H959Qfyn+of8b+//5T/6f6n7Af5B/PP9F/cv8l/6f8x////X83f1f/jf3T/P//r0DfmX9i/5/97/eX/m///8AP5H/RP9Z/b/8v/6f9D////1+FP6v/xf7x/ov/p/rv///8/gL+T/1T/hf3v/Pf/P/Z////6foD/H/6F/qv7h/mP/P/m////8vtY/5P57/7D6TfqZ/xvz3/3f2QfwD+if6z85v83////yuV1eyfXV7J9dSwkKe277Y0WDWoDrHrAJJFJm9HLPRzzzqT7b145Lk+ur2T66vZPrq9k8+yst3Mq0+ulgHMHPvYSiYJaIciwiGMCIXFy67egwwVWiZX32mmNZ4HI7GHFbzi8KzPeP2OgOJzhO7JCX8awzkvlfoYE8drM807HtL1vrEoEEmJZM3+JUzf4lTNyRIZfuwhoTpPLa5xRRTzxJ5bAgWhytqEJqJDffpeqW1Rb+G6r/WZFf/tVKUfFnH6GszAyFlVkbabKAaACILFc2MVNve8wTcYyAk/OxbzboNpfu6CsWjSz0lQzUOBT9OxZXqzbfTcSduStxrBbVsmCT66vZPrq9k+uoxjdeNfrxisdumodpTRt9qVvV2E+0492/KXAixspHYzZaGgh80LffI2sM+nmaF1gZyDBfkqSkuPstf+b/33n9gan4iE7Hc+KwM3nOqjsr1Osl8vAqXywQHtL9E5dUbRQJbOYTpz1gDcnXgGFMBL60Qu37UFHqAgPLUwUZpCZVHlqfkMbsq9r4yewMtNXrpoupm/xKmb+hL6kTGI7Tgf95c7jGeAFA9VIuV8XaWn6e3IuTHoBD7xK150vyVED2X9eXER2YabOV0cLvPZr/ow5/2goiTcgqHH2YPa8wiHPGxOaq3/h3CGdjwDf8qYaiO/fBD6Kj0waMGdbPIbFUKn5eihVb6Ig2JRasj2ZEG8yiPAA4r4yl7VH0JWGtO9mV/IRHPKFM4sGchwZxG2kT7qtxIH3oQlyfXV7J54ipMv7PTRSukKl8R9KptolXjre5k/GKrUuNKMx/a4BOd6L112uyN72kseNExOanaBYvjUvAbL7FIpVgl4P2rmomHRsdMxd9fzhYKTZuAurl9R2UPTl5SqAJLNVfVg4kX+oPxf/hO4+ZTqbfhP5FpPUbpAg+HKBvGQ/OHNytMejJZM7VJxuyDg798MesBmio64+xuDWD2vPV2eMZKB6w1WFjSZizEXKHnu+pm/xKW5/qG14yF5Pp96l36/wpMLqNOiiWU3yxq4fE+3kCAjniSN9ypyAuYjVbS1Wc1SptvAkfLuIuB/jYDeNdxwt7tljHRkVLbPk25eZv/AZQecudCA5dHZv+0emi2nKzUU1hmA62oO9uBZLenRWynFTNuOUnrmMfDdNoyJrMpDVo/1y0eYHdah1KtklLAWdephwSI7Czqp+n+L/7VAzCj3j+/GrmiySUITx49AER0tKMpZYBb2DD7Q47LgJKpxh+O1KY0kRXV4PI3kIiFzS3Mfn1Chog9OIxc3k95y2qmqAJ4UGmp+GCo/RvOL0s7cNxe8X5SPgene6hZGuVxUD+5TeCvh67n3QmxyqYzXKLeI7G85i3xQPzoGRXzDaEfwdOsR3+ALDH4hQDdTqsos+Kq+bBuQotfjmez8Xwy3TgpZMJO5yKQWMFNb5MaFVPYbP1TDQ+r+TdP2QcdVTewtfa3rPFczZCNMupCLk9f4KOByLdYAqGT2q36zZZxIRV3PfR8OsN5b6Dw4Qt/jTFdXlbiZruIX3Jsfl05iQVhdvWaetJp549SPruVwJ/vplRjnlxtwXcxGouWBp0TE4vHZWAJkjsDbQR1X9rfzgSMY41UF8XofZEYxhwW0nfEABzG3B7d9a8X+g5MdoBaJ4PQv3/95I0YuBfN2Xq7aFNziyWrrCO2s79QWQeYxSLd/6j3aqf8Ure6m7CiTudSzbq11HD1yGEpy8pPQP7D69U0AaixWzNoDjEKjycefHU7aBrc3/O9EFmxkDiP3uyMQOHwROi0s9ssa/h1E5Hx/s+BPK7vqZuYCHfrTHr3s+vv6blIJPXHm0JhF8AbpSijp7u5EPVOmJ1nnoFiXstoYqL6CP2P2k8F5XB2hxLrU8dbdJR8bA9plEILFJnQojxULyfd+qnOVRdsBTsLaNk8e/suXUewUV+YSCTJAXNl4yPSSbHQqWaKvlfowRPSZMLSxvzl52eoygbl9w71dSmZ+5pRjLrgV7rMmCXRiwlv32CvPy65muzVUMWjoFowd5SRpPfBd5nv5S47nApHA5Nb8iWo+6eVSJ6VkbarQPvCd7ZtQagbj78tHuv9RKdYIuOLZlqTg96Q1Yq/hBfSmQx5Iu+97r+DSplIW+22i66Iw1+Q7SUe92a9bMTR/o3dgPpl7j021KxgCGzo0VyG2gEjhBBeuZzn0Zrkz0XyOSvOV6eN41nwnl0NJkz1HLtKQq4ppPPidf5R31pfk/uJPSHJLJ+/eWfB8f2clqWKYQK9/Aw3f637oxnwwga6INHulmtTceBSR/v0wuihoGZ5yCuQun2dPh8a6E+7IPLUE6ttp84mdlR7OFmbT1h2FJKwjnB2Ljalb+yldjK6K+24vciilN2qv3CiATcheb50grMocRiCf/nqkaYvc+AGbvPU2WTjNqfe5qNG3iVaxCos+vH7EQpm1qySBwxhnAlRtDwa3rfse6Di2mpgEqfnsjGY9AX7sizwcfCwcgJwJD7EJyqfpjTsRGbEJ3W6eTV/RJe3pH9Q57L3KqGiYB0ZIfvpncKXd1E8MVjSPHccm6gpPyeYa42vbh8fpW6o960TC4URr/i5cfiljG7H17ms/7BBZwgt2tpGXvYGAmtlAmdv28P65dDNLCuV4ALMdi0ulFDFXZ7HtOZbe/i27n4tr5iHnG3qH3Hxwi8vau/eOqdbMo8C817xNxmV0GQebn6TYO+sGGLJKmLARWEQBS9jOlT0lF9Od4BXAU0zZVUwCLM5Jl450gGrbiibu/M3+BuN8tKDMcdmslbR8Rixe8xRJ/HuBvpBuU4foLPtaqGXKv2aeoOfUPimnCIrfoCIwMbdX0l2CHkzBIRdyFUuVkf1zlFpm+S9wPUfEiceuMDvAOM1V8YZ3o93zPjv5pLRSygM6atL/CwgW/RFfHm4bHqTcgFQMpID+Gu5wYflT27g0xo1dcuqKwXAMXUfvk5193AOmI62dr3vIgvbzE9+VuNQ0TE6Q67p60KPQRRFyzlVb6nl2vbEzoQeOyj8aj0N0hpxKBy6fU2pqdGxhs5Xdb6NmwEiLY4kVELqMyPKtlERpzfZADm9+IRZBZ1so6otduRHPnJ7+dqVYo6CwBJVvav+lF7nWCCJE9+a5kKVZBKEOmSyyFk8fE2TULuaiL08rNaGN3gmtsv4XnYqJaZgIhs6pYqCFuGWjJWA0i9gsvhQb8Bdj90NOSRQgFuxHsmPEDLPNr2t/ZV1TraSQwiCmcia0EvrExct/KFh9y4QYreeDIcMEXdOUo4JG8tQX8GL9I/lyuXhYZMAG+k8jJluz6vgsF+i8EyQK38wFPR90CpyP2ryTcxpjQizgaDiadTs+fORaFvxI89wzPaegi4aEbiH6kOd9V6cSAnBXNUp+1DvLg6GnVW3O0qZsG9ux0Z6Ze49X7ylAs42k59rerqI9IRgn/qmEKWINoAEtXZYiy50yk/cAtmfvEdGJJqnEatfqaAXaWvlXe4z5yAY5235LQ44kyIJxvSB+PREgnz9UC0IAUZyQyr5O1Fncns9ARkywrutKJqCBlFjyKx9+uJRixnEncg593reqqxk9/sBVF7ASTnC3diosmzCWs5gy0sEsPc0OHwxEg3Hju+FJmcSX4TPmVb5y9h7W4zQfiVuBkMAA8lsK3av2tkO0iqWQKUOxVLF3phgT+pPebbCV6OtYdBjKyzTpHMklLOgfd7pW0AvKDReenJEx/8IJK9lCmFtXaghkSFWpulK37O/KATVwGpkOKDo7ICjS+LRc/KXNaFbJjezExcBIx1piFcow3bZxrNXbdeA64a9NisL+ETRltamYLMNj6WlT8fgwxfxMMJ4IQFAkE8LA0HPbEREGN9sdNrwqSM2/P+epqPhkuxMZ6z19oAneUEar89frlwjv/0yzDrO4NL1FjPCE3TQgRGFPoRakU+5V0c5ksw/ttcvI1JmQnM/5B6Wc9usn7WPzUotZPLS6qTnd5LYuQRJf4NafgQqQ2cgMpG2NY9oaFFfPQTmi3yS2TrXfELgHI3FPMo3wzaDe8bsgenvWELB4SGljVhE6uDuJkBqSHp9NjOQyu43lxV83lWMk/we7Am2ChcHT8bMerJIhT08PFyIO2ocDuWrT3BELTAhM8SznqCUtm1wR5dd4GyaIoOF3fYZAVkbRARxvnXXxE7VejGR3uZsYRKn/CZzFhou+kRpetEtDqg5TrAM5YybtYmtrsuP3IDTfaBKTpuFEl4N+JoyYPyeo/gS0MEIN+sHnP5BvnUge1cHyFvHVwly+lTcO4PmQ+Xo6qjOIdI3Pkn+G/YH2h+/fE6jD7FjsucPwWe2cqQvdKtcaE2dLxqHhcRczap1QhNq5haabAIG7T8Id2WI7zvpESMuTbX/cnIv9rgW6DFeN1/Pw8hrj/V3ESuC5vU8KycPralHLFUYP/VQpyUsHDHPE5jcmDtwjNzGO+7zKjAaHxDxOF66UHrFQlaCX1CSR0xFPOxFMBFkKGd105JwRA6fx3TjMjvVr/XpUSn9G/CEx8O5ckylaJD18RMv3YFT5OF5UIUjf7+aYvplf9OTKvL6vUslRu/3AcKUtGARE6pi0QFxDLgj88TsNqysIC7GuYYiRoGf3sOJ5KamdEtprxRkIQsLcrX1QMuUO9iN7RqvgZOEVeTZaNVPoH2+zaTIkUuxiS51Dq7yz1uQ4Isxr1U66brBwmqvh5NqKnGFcskX3Jbm11rsZg8QvOHBfFFk2voS7QoPacaYf7hOYolOX5tb/LWHimkFgHWTkYZqQl6comDRwGmFwLg5WyvvJ0X4OP0pN7HmBhjKFnQ48icLrEitLhSJn17Glxo/+sfdI5KxjYeO3dEf3n0PDR6mB8QRUTJf5C+4idbaNOgIL7596NZ8/WCJJShlwGJg4oVxgb/yUv9ddGSPSchdZRplf+Mhq0sE5iZDngjQMKqTS95NOEMGYB8ov0n6nooHGL1wO1Q5hR42vdG2T9mUkwzkgeYFTY18u75VBF72ukgxyo7HsZEXwzEbmpelvd/9Fz4ACC5LD3tZ1z6gqmHc93Q/Rq5gleNlDVJpSma4Rxw7aU9hY8tZ0l/hq997kwvSU5aWlCWh1xk0iqCPG8YmlxUrdyiKBiX9Z8t2j9Sw4Mu/j9eAB8TJk5Vv5iO7l4oQ2gp2/FY36+dlWHGeiLmHnZXmpST3jP5hEJ98mXa5IBORbcmrqENQ7Ana/+kE88EIoIjAwK1q83q/HilcgaZb0HT+NZ7qe6D4dbhMi4Js53R3X4rDRDx9dHtfYjX6Fuh6bY3LlhPaZ1eYlmWJ6F0rnJwr2mqCBAGl6s/Q7h6m8/4TPs1gM/TVfowulu5WfL6SQ3eXBvoyWFcsL0Hnpj9mdKqKeFKSCRdF+lKIFGEPPcndINGZCLX2VziIK68kghzX62dja/TaytPcRYEpldF3Qw+TxLmyEfP7flmCaeBmFOJ60zVuvd38h1CDbyynPX5ZUXTtGG+zYI/smu5h2Rc4qi2HVFsxcTkkfNKK8EyYB860sNW2zgHYlYFJDkn2U0NdhLbw8r0yTMnASeMZOSiQwEjrHNeLjWL0m/QGNiA18wKcCMGpxNS2i9qXtHsGga9jm+LI9RFxw7PiqTDuFJIycnIqYlEZjDSJ7twSdwKVwpVfCm/MPTewX6uEKe/AfmqmPiDkw/lUnRB+842/0d1jbMrwmdrw/3Pit0rnJP/ReG2Ep6cTZlAvENmjHCcurkMAKg8XCqUFr11HgL95epBTgtxU7bd1RpQoPdntzF8fKTYUQYpzlfGDy93OcijHVe98aG19w7mnbHNcr5u+TQ60qBiYBEmDiKmHNEAGuLLquQTZkdu4zvR/ZYzQFFyNiYb8P8zHKWGSCh5uTxGTJgk38utxgK7OiyYtbl2rt9OxoJD+bZmI+l2aCTb1wuOk+NgwWkxNJf+x8Wlq9Cjd4IdR9V5OG7J+w9PjeIClZnzMNftGMgyjFN0s2K1NzsXMnIyjLb8I1oznkd4Ix7te3ubKBXRDOurS4sezE1rAOqtQ+tG/AIDH/6H/85zzzmbta64gOCzeosdLg2/jbXWqLWrTXish2epTMPalpS9jaxEIW1xRwmNPXJszWv8j8Zxr8Dmth+33Iurn9KF9dr4KVVZRFXtHurcb7iZyAxKmPHcSYjNqM5Hxmc81LMtE/ZpCmSWS2JsJzpT1z5djLhwI3y4OGSrVJpy5FbwhxezZM2FO634AP7fLjrKiVIGkD1iYVDK6V5hAM0ZheznMnVdN/ePwk2DXIjQqKv8dfVBgTeANU0Vv8Z8hPobuVGRp14R2mSnsBoVwItpP//lxnrszWN4ES/tS860al5iaiSDX2xDqqo1SB3uXn3guOPYA/lDQMy+3Y+34hy4r2r3CPgNuZih+sIcTrj/rq9kKfpp6zJ07o1TsqkmQ7DkMsN6+c3SIoHf9I1taBAHI/X+8RBk2eWV/+Xi4oxZCsiNEZkiNUIFf2LoQeNs/y6pxHHWLlGjr4tRMfVP/8zw7xcK+yTYZHTbOzYiq2JR8ZEsoVZ7iUq3ggNCmqq77U/YLTa1b1cnu/6jtU/7ohtcYvbU74eehSdZiJP34btOHCR0zSjP+bFlFQ+oB7uxbLnBI219vgw4XOEfl62zrSop569ddIkGiHPiYSYktE50USm8jrZ9AIfeVvhJFDWovQFtqnMMAqNGjYeXcNa/GTkrF6zoqMMeqpl4N2+OETA9nnsKcU2VA5HbiljZzrttivZqUdS4aW97QBOeEwM7sza0lONHotfWCWGQf026Pj8N+pHsF6mD1JMPa/ucmw0knq4Rm9l0RGwtxnwqadqyUAO9KilhZL0yjuoI+ZbONvp/NM0sma+MzU9Zsvb3k70V/6JDQuOOS5PUhk9uQdUljuVJD46bTM1oH1P4ppI5DYLC3+5WRbG/Perg7hUppsqgNR7Ny19QO1devDP8Pj4QVDTJvs/1fBD/kU1n6zGgLQWXNXOyXOuj27IAWEn404yqWPFGiRvilw+8yzeEpy41xwyX/WM+wBD0BdY2lRWRCXrBnClY5d5oVX9e745QembDXx701+75JzffPLW+6sHfSHPf5PiY/FCwD8RP/cyPHJcn11eyFO2l/McWOJbpPiLknXvhonj1qtjFrX6nJngLR6Xty8pOyltE/QSn6wSruYo3Rg0l6SE+2oqq+/iVplPX8IavUkZeZl4e9v2waNevl1zJ3cTU4y9+EIUDwFipfYU/Qz25NrPuMvx4wneJpMOvJiqfVyNtYjqXmHp+BEQm3xIxvZ8djEsmb/EqZv8Q2V9es5I2mruEPykdk+RsWunAQWm9PxLmAX/LriOgLgEL7Hb/aOCD+QLMIWJv/6bsbXOy2/wrcAnyo8Oaz55SQ4aQvCL/AxyQtows/gUb7AHUiEjuriYZolqBmmU9h+e5Cg+KOZTW7+uOXwYbh8gf9d4WT2T66vZPrq9k+tN+jtoHYYVQvfusX1eMaoU80/kyrt4odfw9hOEkOKLsdxb1myi0BRlTR06+HUpWIuZb6SdJPIzK97epbAx+tSnw/DJot/3qwPrJa4SYlkzf4lTN/iVM3+JUx5L5MzOmg9BwfFgLeoIqizMrKLGZt32dqmb/EqZv8ScAAP7/c4QC6/q6tcAO28YFgZby/535TVanT8v+aXhiTTD4IPN5E0adnCT7NiQOx1jlUqgs34m8zUYNGM3/JxURQMeLattlHRYZACUF3xl9f0qw4QHgv002GiiuxEsQzNiiI5VP2H0Si3aPYvRuFfaN25zAI7Wg7Bs2QQjCLWGIWN2qpmY4j3S18rc/kwGOBuX63MiP92iKsBEt5EO7nN+oduE8TEesUxrsNzN0039G6dlW7H705j0kpVKVwt5uuqtiRuNTPMrqVkbLBX7+dvzER5aGTt398BvMYU+mB8Lu/qmiEoEOjR+db/4a1Wbk4DQMcUJz6EtL7vb1AIP1A+3tjuDyDiBxzdAHHgAABBf2pV3bANwst5YkJgSd93OhKxChTpNK8dT4N2BF8CQdRgJL/hOoS5sQkti6QPZiO27NfLUjLaTKLEGoyGW5g4yshTM+7b4TD1+iHr6NHo41K0BJ86j2PAV1BhGMCIIo5HS8S7gebkkCU95W/rnv5tu8/uDMisLkfPJZiClmpz8ST/f/nQjt9BTtZ1taErR5XpGaeqOgw9rmLbkIaDh3vDdfhHfbMa7ynwWGkKgJD4JlCtiWoGhyQ7iHcRHL63fJGQnSLthSY23XFWLnnm39KxaJXQmPUZoH4RGnycXg8DMbBetyzPnPi0BjTVEcOIfCn5ZoOZ+qIwQzxyDFB8qarAanrAzLM6NLrudZbFMQwqAmEIsY42RQM16X3sQZgk5OSiJc5C+EauV05QIFNOTv+5b+wGGiZX7UnuHDWTrRcMveVgfNFoZcoNJox45HTkVxqFFcKENUDsds4eCAODK42htUqIFqc2mqUaGGDCfUNQxhgZgiV5bcAo457B7NOd3SVL7WEkv9LU8qkCoU4tMTUd3dkxT4ZM45bQ9tJJTfCE2oBNyn+NACluZ/4YofgKVz6cJyTpaEnJNu6d1WIAjjuGFgqS46nmOvMDF69hXBV/6CaBQtZ2h6ogsdT3xXIshpBQR9LHJi41Y6vZnyI2EeRmP60sLrw4qdJ0JgTCNKHZr0REgMjFLfgUfa/AwDqYLM2yu8mSQz3G5w2vSRL9I4KYKamkdS7GkaWQkwKFJNcFcvdhN45xpB2mt2Okd3aUvoi+T8n8IOcZjy7Kg4KKvQw8gMRslDYacybTCGMOPw5YH0RxW5EZlEam8D5QALSji93Gbpqqlwh0JS/f6RhePKqI4yoog/md3HJ5pYhtYhVhE3/+M4LTModGAt4ImDff0HrlyqfXQfToHh4W8EsPlGERSLEm8d/ixIHcut9o1dNQt93bsr2JzWEXiq0AoEFHvjbJTIu4P4jnENb42xObBNfYm82ok/iOGSH/jPCrVwHaghZDMVFSUXWc4K0GprDD9iSdQHkLAn2R1AQevMOCnGD2nlb+GZ9gLmJ5stJopmaW/iQLieYEDz45qwt5CDrOBkhXMS+gCHpipOhIV/2DW1Dn0zceuZVmkYmLnnIvCIyZaYK42p8w4lksF8Rc1b4hXm6TkwsXqwx0qvmuF0dYaVTDhhlmGndzI/xiAieUiH/0KREdQOBysg4nqYiTcr4Hl/lqMqYSDjZlUBArTXJ5TX1VTni534Ny8yvR68L7FZfvpSmOwoyIvzjPi9zegkAIBXzbcBSpVuqqKfCcH4FzaU8jwFuoLIUpP2kJbvy+LfCSZvwe8LYRyypwGJ0q349L7iFLqD0Yus49YlwvpBtJhOHopR5rvgwQ4urgR2ccaiiAWjcyjBabjgcpmiQVFNIfO5GRLM+yhZnzut02e1rSjJCddm7bbLT1nz2S4wdHDecl+ueAqzUzKjx9gj6VAxuYn6OdoA+voVekSWE7Uv3co/fJ8nJZdUIf/HjExv3sVnI7tg5LNcrr7KsO1hmDXekuvEwzETi6P7vdaGCLCEoGoSrYVSTFrsDS6OHJTX2Fnr5NBTt1WkYspQm34J1tBVc/xAvgsWR5UQh4VFWkPgzCnyR4zq+qLtgqkoc4kU4Z3XYd/Sfuh69mPFIsfHUMThf/z++OarH2zTVn46PBGyD/gt2eyRgIMkf+RiHFUEH/+uoQBL1XN8x3DkcIyHxQenunhuXvdnZgSm8fIa2kTgp9Tbree2OWU9sOJbb2/qKIkkGFtLfziHzC0nQUGWBUseYn8pCDse3nYCAo05JiuFIAoCOyP/g0DT0PqhS9kI3GpIx6x1I1UCmFh5aHP/jFkhtEbwwwR1uDrHEAmOETd0HsUqUXwjYmmNZBk0Qjt8ll0Lb7wrhu9PzWhegvTaI/7vL8QyLNsEFQB6BoQE//RunHm2wUk9Ry+bxbeZhHi8zwdFm3elK0hmedCudCBNkUa5je/+2N2i3l9yGSySO5fMszgZCTDtCjbYuMkTZ1mBODgSjBa7L2RKLqoItyiS+U/8+B92UE94pqBmRPFw0q+DfLaA4il/AOfF2nikn0eMjCrBPguxWyRmJO7OaM0+LOoS0Y7ysDRCvjS4TvsVMwR0v97IGDJOdV7tES+5Cq/NhvQY5zOrgQePok/A3vQ0wAnY+zdkAfBPAY/UjNGRiFrviwnxK7X3DxiB7gw3g7yytPCH9RNz00lR9YSK8oAPE47f9y1deGY5INQYBaHUlAbCJQ90ZfTox+wEUZjg7RUb5HDhi7ESILuMmP+zIMa94Y5cj89mR7y027yFHL9bCchKv4CUxAPU6FpcGAuIXxR2dmP6V/4LkG0LW/DwErnDblAlBJWR4mMiH3S1o41X0s5s5jFI7fhnuy38B7gmgz7pd339tgN+LLFlSZdQe6iVVdDkAiErIT45LMyov3yJJSSolmVUpHY+RKbJhEPbeYZAeyr5Xx4zGXe6J7F0xcPMV5JiMzfpN/30gfUc6Fb9Tn7qn5yqJKN2wHEfRvAIqRPlbSUwTBKj7Fzuv9sayn+XzSCaYb6Xs1+MFfx4BCDHjVB4UCAIbJNnzTBoGqRQXDt57ieY9Qy0DRY3lOC3U2Z/6C47SmqvYR2nuKxdjEvYsRT/vmCC6uaobliCswf46qQ0fkYoGR0MoChztyI6OX8o7zT6fx0T8kAdnY+zVusetP8+dbS1IAw9NP8/7skmVXwfa86b0e5hz9wx0/RoU2w3ko2TFkSKwq0Ke38Spcql8CGDG/i3kJAd4LdR/oqTi9bQ08DQsdcbsaVwJFAM+KnIRq8/XO36YeUby3WsQOvFHIcCiIoxfGxsL9KOb3Nua4Pb7HFXMv2gwrRsm8Q3vQFlq0hKO9bf/kDCBTm5SPbZ4MCH8/5dpPFjVP9PxoeUz2fDMwCWZxfbc4FD/dEuG4GyECAwKrf5OnX8f8FpwiWeVuvZ/azSpaumQzha6PBVZWWXFCMK4yust59FPu1VfQe1biYlV9mHSRfFxJ+ExBo/YhX5NARMUl4BqTHnGSA0S7sOpB6uycWziORXR1Z4SxIhA/Jf6BXLlir2jgFFXlg+a7TCg27Sys5C8Dht7CBRInBKdJkB6NesykXZk/C9BRh+Yke54V7jjjPrORobgpz2pdVq97p75GyZEimn5c9qK+oCu2RV+npMYNPjVCTAT0rjwGMCDZlvPNEIul4NoycJJZ7pUpLHZFVEuOjhJp7HAdcAHxBCasPUUtqLu6PiRcDDzpzKHWW4vdBCx/Hqbw5pO4asZILeTunzNRad0kkjUbrtNwHIllON2Hejjo1hgYzXhOfHTYI6xfOAHWDTciVsqg9er/PbkZeaiOEmNzpIlBHRLwdhi05JXh46OBicswK2rcGjh//dvb3gjinNbtim6odX0unELO2NtIq0xsV7G1RC8TELvD59VB//co4PfzQYgWkUJ3KP5VKRLiInnbBG/03Z0EXNwb4c74tIQaB7efDHb3I3OPLjWsmKIJuuiW+LRp+esPC9b7+vjunCvqzP9aDvtV01fFINJrBAhLywD+lYFxpqdDrjqKwRkzw3bV7TNOIqk4T7xi7paJpaG0phE91IcclzqGaJGcyuPe8thIEcowJB+Ngs/2dw4HSbnCn0troU9IJ0WkITBG+RQqyzB9ZXBi2cXUXoLyzm+YVck5zAINXxvTu2+fb3npY0xTqwFbozmVnQXBlktouYz7Soe1NGbPSfc/V7PyyL1o+Rk4ZRs3AI8NvU5Bc0xdA6kxrwBATih02muYIARaLH3uQI56ec653cl0LjtWYkm6vf0iF/x3XfES1nmvoFNcw2VGgfd0VsJSd+thB1Nna6P3YbIP9a+apmzSfaJ+KL7i7SoIUzxRjyYDGGQvR99Q+4UnfV1+r4siOrTvmMU8kuRm0jaU66l8sPeI/RKSKRfyHtn46o7Tp0i+MXvaEhOCsgIm7AY0i2BgAyWQQfyGEXOrxw9c8CrbMEJweG4b88bQtu1VipJ8h4jmh7kLoRIwZt4ymcuqNULmhQdtrUvA9xznw3zax68uao2ParueDH7b9hWvMW8XkO/fzmQo3fr5GtCxudj0Ux1VIqdFWmJjbdW6/7I58pgJHX2qxJve72gSU1axQe0CtYPQZJZ1MdGBPTv5gXlGZ7EI1E9YqnU2I659skF21svKIO9fGoo8T61VLHHpnWS3FhEvDpsht7660604gVED0JpYuPDDbW7znjxSFABTqQJJayPx0If9SfB5CAFjm4bco7ov1/uHaOK5vQ3z4T9vjoxXToJ4Je3+UyR+qQd+b+VYvFtcDlNUS2yTpBm8KenSZS00MKfwnVtapHaiAA5PMCy+phbUPAFbZRmYyV6sHZWOCURmNJqZL0vEb3W+mEB3UqQDZNvbn0+5uq0wuKF6EsDYR/z7F8I4j/PhY+W5x2piyuHEVBBDl46wLzcTxoK12k3Yzcj4Q75XH/3nlLN91tB32iOv8zQpsF3peky6HAsuAoshT9+9PU16YKtksLxaXrnqNP/CCatinp8Sm2pC7Kv/12pxof1Dr+JV250xd8cQ5cimJAzfWxhuP/yJhGFJ6DocuKYMKHarp8K4kuVb3FSywqaISUFvJvkbijwVcOMxv33G5zizbxH8+RRVlJb4bJqBJ5vHYORprAibqYsi/NWxhvZEwYkwqiW13sa9JrfK1738vXh6/XywKbCgl2s/ZQR+f80aKOXx2mE1Vd9WyMwCSssF3/Uda6IQf/ghLClx2P2mWyUAOhkINVMnCbs9hh2CQ2ojdwC/n/V5myPAUSbPhXs2ts8OBZgpUR5kisfc61YpjwLgur466S1ATy0VxMmdE97We415+gNNG2zWLdcYWlRA6ErCn9Gt84+DDObXGI6qkHcGTYdYIkeYw5cN1hn/a2XJfdCxzaswMCnzrovktdiiTGy7IhFdnuSFWKvkB/Hzb0qbTzVdVwxcvFp8csfEUTn61dFu0qsbEExgh6ZaiSF81V5JQynkLcHcGjGy97P7JXg6I+i/h2sJ8cQYHK/Rm17Rw9M9AqW3rdEKqMejZFaghWxET31aGN9/1LtVmOZY2LOvbXCNu0vKmTn7vSbqb7sku7+yqsJEBs8kMKJrRP4Vt+5vl0MRQpOMZvV63SRiuUXbJLAsFMaOe9H7TgHzoTKDFjBpMI8JEKLudbAqkxh4oM5VsJvfN8hlIT3MbkqG/8DaKzYylZsva+qmPWNzMopLeoEise/9T2bSJKLAQQI1xX0BfjJ9ov0knbva3UlTaXPzL0vw/G/pWG5qus4tqV07HVL2udwZpJJsFfvjmt/t4dTysMgnAXyNw+vLm/+3yBouSW98bPAOolol0vw0P9NMxS9AhCW26Dh1S1BlBbinLxf5MD7hAYSu/tiIS0gZ0vU0BD+berxeUiKjUKhEB8aL/3nKqumwye2Z5r1/J73HeDyCyFNj15fXgvWmud3UTvxlOaxzsCH4taSO0Qvct8h3oFYAH0B+SPjzFDtcaboA25cz1JhV4btMmu2CaMqzzIvINWKD1Bx7MfzIlQ8TqGg9n6LnWkBG9aVUbZum/EQOYSrFW/U8uFkCMDZ7O53JtlLKN+/+8mniG2N970eZ1k4GYLKEFNJR/vLmJRkMhrLW5BqRU/k2y57Ru82TMaDBtx8ymJUfBgVWJOOVfno/PxCAthuKjFKY3PxNIqwlKpzhMMppCLK7/d6x+QTmrRTPShBnaoi2H05QJyCmNtt6ZBlIUaNty8XSo3gyTfGSb62WNfaPNV2Kv2iqMOd2B9rB02xEXSksvpNK/AByGuYSZEWiSlimLzgAX+xbPgylsLdNNlN/h3XLy41lKlFgRbrNtZyRT8PPNLns8TcR6utaZM8w8eSdujDUBVctxoLf3sldB3pRJmo87iyUZJi69ruce2NY+guGduKAI1viZnoNOmZ68kW3/UZ7r38a3l8m7+8oBjYcJ/9iYLdWUpsXYyiSeR885rP3YyBCcHGvt50f2tU/sJUE0Fq79Ppk/scZLj+bQ/QHt1i+sgh0dGLMGzX18+3zpCAQkbB9HxFVtuV9gmDaORwb+aQBgpUsiJVaGh3phsGEQMoGGqlXBMChrK6dKl35uX0xd81+n+YjYeUgsuuVNw6jJlK0tuM6z/i4KbrOa2QrBQ/cwOOk1Z4wv2oGVuiljv020SXodw652zSDryMeFAUC4OyqvTrtXlds5mf7UGZFRytAzGNXbocefXAKbabliKrIh/icngPbzrB8Dkvx5LbMhjw7bsu6Ci9bgZz6yifFzl01PcZgxAJcSdCD7wDM+4eUzo1XyyKCAIEkq8Bk0CLgL0scNJRxWFjD+lijJgnFeFgL9O/Si317Y8fpz6oVfJs91IWORiiF1VpZayquAB/T0Mvu1m4dMe/C2uYxgfXEFNUVss1aChYQxHWcGC/b7yXmA3yZoPzkCY7oRpyX8DhbQHWATF5u2XtQglI/cWcLAqDwQjzAL/ezmIenWG5cLYDYnMqZZFs+E5BHFF2I0Jkur1jTc/aUNH2OssgKfgnbm/HYGa+dhhqnTLSVUO8V0Io8gmdyat2keu2MN7jbXrkA6J4UN8wzELThN1QzUqUG5qRlbTXxZZYkRV6Y6rp0JtEPfHd9ZqaEDiex16NKNZxGPM8B2V1eYKaw53VxQVJWWWeTZkYxvCDalLNXPYq3svvYUyzdNnEspMv0M+C3sI0z1Vq4FMQIWkueuEfN0kTQwo1mhUOucAQIF/6o4w/q9J1754Bawh25srj/5k+mew6uVaIsqmUytt/F6hKLgYU1JPhrJf4do3KlUpsNUC+OZYyvI15E2IYn/v4bFf3+rWReo6ZrtN7GdqoGzeVUBH84rZMhNFD+9TLri7CmMC8OJSW484qMCgpUcxx4EsATvgu/FuognVax85bUNHesPsNf1H/yEhPZegzqc+KISoHpQJdVdulEPY1PvRTp0tBPVbyVp8y8oYhtLZBJKTaEo5cTRYUyHkrUWwDccfkeuN7NawqPUvlzrBbYZz2FZ/e4GnITDCSPoh33BmBbrE5c80oNS3h33zdAfuGZCUwRLO53jPcPdAPjljstIB1/YvcnlMMeQ2G0EYYzfA01tmr2J4dy+cTLIcqAUZpPqKfT9Q6+r0PArznr/EsAvnX2d/WVELfJB4WQHdG3+R//7zra3my+P66EQ/gdAm2XN+Mtv7nd+aCq//r2pdcQFoY+apP+PMvRHwcoNPnAmYQm9koxJZmx/bWbpXsPcDRrsHaTJPEfSasgsfBlp/rJsx22XuHhvFynas6vEpZcSeRGPVzqqllkPQu8yfJpdFEaIQrrRYihSeXcXYAL0TVzwzExJb2nmkpmNnA0H6uETWyo9IxWOn+efLFVJcCw6jRli4NwzCRYcSou8Z6W04ZyNF4kz/krOM+Uwgp1nqecx+Afros4OpflEtu/ry55VPVXxGvWE1CtsLzfgCdjodgTm6DYuMn4U6CicXQJhU6FBNLQiLt6gnUnQO+AMv9hOj+zA8YVxBHYX/36eAPXqShl6P1ZMPYh1oyrU4Z9CZPeEkJ2AOVU56WPVULMbiGKBL2oI79UZz4tyuUfTBlJqfbAIf5ql6Bv1/f7AZSg8ywqLQVdC+RUZy8lztywIdKFX3TGl3uNYXjXO9W2wgg37tdSxVRwlhgYBrTxDJTz4/ZTvNcMEDZPAMMs6kf8/D+wk+S08elTx03YfyrGEOdGVEKpvz4+UCxm6yAJYBv9oci85FbogVI3i7nFeHolnn9b0b0XvAW6GT1fPIo/XRLK1EMKqqLNMTdeYBVmVJgDwzhmyLbb9WWXGQ7I0BlFQAP9w0NyohzWBwyHpCQ/+FjWzW7ueFmbwM9NF3n+1dE1eE3R5/RSBO8fIfmovSFOFQGVslGavQMbM3jFqKyLN2LEJRW5ogQoaKui0E24/2dZasGD5ViKh1MQfbHOzCwkP/anuN8CV0oVOgvWxGTM2NEceTTeXhcOIXUhIN9LD+9IQj5A6VdQLR85gQjDKV0duUW13EcfHPSd6eQ8PvOgh2ji8iik8ewkWax7Zct07m7CqIoinQmfaAB8NlNBaUiKzPCV8beHHhO4FdQxrGEd5z1jJdcjsGLe919/t1rx77sYoC2lRCoVlrg1ZD3vWQnuM047IRH+ZvnT/JcmUvD6QAc3zVZB+ZawB/Kl6VMA5Cvi9xSuXywOaiV7A95AGKcxqN8egiO4UBk1paw5IhBbOMoVBcOhAaeumadFCRD2QAjfOV8U7sJ5I/4DufmtjTIVNdns6LmFSZnB2d/sof6RLnMiw9hLWkJOdXT+bAaApfTMnCQ9j/NmRU4XpxjqkquXRynaI8tteyhHP0X/IzxiFoxlPrZ21WD7eVN+pmnEv+G638zjvMpBDTkeMAJiFfelnVj0bjHf51cWggSByxSPViELIAagahQmFlvLwYm49ScLbZBpXxIjDmgyrf5TQRnBZgcK1DBYL5uyLQk3EPDYpZwzObgA2J5lU5owVyTOHVOWPFSYceXQTrmCc/TKsSf/5aaNNzKCoRzZTCFWYmWzWgz3HizzNW3kFlam+XEa7U107s9ijShrkIzQ+uaFKKF4yrD1qLjo6fsJXupaaHInAhGVWL5k+aqlnEVMRFV2XzyZ5XLhbXT1e7VuHsJ95feRG6diB0kyic/UT1xoKve1VDtn8NBRGIGl0VLWitI/XyDr+IfPWEbcNVLD5fTWGc/ZvsHnHw39Kzp6eJ0u7KNImWomt/hYCNRxghwRjR3rb0bOUiwEjbF/KhfSv61teqJkePEn0nKsMPhFIB3SjQkd1C/uD6OZOAdT7Wq35sLf2E0+tyqG0cPSk55oS3NFwTaNdCuupI86C2Zip3+7Hr4eBkfX7dbt/5jE0ANBlsr6xCsqkiT8hDnXTxzyzaousp3g6aBIhzap95VG49rdFMrdAgYTfXWWzlRvL36Myf6YGTseSHWxuGM+2eRCnRm4DAJM7xs1RvXK8znM1KqJ0CTYK6vXoZph9wRX8qohtBIB6TCX9KlWwJOMXSUiV2BTnwwAzzuYRmk68EAY1yDIqNqHSJ+UdFHkfzHJUMOAeVX0DcSelKqBq7n99M2KsY1eCJBHxWKGzj1ucrLs4BXQBxJIt3kRFDsC+FgzpQISPe+tboDAxFoRUPO4KcsAeLHBPlD/vubSjSCix+vePCtlU5WDwOVnVBtu3GuThskSQKzZ6B2c7u1Md3QcsY0uwTDqF9eLey/eKY/v/kJmG0CaxoTfPO3czB1KaLP39oFIFYh0x4uFACFjuiFRZRulnzxzlY6IDuDrI9fOuW1+nmlL/45t1DSN25fFYTt1rEZDQ36mwNZ2aLPPc4Nyg5nfBkPhKbsQ4aAhEvr0JCDUNTEMVJea3yV9LWAV0fnqAnnCL09blDIICOAK3imk9WQTilQU3oZKj9nt9qzyI/cIjyOaLXG5rL2nBRORNJNagF2/LQ4yWMGu5XqLwJRxWK2j0UA+jEyrh3VLMRxiI9YE8uDvRxqXA0M8BV2y7W4vnWzGEcZoN7YWjcOpzvt5X2HxbdIKaJ1aqPnyb8gt75VeF2sRqj1/SdkMa98yr8lVLZ5EN+La5S7XuyDuXRKxGWhWohIzTH33CCpy92y7E0j7/onAqPAyqLyOKvlMr6wc7/ob35kAS+LbAsMsWrJCiJ2j3Gx71ag+8a3QGxsavMLxZ6uLQ6rJc35ELk8wzcbzM2mp3Jp8K6R8mTfTWLuvTiBA5Fjiph+oblIkOGayq973/EZ4B7LzFOYow8dCLshhm+qGW3E6oFOUOv0V6e/OcPCllUYwuQiRkxPkWsNl7ctmZ1XEkukURhC/NqU3B9K8vUrGrIkqMMYz9iiMaKVVOIiHJeW7tZepcjRtCcnHhAYUo0xqyN6upDqgtL9T8zx0XvHPmmLqIIkx92YkFJ1okId0sJ1bpvpm80nWtsZGIMtjoHq4GxhPMYc8cwfjmj5XkBaJNLUkiLg6mjEAtjRMrG7EsbFloik+f8qcaViamzENMlCN2sgoHmmOwFv2Gxdg/pFMX6ssHXl2IicKvY4vE7UlKjTME/Pj+t/duQEFnuck8SsLTspvTqybMLzuo2q2jkOUbGN76sKpqs6z5guzStgzkUyDq+1dFJvghcIepdgzcRD2Mpksep/9NvPCQuLAWgVhyI5IkdrJRSv66h8O9cy112qtCDfuvVqKHh2weiTJG53BxK24oypUeodb7YNB65XXQLvghjkXJBdJNmoai0NLE6WkpPeMsxoCh/H3ycXT7og7cBP5WzvtejK8r7NzBw0N7/iL7wxjRdSnl8/wJu0GnfwjMA9ejptp5rd0AWBrtmCZuhHcqb1M8sWxBkZ0ymRM5/JWlh0cPdPYMNLZWO/pu0BhzVwW0sVZ2AVCYh5LW7TjCKxsA+o3fDdFDRDM090oZ2nakrOLxuLyJhdXk/moDiGFPCNX4aOegkd74/LYLoTf8ngj7NTOui122Sh5JU2GofrwWC9YlM++sXkZaUBfwocr4p3eX2n8h4JdzLhuIQDK13tjawK8oovVVHjjyyjI3SpzFlcst3vFz54A6uQHIlo1ffZieXIS8mDMVFXN6Tmb7czWx9FCP7vbOf8hTBuh/fzpyCr59bcYzgK+DdenDLmwXo/wiIijPicRqUtw2/zMJzL99u8cJrdqEHTZ7W1S09DV46t3oys2L76/XXxJrJRxBbiFDF04kuI9fH5N6aI9xniur+phUtmEKulSlapNy1rHFEoLZNrjgL4vKmjDq2UyBkk8/Ycc9v+b1g3Bu50lX2xzk57NE8FzeIT7bRqkzxR5SqJo37abdIjhNTUdp/VAsCjoVBxhgaEJ2JXVrfLTEbnl8kk8REn+uJXb66vrsgZe16rR1WoHfBVOwU+dySFMA5xaxdfcZ4Dx/sDtKf2ZzakKkzS/ebtHm1S7akgaMOgzrPcpZHnzBEeOnZWh5c2wE6oby1VWUl5nzbKS+P++Lgvh26BWKH2fxluQ/fp2UE6/cL6Wo1BeI1Q9NM1J6ZsLFFar6R+GWTuVPmFmynmG/JQlS4UnNq2x+Ezvb/KUy3veJwrjObAq1ojmItj4aOX0+XYrlv9QtAPNeL4bHgYhSzSp6C1Jq/GLZ8B0+TqCXKLS7vMVThXZDTI5jN5AsuMfO1EFSDKWf4qfJKlRZnNJt/FDiwdO4gTywfvgNr5YEbi5FQnKrEJhhP8vi9t6j0XH822NXkU03Ngk5JEKYNvbXTPIPXb9NiVp3bm8B4mmr/+d1Cp+ReUNX/ZPOAltidxXJlTwbHNg/fR+4EzEGxQwtZ8VGkLz1E9jYZVpltYeIiqrWh+u1zOAFAXRp5GKb6NKiFhAyrXiaBKdaSeB10g5EAOAOIbXLYtYFxhy7SCtVP0gRke3DWK1SqcWWr5Hqi+kcCJT9ZxXvBybJWdypLqhH5sPuICSQORP8pv5H2PaZgCxh2Be8MuFWi1Foo5V6qJdi6VbpTM9ExcVFrHvRtksSJjO/bmJkBTL/XFyLyaE6F9hUxQ4IDXvBBL4jUXIXfJfAMN1XJqQ2AHYwwgEalVXToZQ6XhXz7UMkS8kV33IpOp8o5+eusJdkKDBRz7/LcCqoT6baU4nVR9hiFYlUY0uHD+sGubK5cRY/kurRun9Wca7Nc0GurNQ68M4O0p879W+ONjTE0Z5nTwaxJAXL3XH3+QsDdTrL2+2L/3fYJwpueLLPRyBP0RbKNigF/+l37gB5/mTuH0J/UY3l6TnkLGpZ8ZI1Tc9M81IZd0tg5LGYx0sGG0ajvO9qkKWVSxBiZTGbfwBAgtvFS959qpN3yrf+pWA6l7w6DUnd98FeyO82FDNamtUnBo8cojyon7OM4LDsFEQoqMOw29Rj5AIMzPvuQcZQjD5fC2mTltErRv9dbPZtjeBcsLgpTrX0IkvMJOsarmlKitOwfh8A/uZnhFr0L0IfUwNye3/0zLSperzHw2KIA0at3U+CZjhD1giDJq+NhieFNZqg9/gbGq2KlUVqEppMMvVjAlmXQpVusiuZlf/Nrmiq2GBJoiY4yjwMgQL9xHKzvPc+QztFYVvZcUMYs+qz/m/tMZ5ScKA7j65B39N5Xn5b7T3Cr90FPMxDINARqlZugglq1MhVSv7Va3s1ITWdbNWEBPviYCmLHth4J3y72UHQvLDuGFNCApjvefIObTQGH1kjNEFY5+jhwDW6jqlT6MR+iQ+dHoRGH9eYgJWGj1IZFeMS6JW3wFkmej5tJW4c1FyZTNKUtsd2JEHC5S/VlARKHdfI6LIlZ7XE/VYMGhI9fwUXfzRbsuh8MI/XNYUmIxjWqwmVhI4n29q0inssihoerjqk6dNCzeIrgXgHElnPeO556fgMEf0aME11jfev0ymZhhd0pUjBu6AXX9G6K6v4LvDWf9aiqfUtcuAIfu0j7m4UtsxYq8Zs/FmpX8YiGFHnGoKSHNvPLhKYEZme6i5YSuWbAaZ0qaV+s8FEGYnq6JQvnC2ltFE9UlAA9WTyI88EQcnQ1Vbr26RgGh7ikfwxw1xeAFcD7ovDHCGFexc2M+dFhxWqtafSOEFfIQDduzqbkpoKdSNpx1p89jcnHRXlll//xQzevxUjbn+JRRDty873YmZ0sCnhxJDFik/umPtyx4uenAsqqwxyeclgxhKEFu3LD7975XVsUZocFfFDJxUcoCHHotFvWupxmKMomjW/v1anBL+Vo8t3SQZ4hXdNQanVuCtldR+06inYpifqX2rM7PzcfMp2wA8MYYbkShFLBf9Qtye6ttnwe+1bVc/H4vGZ7UVu58mpNxYXOF77hahp8FweAu/MfGL0HUe9fmwJpmzAVYAxBsSrPbNlbdsb/Ta7LqRPhKtm7m6RV95Vul7ri2xIe2MAjCADDf5Cpq9rs6DZ/Yi5RqkvzUHeWWCW+heG5odIKk8Dd0NnJO/LaCjW/4tI/UzTT2zb0lmdK7fbIb7OXoUqG/HRqyuHRdvckPcoEHebWoh8XV5oAU3ppnlxiHf4xe0sOn6brqUK8SktocynFlyAdHY2t/8W/DAv9Rdm/vxmKCL81QXJDOIFjMUiugY+/xcCsEkHpCef5wndUt4ShcSbdgn37oxmxpBsk6JMuitWlsM+XhZJiGSUmPkuN9OhTPZxkT0azd0dT7xIdq3F3GZ2IR0qkbin3QkF3DXYEU+maJ/XLaKbWxbgD8RK/oIvwde+2wmd+mHVdEpA8a+DyslrxR+FJTD0ms0HHlB4dW0iVEgiBbpd2Bv1D/imUqM4qoVcjBjfVol4+2RTTL1v+t5+sJbaoUKBLQ3FjSdH8q2MbRMDmeGUfsuTpVp2YtokbatKVYk8gO8fA1dMtgbH09EhbaBhL1XSCV8UMN/M7qqHvBW+EiMRcLm3qaEMdvjWi+e8lnjO3SJTqapOLpsLJqOPiffgWjClV+u5JSABQGadH0EfK630VCx4qznDQFNPhUStIbVW0zAGTW/mrWaUFDiHjWjNOny18Fh0vxPN5S6PT3wbmF5nQdwx1ZYBKU+W09H+qoZl6iRS9Abi7i9Ny4VaLE4UZxAQUDRwI6TA78I/zRzhTSLYhlJ2LwkWrIvA6BfYLwcV3Il7Vrer2kZiggUopKLd3lX9Q3r3/zr473Gk6DPi66PyX2CknGmFpP2WpSwKoLThgCcIlVpYRFFSYiNQ45FTYvrmMMI6baplAsTtS+LjgjD8wx2y+Q7wBehl0XDGFs58pG2+sXF18HwEYD3X421mv00G4N7DClRj9otlq9LUNUWius2lDbLNPBhNpg8t4lEEjaUDTRIOPVYn0nneAO2FNc0SxoAyBapc4gQWUcXe5i7DZF6TGbouoImzDuASEjRrVtJ56tneLXHfU8hMgwx5Uer6h+nPhriPRLknWYigf7eqlOmZP7wrinQKgl3h7hEF3DJDRQoFeGMmZCqj7ElgQZ37FP7d9KaMzl2jSt5joPKCoWoxK8btsAJ8iXuIopAM7l+sNxy/OrCzJieOB0HukoGTUADYWVS7Bg1fjxcbPwCzzCY3fmsRnctiOMsa09gAdKZqZPNJiQBVxHfqHZk/ZdKVOnP/uVWuOcuaJZA9jCg90sIPR5GzcWT5pogr81Po4HQ6UY5Q5oW4niXwP0d1R8wvd5KrmPWmE6BLTFBnxH/Vmj5D7FPqeku/emOuvBLBjGS0HY19GG63JCIurnCrCJB9emY+C08XBxHb88lcQMtBadfjKgwV2+eKN0B4mo20ClR31X3IL4ywheCoOaBGSNs5EJIyfjqJsK9KWLKV2w9g5bl04N7sFXco2q23AGDQ5rqS4+cBLvw6f5ifN/JY4kKHK+gmblMiwLSWll62i3Z0VplR8nrKvbiL42RsHp7ZfAj3rkIOh5BWlMhGvm1tZvda2TNE4X50IRe/Gazn4LqhjHyRgSIovaR1tEFJ9U+ogT75DsmNpGmzBuW6hggw0G6oaMv1i59hYXgJcAuFiSVCBb7oUISbupRsUNxbtFZIIdorOFs06e4w2TEVUF3ip/dUAFyiK2fdKKpCFvKUlSKJL3jor1MAXyuE4bQkdEotQaSfh5RLi2zR7fzTgq6iYqaQF1WeNwJrR91/lSfXNIe1+lKlWqfolhGNQdLqz06YbWQml6f+kBkj5BN4PyXmNRGkSpKuFrZsmLP4Kv0YaxZkQ7UPf7fk3mbK/6OrRPvmqDoBQomni9EqMaW1FGvOlspHUQg3BjzZkl8MdFZJg/tFAYXS/uIlRwPyUYcddT3mKW279MKHQOQntihg5MD0fHFrh5uvdoWft/OCUMn/g+vOETPKD5a7O6CSylyem0yUJKi1JI/ADjjnBB3t/lXqbq7tAOJGwZy1ZfYVC5oOc7uqfIEhCB1IdKWihE7H8VjbCDX9xs4vmK2XwrZe0yIa179gAV69b4Rpz1TpfkzBFka8dBPVe/v8wEgnAR8Wub0xzBXA8b00E5FvsC2Qg4mKQ38acQ+7bHkVm8DlDp5M0ZpMtZV3KEXW5UnPmz+IdqBzV/fPFCN051zH4YAOX6qB54vcJ7r6OAx5f0r3kFx//j3Ck3RgwVMx+IFT1f2GnUj9fqAJwwssP1MjgsMkI7e6eKlxsjz/0u/JpF3LcIWyu7XgIv8lSaEmuBkulUlMTqpJOB4zrIPzRw9MDEsGn7Lc1B4Y3kwktjATtK2TzW6Kqtcyy2iphoAWqPcIhBZ3KiQoQZYOiGATiurGYv/bXICi4h2CpfoU1opGNTIFIF1RDmFxINB/7QOLZrdWKs0EQGZ0e7Kubah8fZIoCvY4OtTF5539qkkzahIWjr0HtSvD6Ggnac8ssWSEBW7bPHyfPNLVL3h2q6irPDizYVst6niXOA7Q7UkKRwkpjUVuofuQ96VHE2zqdwa33NBumRC2SnlLJXhY4kXEfq68KGYidOMnKadNf7K6k5ccfH+1cE38N5zFHk7qHIDVmWMNdCG1lotIa06wjWlgZtzKrMcPm2MtrNiHs+1tzwXgaQ+eb8/rtdAOEuqG78aRHNxBVbNfxPVG3EQ+bY82H9e4nRD9HaMrhCRe6tuGjmr/lN7RNu+BkGr7RdyVZLDb6HumrHEXgLxpHI+YzdCFu6xya4NYm+D6SkpxzJgraBCOgkcA41s5eWYUAy6RYzBAtPR0XsDORnhhlw4TwKQuTdsryFpiqgYBCWtQDM4B9RVAEMBhed4/GsPgAKaqtiFWerBkaDYKGV1VeXINQMBhxPHTHCYc9fHk6Wg6iM75dFLYQkr1kJzs2P3XOLVXRbHoLlOcdPHNMO7DkSrt/VhzNjyq3y+7RcHt6TAXobLaCbA1oNa1HN2bY7PcK/HlYQYkp8Z0VkUgRyOz+STOrFtifBtZXnD8/6Vn7cuHsKxZ259X4U6p9fF2dQPx82vVEBCg4jYljuDvu1FecoarZmMwQOXWRpwRZFS7TZK8rgJbgDVhkcfFenOyJloRhhEhei7CLq4NcmYPAXgB6r/p9u9O4+aI9Z7MTvY0V1SnAGkUj31jIr3Xga2UB7kf6EooOUyk/JvhAJ2TwLUQpmmCdtdR0bzcgpym0yHipAmC1KMgsh+UpM4LC2nl6h2wISwjTTrcovuE1Vt2Qyvj5/hZMD6to+ZpOTUm/eJxyX390sWQvPW5q4JgahzuhOOMAo927haL5/uNOC1IHI38ScqU1ZANXacA3WuLZOyxyI1ZAXaYowf9mKg4NwuitQy4uUcDwohOKTkxkg7uPFwRa4o+ti/kef7lSPu1YBKW9IqYcWbtWlAbHt3Q3/tw9SKfKCrK/3qkvizoiSA905p+FnBQYpO/OUSlVNlP3FVCPJryBummCfBvFRn4nT7JZLRXHKUgbSU6EsDcIgaJLzCkeRQY4J2JYKJpOwHIVQpPeoI5j+xWnHRcua9+KU+88lLbwVBvO+NHKOOwFQ7TQRcObMuB+6WWQHtvl8ldD7qb9pdkwvi5fr+1wwlZWVQsxg66InMZ2Rpcp23YM0R3hvK+ejczKmsneR/OGKUdxrqLEZRyHrkKdhCht9Nt+MCiucUW/rPeK/Cd4Q3t2Pwoks1lwCEXAyOxc1aoHbdPud76zKrjtyzG/uKVnoXZ9wSXXuo7ecIJBDi7jlT3nxJOGL0tfSlusBX3RGtxgVUriR2H2Xg0v+sSbO/OJ1fuoQH35/ARgOUVPaorih2/fizj88PEgJguNEa/1pBo7MS7wCgqwpbgW11gJNowzlGTCa5o+5ui70047RakqZYSqDlk3M6YRY9wwd1/mHZlk542XhJYdANavkKTvz5g04R/v7Z+e/aweBnEtO2KjigHOIi0n9G6uuPqA/SggPBAzfJSUb9c2LI3JD+1K0Eb1N39EFNMQSvIQJ7i+IMHbO4SAP9v8LmR6fLCBb03N1BknExr7018yGC/Hx7MJpNqhHR5Qw8/jApTz8472+hm3TQaPlEqmHqIZobtmEszM6Ja/HC6adsTiFx3r/XM+SMkgm9wiNn0mDfYJuJmL9Snoe7cpIOZlEBwyuovdfu/bJ6+7xTLQa5Z5t0ynLnR5rIVsjqocCo3LPhMN422dOrT+G//H0454XPxOpeMxUxb7O3mmgGVmYY0tI/zpu2tzd196orJhmNnmFi63Lud+pV6pW1ijLTp/E+tVr4RVPFfq8x8QsKKuabENRcKacqMb8/S431fdDiDRHmOrQNNSSPFp1U6I4l95qH2xdxIOvWbPRj+TBPeUNtaAr+xeSZNlz7cUHzvsGkl1pqq/3DxVTCs6a5oBMMQ5W/x/QFaGiqLyApQqFk54UQZ3znBXPBRyvySNcloiaH7ZbiuXrxJd9uMUDsZAW3yGTeUqqkdOVQKNmOJocwZg/bhzJJrX0Rp6yGtiN70n4OAerYCdVWsHTaQYhnq5RUCWDYMbCBFtwpqmjoxfiKCYy/1LWrh3HNkBs0gETK4hnNg9ncN1xgSnvS9sJ9G/nGq243mf5WWBk+y0qeRuKFj95pQYN8L0kyggIY/H3pK1LGoI4w/bVbHEhNHuLBXEIdpm8OhwxLbX1HhcrflE5TrA6KAE+kox7VzhYiLJ7rVIZpxXIold0So1xwSXB+SrnBDlz3E5ZkH9+CYcFHwSdSCIBvvDpqKI573IZMJxpoukL7DSskN4XcZY1sDUKQxtyErTdknPj0ELkN2hrqTp8OXkAvD07n9qRyopYFSLKYkrs7v7j8ww26NyRFJ0wkKi30FbtO/s624NL2tkrIdCdAyQsH1i1k/QwsCb+fV8TUCZXymP2xqEOq2r8pNnnuo8fKwWMQ8U4iQ4fG8cbJqN8H6ee7Ksq1gKMri0IsrcEJR7cGFxHsCsicum7Ber47mrd/hftianVYKaCGjDKK2z0O/K0bRMJwIxUOxA79rUGUTdKn2BgqcTPAtVtSzpgEKDvqUepL77Jzb2Gcj/7NQbPH4hrUAm0dj0jU88dAFMtDCwtoBLL83JjLGwrZ+LIQ+GhvWMeUxIHKCAH4eP1qukEtXe6PVBppFhGK53uON/h6PDdGoktXuUyYS5Y2+uzC4zoORBj8vPghR8X1LYvzq6CPMEEME1yW6wSMb31sCwdo3/jl5KSgMyRfZPVSKKlnoeSZ2Mg3aza1do5TLwNFI20HZuG0R47k95PWeF6MnFa1LXMfXXHmCcun/uY8cVhnitfCaC1oR7otzTca9Ba3olyCrlXuHkksZbx1Ignrkt2jK7j6pOYtSyd5xdtu93ZuVvqEYox5QNovmw7VZ75ViVZhf4+xpuD6W3YYvl8p//nBncoKJBCMUWZ0IJqAqJQ3zAHfQdX0n1/TOTlEanheIhGQ4Wd06aaG37npuPuHoJ94I7RES5Gqt6IC5hnEb67xsfshqNrYiY6BehdjngEUvtNe/U+An8BuIdK8h9jc2TpoqOpxDR3YXiQm2/je5YTPGPgxwFwqt9nQ+KhHl1R2YGw+v5qwHBiOVK1mdqv+RK7+8jmbFE3v+TPaZH53qRY5lAvw3urhaRklkyKADORKcp5sCL+s6+qnY6EbIyN/wAnClIaaEdvxhVgyKs1cl4USPG1e5pVLPI1BGhwGoFGngGdjMxgWmnZ/+Ojc3bsDK/noF4Tvl7cvzaIcRn0U0sos2W9tRzR2ieSxTGbC/ywG188wkDPiXwS9y8/ReOFR4169WboRn8gEHSYAYDQVZzVsk4MqCbaMEElQmDSLzcX80jk88VEv3TBZs7fzosQBeY1yzr24fqtwSHVeRIt88LEN7ajBH2agRNk1NaqimtEgsIp3HQWmzet6CihLhW5FKWvu0drlgUa8hRDwW6PpxZPbhQYZnfGx8JI9Z5l0eKnd6fuRfGckVX8pUefEGUi+KJ6lW+OwC71wZwfm42uW7rlOr2FiaM8JvKZYrEkaEpUdFHVPWf0RD6pQcSfaZOoW9Q7K2Z2vA3ltCephP5W0JmIhQ388pexpp6jsCQk8soOKRvaZrT/R3OH2Xd5KtHZci7CQBPBTjD+XV7CC9RR+7Jy5T/j6nwHEX79jqsU5AlWmtnt5wShhnrE0aEc0qQtU9AwJb/v+uUrVX9sHzZ2JgdsbG2Q86KTjFgWhjLGM/rudGjgqT1ozNzHWFMfRplN21FlWiNOzFl31ljSZv0CCyj/dIcywsvHQ2O2qLtLCSce3UcnbJqnur6o41hnW2S1NDoF9F1sTLSKAfWi10bEWIJxmjOKhqzkCBZFyrqysVhURRhIgalG1ns1aOPWfpcqSpAhrbx9ZvZceJGLx8fcmZM1bkYWe1VYTYryWzoofIcXyI+tx6pLczA9auWEIjUK37amK5JqO/RJgbDNsTZ7Ku9/94aOcN13F6fxHRfYOztZgjHOnU5qt5ezzlztI0+QOYTi2edLDuJ2yQrCQ1eqemeTXTdlp7Mtn+fxVMtFwSVHP5PPv6z0xjW7BoGffismmeeXkNtYVeaIirzPCegJLSmD8Bv3FMPmwbOluZsP6BXBlXzh6n55Y89gVWSXR3CJ/QNO7yk317UCNEJK6wfz5y5yjDQrdsKDmEp7kLvXKCYNKKGlMrz8vrKnxKUVUUv7gqfk/nYR88BbZ57mZ6CIO+Mhwjl4U4PGsN41r6lUHDRk8pkkBQbgW5BI8PYjzkwy2Li8mHaxqFUZze4CA1GERuICkBtXtKreny6/DKXvpHFby0hLo12jJGk4Qgbc8LQz+EaeUMWrViWOWXHI7vjeTZlhy8fUms2Not6QD3esigS79I99hwWPcxxL8d0VH6DwiA4kPWh9iAoDSHQQ2Tb5aaLZ3OacYZT2L0tAvuvIGAyYjJjhHxo7NbqSkuLRyCQhJFa7ryfbEbbnl06U52t/CcqXFqcP0zEBSZnkhHNTHcV3IWSKij5OXBZPlsE8NHDc8H/TQeeKQvTjT4TtjkvL6N10inMr7fwCmL2IaL3Ry3htljiRlR3gy/CKlnolSA+AsycR5e5n1cUqCMV/2ooRL0bF39BHXMmZ2BRd0JMpJNBAl0mUSLOZPuB46tRS709dwCRM8e45jVE6Q1TUasUm45EoPm2JTNeIVSSqNPF9HxwfkgP7GZsdzo6GbNDQLzXOhTgPk+gxQgdTdDy97EvLt9rdGpwKDykKfgnXwj8sgafOEo0Yz3Bjea4s7ZPjxOuir3tFNryJx0nnbDldDPr/ikszClvsJ1mqzD76T/iZru/LDVHqCgdVLeL/JfoZzTZ7wOmlCQ/+V5nIKoBwNCxqOCITZ9sP+aku4tpxy5aIIZBUI+33p6YVSpGy1ZawL7gFL7T//JfJkDDPrLwp45v7NTXf6QP8h8WBGN7VkZIR6U8+PKtBr5n1UKYk5kYAMjAPu5EgqKXpox/yCFx9WRD2+57qEzKkX/0r16LstAeh0J4W0b1z7XTtDQI9Q8HflQFK9q2VFJFtc5Z1sJpfD5nc1JmvXwHmmEAsfT526aF+GrPBRCCiGNv4Yo4QN9Dj83Hdj+xb0v9v1Qcerspbbvd1xBGwoQ7H5DiqfULMtVhnd1axHhbXFG1CCSMMqVgzi6W8hWNMeTuU9J1HzTEsFEh4UQOyZ1h66obK/JYZKaoRcyShZ2fh3OZedOZJ3TX0I6fwL7N03vUU9ijZ6V9SsCbNeYV8+CzBJbyGTRaLsP0duOhopfkcxJHfj3pDgdLqF99utAMsfOFihkB2EeCG1TUoWzU2IEQGxmVO3GouPuE4Z0WnE40bTcSw1XSIC6DJ4oE+0GwX3kHBArPpclVJh8jktgdTlOem63BTG3OX46k0X4CcUInFbqAR0tu79YGz6NILrAqrClW15UKC1FPEwWosRliy3kO6iRWZ/jv6kVSjEgWSRbFE72aTzX/6GkDkCRpNFUf5WIuBfRz0hwMWbZz8TvW1wNCdx8pg7g2Tx6bA6tDvK/vPRYBzA/DQBcSPbaj1gxX7L0FG9gimAKo+DmUJ9VD6Copr68euOvfU/5gE4Q1f8P2usLbt7qedA551YUyBmAQJOWSmKWCni/WqwBQwEaMyqXlefXv6gKZqEm7Rf08KterRk5MutvUpomN8x5s1WNlM0LwXKweGwxQ6/TIJ+LJiChQFwvlfODuHbQgsiGYutairX+4vk6dieY9ncfQVV4t0BKa7C0mF7NiWrRPXhyDQT+Fo4okUvSiUK07yutLqcrG8dbCkdrKcMi5qcd8FvqjUffkD3FIyXc/dWUStNdwjoH1BSkltUa5Y0kxiQuvIYbvXXicjMY0GyCBdDI2yDbrQk86tIrAokqFFKQI/zLZdl1BVKxhyEU/4Uu/Jtp2xguc4TAKbIIwwaaADphJcjO24EM6AUjcZth+ePy6GIFCzxmIm7tHulpr6GTU9/TOHhfOx8ETQcqIqFXARHcPNOHoLZd3zC8qG9U6RqNAt9CPD9CgAcPE2V4TD2KVtbAcAYzsSiAMQ+fX/gc22o4oeLz1KLtC4xcQmDNyuEWSqNf5Tf6Npsz+owzcgj2m9af7KlMwtORjvlTEMwv/kzPHqyRvFmCRh70ZFM0T9ErEPkIh46oleAxNmw1r4FIM9s1waMhDjd5dOd+f3+wvg9l0hBWiq+GCidJIcjl2XkV/yvHIr9R5w7GSrJMaHGJb7qaX58i+/tO2P0mC3nUOXANf5Gd6txX19up10JWlSaD7ej2QHOVSNuLKr+PHK/glnDfuaAsZBbJcbZPKfBkhMr+HwGZE/D7X178V7hMm//jp0mnF5ahd5yaElIVSLUpw3G/kqePmxSZ/+rAZrNEgclLeU24TrbW7cgPSBPUh4D4uSIWISMqLwy42V8NeRnKXfqcV+Rj9sILufbT0dykNdc8GDkuPKuihAML6aKgeNCzgm7uoOg4kkAQigMQ0DiNTx/TK700fJMBK6kWgHsBHNu7lLi/cMNenRMCG+tt2AFgAlq2VdmsYcdjzww4NvoJrWnKtn6OaImEW8pEL8TLUh36ybYidEy6XhtjYrpVZ4pyg8+ol9wPf1J8mRnGtvSh6AtUChLaAP4TUNOriRB+ELt2YmIdCF0cWQPtdHbERw4Cb7QOSAq2Lb9m5Ro/I9069VD/GQ03kAVWhcubye0j7I6edzAI867RkHgrLTDP+ypoN9jvQPZRxOfeh7CRdnNQbZsTWaLBm+lPkG0wrWMsxG0QI3PEg6mSRCBPVF3am5ZFgce/xTwLc3Gz7iJoXsFH7GlxJgXzpoABTbxu7Jx7oxxxHndWOh4+KHAoWmBjL8Rm/zPuj7KRaU2L06EuckIWMLNos9CbLD3r4PoxTSEFXVjzV2y82Y2EGq1WlVoe685LkV0whKiUv8W5NGBufHYvLlTd6n1bPzoSZ09n5pfH7buiEh5Jznp9ADmnYJ4El9l0TeNwK33PjS8TzmKLLLzOR6vSY3s28Y3W8Q1g0El7Ow31oEFCh4IQYhRetKq3m8Rh3ZWZ/djLpArVXsbFdXnAN7Th5jlGPBIJUM9TrIV+s3t0GGC3kuKYT7AaZtTxrWoksE7T3rECUqHGMnj1imo9i4PO2o94N133TTEXQJjxTE62djKU/s4X62qBUipoh25+1vD7mZLvtKu7YZCebR/KsuariX2o6TfKIeRhXkhiGK87zKFqnvXbIKkP3Clw63AI1XSHcctcQY9SkMA354rkjGF4kBDPNrtU3Vxw7pqw7lnY42ucMzJuyZnpvAHTIxQzdG2YySIHGy1+MSdQPoo72SgYadWscqKDyYmn/A12Q7SYcFsVv9n7M3wykqyF2HlWoejjZ0c+sKEKZc10Jb1OmQKxlTq84Q2zqSW9EQS685nHJMbslwkA+zbO1H0PMT5wR386BBVgBFI9h1aKmgwep5lnEJv/4+hFgkyXd+GZMTqqb2ylE22fR055WV98sDHiCrRyH2Ndi1knrbQPLZ0fLtCw25u2h3g7hQDtRyXh1MwgU9d6EbaODf9dI2STN47DwY5T0b0D2PsINaXAn49YAFkb39DIfMgyUGCGXvKGdIKqT5dx4c2xPygi6n0EC0+l7GJ6IMywU3HlqSgJpbDzyzHsLvZjX0PQzMX3diLpLXpLNMwjk/DZ82Szsau9PqQqkWF9k2M78Snh0ql48LF4PpKJ5i0zpTaD8BNlDa1Pjkqf8mxaPJrYY49Pnw1a7z6gM2WJJyGQIevVSjyMq8t9eVo9uId1eTXJK3rHHAexvxqQIZdoZUZq+c30eYYhRnCPE1m724xTRGeiYvCeYc4f/ab51MD5mAWUZscE+HtE0n8UW0M/VslEzM58agiZNBTb6BURsMcdDFqsbHggf+9lMWneyIlW1T/NcqJhT/7y5tGvN8zKVFeNT2q+zxas1oV2pwisjBK983edWEaNdu1EAVf270/AxuxoFCWhcsqMWGgg9Idz+h9rL2w1N5o1bDuuvGJWJtA7hSLho0EumYAWGX9ijoz43qBpquIYiovBgQIqhUuXassfSGbLccTBg/V77tlMHiPDn8d735FY28ze1PHSDtREIgnJzb56uc1q1mp47ZbLBjIXK/DY14yxcYtsuu9VCagcMIsyLOA4UMDLZSNgBkR8f0+vdZC4ssq+CYrwSfvJ3TnoTAhnaSYkc6ZsggcpXnbjSS0XIZGtGAAwBnJj37SlR5dBgqvKChJotO2R3AgSNAIxWVF2hyIVLUpmAq4bsquiN0I9LXV0Qd/sELvD9PcwPNWbm4KIWelyiXcxu3kiTsSLDbgoUja0RCxxOK/95thhKfMmkzv9hRXEIPkmYNhfX2165wLbvTq09z3voUHXNM5hYJwgg6NBEVazmSsGlbNdoVeAgc/ZZItxyZBfmm+fojS8sZcjit7a3v6/N2sKU8FB0UhpQwHLUZ+j+tWYWAnvtpmO1mdP6tDALQRij8FECT6Hmljy2dGPu+HOskCcSv7KUu3gN7QLJO5QZ5rOC+FRpdBSeZmvigwvCryV4roqlK4xLPq3Vh1a3UCT5uvpFXXrmnNIoLDgLmigsQzOMTTdhifih8RocjvOyQ4Q7YsgK0OdWKCqhw9cHfbdoFsr2O/yYnefvgU+jxxEaaHLCPl8durIujPE5FvbmqTeEAlmkn4r26ORn6HXI3cH5YuCTgvy4GMr8AoDZrvsZ6e76YHVh8h3q5FYVbLmz/znz17D3RpfgwvoC0k6Bgee+kbXcw3B36uqGUirAzkfoyq4g7eJu5xENVacoSIlPXUgqYr8l+R9j2+N5WXH0uUbmGFApyix3rnuIsho9p1i34glRoKDK7oQgAh/JSpt+bRPLlZouxgJIQpv8pPPQ7TwTQDuiJL++xPhixfMci1uCeOCsr72hKpIdV0h4Dp9xQOYqRHyBOj4X/UugzR+QJcE0EQzt9XpRcBxOfNwnwr3SZGSF+RxqRnNBvwkBpHdjEEb1IpfAiNv9ca+/b7KyzhhAck6gI90PNuuWZ6HNlMKAmZFbc0ZXHCMCAvrbeTYdmu6LRZilq3NCR5AEAusL70fTvCMJZ+Rey7NuHYvLQXKv/d6nLKRGHwctRN7j91dBBUZCZF47vV9WkgjNm+MFgS2Vz4/kkLYtTONZjWGzph1qK2KeSlfu628VVSQCtCOrrCttREe3diZl+bAZsbwW9NfZDgHrbsY4vNM1EITWMMxu5VjamFz47YwyCGR2/iZoKwk26MzKiz0tov+aepEKUYWF+IzGoWGFQLgDFlz6Qty9OvbPgxvznPeRMAVZih4uq9QOLv7XHt0LlgfbbbT2uDwPM0nQ4ZJDZSmSMsf8do5D8ta1wFf2c0UEhcpX4oZys73gzLvZq/ctXuSVb9lcB9zN7HdsObUXjvBvzr4amSSOBQtf9HKh1NKTyR5f8irERWVozF3UCNl0lgcBuLvqv+mFeLhFoZ7QdKQcB7/ZOQnbk29o6eF3lMkatZ1VYMMR3NZxb3ZRgNRtOU+BPub+7HsDc3LRDHRZnyhsAnYPCG6jsJIofwTZnM9dfkcA5On6qBc4wXGkip5XO/2old0ZJ3S5Q7cBY3Uaz7oDLhQcMqmmmalYfVfP7hKpE6bOOhHBqxXDApxU62xhDeDBsUhs8uHKv+m9lJqOXJI29Y0zrCJ+0PJwIBYk9O/IDV0TNKWRPH5zFcp0JFcMrQSAdUVsZ1sl8XOWGJFj7gRoqn1e4GAqc6Mfy9snHHoUWY0CHT+kU3wQxuUXB1t04iWlfYaK1KxAOGgw09ok/v4IYh95jpqE4zCG4YP3hNg2JQRiqwhMwE1p7RWx24wSG4tpZt9Ss5roxLVcSToA+I5Lesy9Vm5YjgG/elx0DlHkQZdT3Se0gaVsvBCg0pnY+3lmB415HczhMrL4HR3wSN5BQsOW8BiZbJ5tZFzBBoMhcXlVis80ox02crhmjlGkSUXJMQgH6T7apIn+TP9qLbkL16LIWcAIwV420jbvLAI40TP/p3wWLlJqSzp9d5cR73dI8bHMLBFI73G53cN8bGo2GSXfR4cjnTXgTbUhZG1lwIy7jicFQRfEa6HhrpX7avT5G3P3cLK92a99p6hvL2zrMfgIIKGdg1IOwFeafGAJ7/Gc/ovChAo7WYVMrMUo4ssga6t8jy6DHYqxTBxF8YFnDe6sZ8H2S6uxpIOiPC6vLiRFnx1gx9JchhKg3IgI5G298fBYeacANb/9CUqVZtxYWUAGcSvVtxguv/8jq9+EjwEKjQqRXLXQacfpmvmPJfnNljWdmsEPEwHRQipcWWNG6knhalJ+KlQ9Un1O/kgdrJkOQ6KQx58/xAGCmcLF3yIypwHrxXsLInQEDFJSXD17o0V0PhVZpwgWn6xATx0hQuLAnce9z3s7y3gVw8kziCP+hnJCrcsCye+kSYGZjutjb42GhzvOxjGTeUMX/kd3mCwm9IDoFH0jdJMxwh9faDCH3kXp7mq38FPU+8UZSLfLjRRnNekAB2J/HrvRrDSsWt8xHdVK9nVxhb/P8hoJECXoBWuxKhsaPEX2ePtreWqyf/tcnzerAExEQfIbskLia8LLgRdIQQagW8g8Hz6uR6PEm/7tugBLTn1J8tQ/xGxte3yk4KgWdxspd4GuW2LjKx79MkaAZmsHjgjaWAohiq2Nj0KklmOuQLd8e39YG5ngPObAeiVzDRGTnSK53glR9msJkpjomES72yXobmGLkGs7fFazB89e+ThSl5z1TeAJ1JFJ68uplWUWHDpmyABd9iEz0vvrPohQrIaxUP8dhx6Q+9cTOHJzbS9JZUtuNg7nTO091OAAtrAPaNFT42bBCe8tnA323KNQDpZuTQ2v/GyrKsAsbe2/5j+MFm/yTvlDJEpURjbpFMKv0mo/97XxHpzWPssXxdaG437aH8A6Yhc32VHZt3TLk1VII1mflbbVpb830ancMdvjaXrMktNWCTcSIlQgfmDty48b4zuGHGjK+yhA/o2QZzv/8C7qAjfrbkkZ3612AACxnhC49Dv6DZD1kQjvZpfWTgDs+lsO2t2lzRroeGR/S9gmwCRf1TlFDmpIHIQZ0BeGQdXBZI3qbzhTDNBkPdkyNZ0vgIGzYBhcmweakYOAwh7uAO0zVt1eQMK88ssJmOFeuV4eGr3zVylm9MTucnUMkgh6X3Y4iNmeiXI8yWLigLecpMNecmYlA8Ly9weglQELBDdK9u/Hzl+AO4Vn07njQjqqV4h3qiaGtXxOZqEeTCdzsqqQtGGdu6YpCexy5h2evqqi5Jru2lFtn3g1uiHk+OF/JyXqh2nTIvZGNXSqANdjmrtDq+2MVI/2IVAiD5ERozUjIbFTlaVhQ39oT85ee2UYAS1tNRmmJTPBM9OuP7iNA6y5VbcQgSX3YpIXnLSy805LcSWBJW3/JxHptrRjcR1n7my9glksAXJBRTs/a5UOXtZ82xXI7bAv2xqwyuvWMr69z3w/e5JvmsWOTHKGPc9IJxVQAJUjLBptufxD/wh3G5o7sQW97JZ7Yr4igwYO6MVsF/u6rhz0tvkKYzsTf03mgXwcViZcBtZQZFsL08O/DTsVZ1Ecx5COuNYg6dFgMNn65LVyEwRhR0IJ078MxPnz0wxDzPOlB/N+mx9p6JGFbrnSNZFis59RldnkaNpknhtrcsRtjPPDKGrzOjM7Yv+C992NUU5+2Qmrf4GDSRMfqg2ramCyDtCE39Ri3UE9lzTG2nnjuJXsV/V++03YQ8kvVdMI5J3rf+lE8TIsy8AwrjjgabNqCQxKN2B73FO5qsOgo/ImmGSkYjZ13FtaIh85E1vtpwmj8oN7+67292RYbNwoUPuhA07BpBKLgGa9MO/ojpdTSsbC+XwQOU131f/ItRj0uXedXXteKtlHX4oDKrbhZYZm/cQkhcnetPJMlnenzS6NleXX1hn+HxSR8JwqVyUSC8mYayaskckTql/Okoiki1pZYbkKahulsEqByFGXrZWdzO8M9Qn1HqvEHmpl3uC/71q8YO6uITTura9bJa92wv16noIaMMQqPg5zZQ5rE77UK/DYpgdrAjTiTJfchhIojIIVf7e2B7An3CHdFvo3ruwFD137Q7yIfge1PndI/YEXlhdzYfuvGYfk3KXbQ4gg9fGnXbx9foYA3iMK1I45NvVtejaVmKKmjopCUlIc1qy5I9JgfPs0meb6wDRG5FmjEHoFhQ80xyqVLPZhhAU3YuYq8ZcjgdIkJhGNsjBsX5zVStL7Zrmf21QMok/AyAkHqHUdcpUSJKaTB36RlHbXyaWyymcdTGTnY4k9tewFTURARkofMeJzQDjqYFA0uIavwaOHRAMa/zUnHwHqI6u/jJA3jwLGxHVmJFFi7pau26AulWc8YYTJXz2iTkCakDrV+w59SSKOkEhO1Y91oNbigvZQYRwmBtMyBLMOyTzvchq9e3/5p5OZvzOY2emBeNtt8qC6T27+e5+dsCMzTReO1kQRlR0ikJJ+1FGwQuu8rm8LdaLzQ8ATCxaYGBmhFeb0fV5NI0Tdeb6jwkWVR/4foWLB4AjJX0RFJc5nqnHvH1aSatSABUPjCuLvVP5cJTXsYZa7uUS/KQZ88XdJ+JKj0Ttv9zrZrg9UBoX811bjhyFGhSM7vZut6+tgCuKl/17p77jHHW49K0tNjnL2sXEHVmZu4Gso7/5JMt1MrKmdQGR8BiH1vP41xKijYnWAx3PZ2BUV7+Ppo6/B5kKOOQLjEf2nK5jJjpGIbAyBxel/xyRWApGUEP/qjsFxOyn4WMSiWRmgD6lTPgrkQCRvqd2Hd26xxHF0X3B/z5+D4yYs5GiYM1aYOuJfm07pIynQEjLpNJKUa5Ijf6+blI3ZSnlJz6kahgeQFaMWrHHMGSdcSdD84AaS5tPi+3TV3wQ+RuQxRw9x+o3LBYyEMKhlFPDsfDbPCBH3/lhmSfiFEzI+3iHwa3uVd04EkSyyX4e9EmFexr+42S50oFwrX6g19g9AjkRVLuLuTkn0QHdDwFUCxk+jYuAtKkO2srIskWqR2/MOxpVOQEZtnb5IkvwVLLGTmxuFBur4w9R+Az+Y4srAINlz1fr9Ba3eOSevVzzqQhGy+TqmRXyHuRW9tdQ3zNeNxgqPilsOOCghVLsvHTFZZuf4gipXZ0cAthF0cuN5G7VenDzXFFdsC5GqzB1LTgDnsMt13hC1X5tMgL6TC56JVvyA4wAMmcv1fFDq2BboAQcTtEDJp7zg7rK1jGZiDqzP6Kd0Xy8UgF4Eaxu2Jq2GX6w6ME+035eXHVqp/wWekGqc/rilkkk6h1j6ODIVOnn1zueTijxipLIY06JfGvk8mzyfwIwbkR5ND3ojC+eYhSzSL96nHgbXK8SnRshyVplevH+EdVpBhELCOwBf26LfzNWy96FRA+Pp1bxL9vJmD5r8ddzJosVpSZLj1n0ND/7PBSziQkcvpW2qLl1QrseC2sL4U26J4XYAdReNjx+mKl8J3TfAFHyC131HyvWL/PNydT0bBWZmKJ6CmLI3uxXTnMvn+uP1+9K22eWvuScaorW4J2hpnCXGPCeirWNgmIfjNc4iIYUHFaI5fV4xUEnply4FPcVyydMv7NAw1jfW9oYboPiBTILNrz3fZjkgko6GHSLyhu47VRJ4E1rgzxJxmgHmP8rVvGZgUoNWGAK/F62dbeRRJNWMIn1JmQD68EavTMKoZ4G1bynXVijfwu9mIzurSJMgaTTCdNEmNvtj4BTlU7fgYFscs1kDojxMSdoa6g/saFgBydf/jU83bPeiEfq+rPfzn7xT8KyV7rD/GLgwb5K800lP+Ksff85/jOgapCz+LBUsh7hbJDbf0L6Kas020FEnUHRiSoo1rSGlrXxVpTwbljnw4Csz0n9Uf8CtXg7jy4u11pLwQIfmtwO87RxXL4t93573C2dmqYlklFqxiRY9dOO/dUqkyU7/mfIKp0HAGGaQkkLJNL40RQDP/tJmxOjV/uPZ0TH+sOsur9mkycKD3xqcI2Yn3FWg9TXGGE3qOyHSt10HEXqAFwnw/0/OLq0/EuEd16XO9wTXA5gFIW3BzIo+3bNir3jSKYLhffQ0KJt6ymzTtG7vtMBcJIRXvVsyK0Mqj/lfLPmKQOfbFIGtRAutxjPWmRABHY25zG0vf+7NflIQCyNwHCqzUOgESHwVErtUPlq8qSXEojhVz+YhWRKQ3wALOyd4PtBHS92G+GqfP2PocPYf+w7ORPfflPQm7Ns+DlDx6KWQNhOv0KooErhOqSJe+F7xThixDQbaUyV9u4fc+aySAzaSLkWReOTPwYRJBi6I76V8WgjDnaGzuOK34zJXXW3jjX09wY/mHEbOzfYmNGIl+tfaTi26f1Bu7CU/EMZzct3mYIQJp66h8AfvhoqPZdqFDQPU8AVWCsPn3ZSKWm7CtE/bNr3woij2vopcFdmn1LLX1U7Vwv/euVhk7YU11Imemgv9OO6KehnAv55a3xiDY3DZFoR2O4d9OOwcsIPAHX5yvnhq26Nk8DXXpRm2qKeCCvOYJz/nqyOUAdsyjlQYKzhIlVXM5OMt8jlJgUCLj6GI1CXK3gFYVQYQD6mG31fWaDPylAEZxnlvTjg1xe1mHGcK47QOgNP73b51a4ZHAhHMzS11oynMPjahexS9n6nvjZqLyfpuOrqP2kMRM44zX+oXW6HTCRrExCW391sx2VZDeAhspxuxLs4ns5gf+VwhTKoE+tTvRNG/KOqvsINdZpK8yjMU4tCuoWD/gAx1ZaCih+Bl22JPDp0LqPxtIzohO7uqRHWSr8ygLkTwoUIycJ7VSWvFGlY2k3Nd8agFY5B4cs9LvRJPS0li/loqr/PCr+5ysGl3+RXFuNPCpahgPS3KvXV85nwwQv0cXUYGEzpraPjvvlwUAMKgabGfsQ1L6lkIwwh0xVRrCbTtp8jiQoTb2BjcMBT4iFnhCm3TZlZJ5o8LfAiapMj8m4imD5gHMIcyPgu2t9fe3l3HaAuMlTqSPFpaJyP8jzF70QJ4cEyPnQnj+J66pru+QRGHVp+RqLIZ+52vVOIB6yVaVXc6hIP3PhzU7qWNUVPskH5ps8AEvgHvRSyL2yT+ufV1eG4U2tLOasII/Z+flCuVeEkhGU7hOyVjh7Lg91Yzt8EbVUty6YQbZHxFiTjwxtmAc6teRwyZRMtJPuaZ26Ch19iunkxO9q8iNX1BX8PG7MBUyukYq/0NO4HgK1d4QesdGK86V+v8CjRewk5frVxW3Tkkl6+6LWkcarcSJND9cB0v6Q76QblvQ7DldFiTdS+2mbvTXbH9HyY/QMi3XXT/YAt9ozno51/kwirsQtu7f53rxr5gdXLF5tDuGj3k2m6tcghzhY+ya44LfFpD/AlcF+0xaGHetZZFavQePXukm54bdMczUWncsshMSIpgzsaHMZBmFOFfO2E+kDftMYCmmJ6TO1SkNo0T5039EcB45/tAb7RHwZY2W01HCZO+4DVA4FVCNstylZk5FrkiYjrGG2G/PA5EWSpWwk16MnkppwXJ5gpubyVgBliD+scrZpSZf5GXlsuQCVESOhGCJpCfNgLK/A7ZGKFrHZmLihtH73z+2cBeoWpg47N41l2uFFl1Udsv31hbfilhWigMj/bUnJSA+cZ1Xv/8o5qJ71HtDFBVwwWF5QdZsPUuGqnnZDWtW/cuNaqwTucibpPgTecSf0iGaFfSD9GcVriXGMFJp4AknYQFIY+m8bCVZtTt+e801WCdqJ93P8G8zsTey9U2tnfjMvNYcN7qXTS1P76xtGFUkm2mpQTUSlS3ZL7/tmuhCLTgpyPfUoyo5KBo6yHNsTkWWzMhSOfnTL/9EgVjKYq65/GSxbA5YKHh7cNm0zVx26dwwyeQ3eGcGerD3AkaM7e2/MwLxI5nWRZDK3W0SLhMlyofoDfr9Z9zv3bl2ZrpGhjffTgLk0LLrpafPDWZSzH6L2sO7c+afFsC7WLkP2IJnmSeb+WljKB3wiuuo9qtoz4XRKNMQZWJ124n5X9jAC2laGJfu3H1gKZOzSFoUySpgdhtqpDlfNmWKQDnsQqJPzXEgQpMsUqLY/LoWqLgN5eJcLOke8ut3ohwHoiWmOWncFpXXEpz+kXbqXs6i1YeSDEyyGbBZN5YUC36PbT9bA6loH9ofg92fxxRhNYUJ8kNkbgOTExr3zrNRX9pbWQ0qN0zHbX+jg/UrS3T2LrxrBYGXOyT/A4BOjHRMlC8YYrmN1ubt90Z+UFV67W5xviaOgWitJu2HonHaOaZN/SgZ2qQak7Y8Gryd43J208jjiqkQMuFroHk2Rj96zgLR0Qnfteb+bB0FICj5ouktaKsmbBe7C8XX0k1JFeFsMpSvhFc2QKNQctpHH311d6X9rKXS/SjyqRjsmavfXkkXszPiRfEBVlQkvF2nSSZy4EEjOanJMCW/DTMwZW95nJeVQNC0y1o2KWA4XUk/IlS9Se3Qsa+gcNBBNN8WHa+zn28NL74K3LY5K39Z5Br6SP2swMRGEkaa+RwJw/u72RY6oFldF1reYRYvWS3N888NHVFdVH0VHApOAporCTAzu9BMgsibDwJjJKhvWbRXC+Ad2QbOBMTMCLgFfXPTNyE6fbWONRvgAznP/duvY8FG+WFdjISosfOjw+u6M1MT30LJRAqhCwveTtLB6hkh1uw4mZOLJGbvglIL3PLnNmLxLXEt7kzmmf0XFU/d9Vap5j4z4bgM0AHO6wkSyCPSulZSdCLYNiKIWsnGKi8lcHSbUVrXthzKvixec1MS24WFSuJruBt2nbEz9HVUrm3nurpmeHE4m/HW9sK+0ByDdaMedq78H+LvCK7pb7Ml20qDASLy0s/4VcVi1cmJKVrqwTWTbRWJQAC+V/lPaCLdBvQuXGQ/dc0ZkkZmfWjzs1/1dW7UhFgLoEuA8gqrsyOBLXZQUEGL0d5QinzH2FRTwuxnndIGVFPPzV5654jTzvsBneZVtkHrETY3oiblY9iwqtb8+TitkY9hfy/ErZ/4NXT8e/F2lShEpGiCTAzUC3AF0TMQ/QPtkNEPcuGuaw3112SnqjvLi25eX6BZqzJfm/fmRD32VAox4uKpWbgGyaeA/ddT4whJCLoUFgk18fTOKDPO2Nc/2K/m43Xj4h8USpV1fGk3+8KNSEPvhlbdG0brNBnBCmv6HZhyhBu+aIAjLPbys2l/0sprtxR+o3zjVC2oEmZh7rLz/rP36xjwLqYXaOUFBzLcRPIBb9WJrIW2X6G86fldUqVyzLcxuJhZbaCYfZYndWgMNdnrnvxyf7LvjPYyvdbknxPNFbd38hZ0JQYD7APD5Rt+hLF56jTze9eqe0nBT5K8whiwjW6u2HYdMFc67aun0mDM/yvm4P8KK/IrF72hzEgFRZYzOKpXUM9we49fhxZlZXS60AG15RWkdV9R1Y1onu/fz5u0SKOKj1o7P3TERzF1oWcY0bC/FKkcrkAV3zn5MllEfz83fzQEexyHDFkgbGaiQc90ZzVm5Cih/BP+QTsHB4qPqm8zuNch9b4GdpsCHdyu/wXRPs9yLHKO7sRabSj0r8HrFH4es9Y46VJU0G9bcdlkeGAyTeq6TJzKS5vVmtdY50ufvC2TIZr0XODXH0hIQKHfAKZt/Wi9Z4GGEy18Y8eX1z9ZWo/qE0dN33OY84lu2oiNRb6pB4I/y2p+3eBmgbvtKrbpJcn7RT9soHsR0CFUym65pSZwhueRgzfwmYBAhVDUGpChckO3wyfbww7iluOKLeo2VWT+FsRc7L5wtPp4tr19TVwPiNemxHXfynY1PO1ByhGcMEiPCzZlYqfa+X7wa5aY0UbgA4YVjqv+uqshcKr+qe8f/puiJ80p7RE3jfQgjwueUAht++nL1GYmHbLwZdmncUX8M8GTAAtLQue+MmwxMqFiR+e4RGIFKgtGE4XtwIqfASh5F03pta/8NzE/i6zw5amJF/AGkb1vVXXVNVS6SuT21esm7RG/Xv2cn1g7WKlNofYS011Wm4Fp1jylC/X55jdJOKbZhhgp6OL8epGJlgbLU9GKeqHZwqNFfvBzrE29nsLNzIZbuzU6kmLF1hY8y7qZzJzQSUVdho4Sv4EY1xMFTwWdXeK2E1lUpM6nvja1xvutOZ3Np69kJrbUlgncgaKPUF0aoXeyex8NoXzZUP8NIUJZnwpqyhA9mHHAY9L306tt0WQp/KguGEN7l3g0WUo7Pc8woeWdBlSGLqEGXjzNydcmAkJa/isYsEt0DZ2YOSS+3DLJWWdqiWaXrAz5MVMFgc31MT4Ni5MxYZJheSTARE73m9WPXFuChAlWKZz3bu/lrvhgmaGs7GkNy+nZk+Dh6EE65eS0uD35Y0r+dXkHHexHdywLEt/tBzBbo1j690I+Uh+l9UvqZ/DdvcrSaKqFxA7zklL4km92OP/PsGRUT9mnZRBO2ho7JhnCbTz7S0UNEGY51djldvmGAS7MuTdU+1ZncIyxiH7a53YYUvC4uLlyH1/++TGVaf8P4ZI8n0/BTL7iRe3n+3OwyBQDVgerOv0AMcHI/8hu+z+qpuGEPwapnly6EMlLbYarkxX4gEXCs9pjM7UhvDjb7QNhstVq/i6xqLNIzMjHcPaVLYBi9z8q0R9IBEkpvqolpcaC8xu4Kzh4zVZeDg0qxOpe8wxtq1GENwIkE6SQRo/8ZIKhCXTSD9gf+fsZH0xqZZLTQMlnXdjkXOwOuzTCWHi6twGf1I0xh8EP+VE5h5gXlZBwY2kgDyaSEl+NaMcNIchfL+Codv/kmqi+GJf+fVH7ZGBr50Lp06pCDY4BEYpXo8Gvk6KqJAZzlwbacyjyHzohqnZT0rKy+a4gAqug2QsSIfAaxUFWrbOraxxVgqLLvmiVkdyuWog6Qrh9oyGkt3lyZy6Hl9PKUpUJMhUwAoOegRmuHIn/wv+xm61/ndssnicYap2JaKHphLuBSptOFEOaTeRPUHi1Q5YOcxKImN46gRKn8LRXZsmfkcwDs6Z9Aw05mCzx7/XbqMSD2Z14O1sRX/zd0CsATrMSPPzpkcsy3xhfhmUCKv89yFWtqEP9S92WjFf3woEKEhfCX5JQ/+WWiYH5zX+a3R6QiSnwUL2JzDCofXGy6nTpACOzZEKRmVdH9mBu2b+ArfBu5JLCqr4kDPAD4/4a+fgS6vP5MohF8ZjHQsN6qrLVu3+pWNXcKTPx3RY1yr6Dcz60Odc38nV2y/i7xVaZZ2m2PjmVjrYrXpkQPfNy79zDRQxj/AR3FnxH9j1kP9VhDQaUkzO6LikvMYQYwJbz6ifazxQ/bPqAt6hTrM6ihr/bslODB+8SahF9H/Cvb4pS7wCqKwNjBPw/VMPNqS1QexGYq1xwnch1/jHq3NEa7h0Hfqe0BF/SSsx3cx4v5IUqdtrNF//uq5sdh4v3Mao9eP2x29mvAGzO0d0z68LegZPOqaAKwP7gVW5PqqX2fC0LRLhN88YjKmi9OPfenprsUwanaLpQM/Kjhwu7P9WOPk4vgQcjCWnwFascjbYSMEnRnmtIt4Zv3sytkJHRtgBctM8Nh4N6uJuOE7FBKyDqrCbYsT05adQvMZgHXsVadY/3vA7vNf7C0j5u5FXH+WINAJE2XpNchyu34A+c8Yj8ZDPQQMop28ICSB3lt97t9wWNg4Tb5siXbaOG/CJhhwIIb0/Sc54HAR0IVVqhJlphz2oD49FPbbN7APq0CAjNpFVjtQNcLypdxlEzAUCfsZONT/gk8sbzLoj136aHlNVs1TbIips+4SM2umdl8eC1wHIVECj1i4G/++bNRTJLX6cWL1rQ9U+XR0miU2GUoNucmqLpiekw7+s8FpbFr3ZdFd6UB2roeMJEV09JnUXSf/2k7UOllD7i5s2uShAov3jiJvJGsbEP0n0/fL/AQKt13BuSaEGVELd/ppJbBQiHMH/Ty031dObWkypPgSOWbgEg7CRqrUx3zpI9u+IhORaXNv4nJrErcoQXKwCMo4xuWwICO3DrCQToOv1dIvfIDn/CfNiuK1S0+AKMUOmCE9slZtAi20NkLhH8jonn76PjduoHrMY5D+Ta4Tc6bU4rATTTudAn9w3oisQnOnKqIkzYmHQlEjoviawouzfCRreYozLsmipfVUH1dX5+vTEpzKjHEyxMD4w3zhtoRLtsd9PW7z30GVvs+O4kfukzvi2LNR6QPx0dsVSxM12xwnSVccA4vr3avpD6FMPLgliFZgb7rDW3x0Y1M3nEBRDGPPwul6Fk9rkUspy9fsJDMi0kq/JanDJOUbjCBy5yzc8pQ7m+T+B8X8wwjzmJRT4zvcuV2PEoQTLb4sry0XCOV7R0Hp3csBQDPVpTvfH5X97OblE6orc3pZ0VUBbLyF2yJ31NIM8dbWIVijB3Ae6syRcG/G8+XAKwVvFgOpZDW1jxq+iQOPN8sbnIISp1Q81lyVkwrEqtUPJ4oMiVFUrWX9EfaSz/0eBc55T1rWAVSxhCUGW9AFyhnDewkCsmm00OUU9bdwKON7ak+L5DhWBmo27sacZeQoEvgFZOvNE4ONIjeKes11uQ65czao6Ru/iUZGWC3VqbY/QN7Q68ovQu7eqShNEHtPE1DVRexi0fq0LHdKp51nx+OXq6s0Ad+QOa9txnFxlHVz/GejVlDKnBSHx07aNKG7sKDif/zQD7VTFhhc5NiCWJ8x4768JdxSY8ldjMGBzQeaT0QqNBRXjoQbQSzv69ENfWdULJTH7ur8t8cNx/hdEWP8QMMbFNGyeP0lz6IBGEDiuCjqO6CEDRWRmTKXbD8Os/J/yDHBaGXkUTMEVDHvfpJxLLQ4YiK80ZWYaBzYeZQCsGqxmpkAZsyorJ730YWStH0qLmeHml0wcqfqwFJzcyB5xF1ePDFyPe1v+Wd0pU3+E5xHg9DqrhpttG6vVyhEBtdfvFzAjZOnJkcRuMdYZ2PznBQrMcvyzSwrfPxcs3rX97XZ1L5pPlyQP930GmK3W6B2adofB9uzNhNRwcf4lLJYgNZ3y0ReKhGu+RS66k7b+Dnr5vY31DLdIliqGc5C7huJ9XcJpGw7JAOoRLps1SIZ+XHz/yzLKGnohtdOzFlX1d93oZI/g1Zi9ntIUgs+E5X/rKew5PIt7nnP7XE8lD8kep+5qGa8fSRO1QkqWH0eww5GZgqQaqWy/kML8Af5s3tk554tpw4f5AROAkZXx/d4NPwiTx676YszuF/mI7V/uWTTVFtRDDd4WDxDgd++8UFQaoQwAnmr7freQbccxpIRyQJeCHexaC14Jc4lcR0abPYbv/pf0fc/icskOVbxW0Vq3icAVjZXuD+h25dLqFfpeDDEtCJfu0j3USkfQqjSeBJ4FaxH+sI5e/tLIFYgOHgFSgdpPZEuI99ApUR/RQKftXJIP+NkVDAs1q7GlpXOPamlw+9ewe7wAGoPZy3SSAv5z2pNAX8NXacuA3cLUhdtveAa5tp38SGKjIJETsZpPHk6qmZyu31rLDcc1NMCv1CQCzrIkJxQ4BV5Ub4hh6yonUnIXpiHGdzyQNPYZXGStPK7NYnex6+k6kexaC00C2CpQVCjp1grQ90VodFwtBKhxXhEkwIsTLs2S9W2ItmTpT5y06o1+c4x9KcrLpxupGGL/GSg2D0o3nCLiOZAf3f0OqwRYrGxry2f/CHD7qtQoTcrillsxDb28kuSS3SL7MPJZarpBb4l3Fz5jj/gAx47f4Ye2PvVSr/Z/nFJkN7BG375G0Q6EDWo7F8jQv9elzzYv4ZrSDVhPMmxCBLWIhk2n3P0caSjffI6CUSO59fEM3/4P/24MnCJSBWVGrhmXkDCUJ3d8iXI744ca5PQ0HKGuKmn1jCTL+wSeRPEuilX+rWY7VaNGtzO1mr1NzO1UGoHVU4O9nb2peIYXH64JoHO1PIbu481LJsWxtpwbowsFzUYPX/sMZF8XQzojsWaLfnpzFqOdclQpXrBRRd7X50hOZZSH3jcgL4tSzQo+0DNjHHl/WDe3FURu8sjSc5LhI/vmmJEibvP7GzTbtGzVC54+qOSfLPQTP1ODH6GQ33/e7y3qU0rTEr7qZfvqMGILISd5hFmyhQEJK4PuqJ97l87emON7VTCIE2CtSbuLIwfyfgJfYsbVTxijoRbB7x+pWNiIBv5oeqauVBfWv1csCQVsHK+EF3/OtYK3WImw4jSohnFpJ9oUSgjVYRBoktKR/YzQ9CmjEVeIYyZ4ye6jfRC5oEf6hCItLtBQfH4WVACSEGdTN6zUdZjbW6VQL+HN28sh8AzqlG2IdMfYO7OIFqw9gGSQjCXM8udZ6QzTdmCW56pVfs9Yji0KCoUWVG39Oijw60YECcq2f7IoG1bbDiyHW2riPUJE7RQov9iWiv0lgayVBiF0dAgMmE1HSQfKRmu7wXGM32f2Z7dzEHSJYkXPimwrdPT7hCxJWK5Fqa5U+qJQUKNzpwk0UxuXaEBmE0aVPMBX9EXIZchXhilXCQ9KPwtGqHnFM9Vk8bY9dZr4ag4aI+zGOKpZTsHphOWHXV4NeSoBUuOYE0zshmi4wATCVJBIQEj/Ews/MXN363sIZ8X9e5HX29zNpch4/sCNmjxhqD4izXwYnz8SL611OjWawywBRImDG/cgpyGrXMzJkkbORPxInG4mcNDgDGDlUT9nx7ExAs2hV9dD0iY4aaCBaNTQ74MPai/yKGRjCO388Dqw13b+kAoNmPaHju971IkB7gQsI/YfQGMFkUsqw7J3flHXB9dB71APXRCs3e2/bUGwXsPyYKsV/eb/+AdROGhm6HwWRRBJHk+atwnkFklSrej7IXAAIOcS196+ZOBexmHqHycP/sGvTlKusI8RfaYpkM0D0PIqQhqSISH82S1HPtUd2S+yp/SOdlbAqzMzk+7n0uN8iu7WEyVsZPNrCiOPV7xxxMQbfIThc6nSyiJJeUgAbvStuErGRjdCHllsOUKWAs0QfiELoGVPMkI7WNlU89EdbvbB+A3FJO6yuYSh0M54GeSCvUq2nT275ZHsqxN/Bd4G0hDtjtOvoERHzFHBtMuZFrZmJMbRwQOtKuZx0qpoy0MB3ncgdJq96ZfD0WcFyd6YyTc0eHKGmQfnbEmRDShX9nvMDVQc5f+UEjxfij2lidI2uW4FcLI5Iuh5x5POVh5WNjN1u648pQNgRNjw+wKj/1W4YD/QtdUpEaCGMx11of5BWLQnGsHSdCgRSAau/RK3TI6w72TXCuR4GgAkM5cSHdJVx7FcoET/KpWpfe0lYp3VGtrdrdsoBezkKAYY52HEEhRYEzIcua5xfvhck9Z4DDTmqjm+Uzc44W7mnpWV3Cq8gIMl7t/6Z8WKbFetINvwNK/MQ9izDMCj+h/Z0DmCMQB6oj7A3fnj0OhHjOKCjJ5eTo/Wd5mhDJ7PrR9gWTRMX52UG+4i0jVc1LQI0zatm7ungH/9iQHZcDXWm0uR+CHuSMccPuER9txSP1DVLauevQKGUn3No5CQ590mUqrezJzuOWX/p4tgSP2iettyMAWOvPsdgRz+8qSMoqfssfUNMLflmI288HkM/gsgJhJPIdW+Cw9W+KInp3Q0t2D7xzcDGzRwpYNjzFmEL5/bcZt6EqjSjSB4JxsVYyE/VsFfYGmT1x9qyqyTd1QzyxhsX3En1cVZ5Cy+jhdEPQVowd5V9l7jq7QcbTDmUnUUSRcPR53wotlSrrjMWlxRdDaW84gYgBt8SwID4je8ds2vxi/vo4lX/rYr+6ofKMrgGrNjBgX2hJzS31XR8c7OQKf8hZYtaHujvokqdfsQFLcNGywoT1D+Z9a4Agw3Js+VO3+qjT4qrOmcvxbhObHsuf6xUGnpjKvQBdXcfOLQL9VUG7Ol4+Sra44nINV8uD9fzzsbvGlxzqjUkUGmRCaWoU/jJN+tDkWdg40u0Zvxsnamab7ikg62GQoOtU9e4121QW/aG0mMcH2CT1HftPGPAwSvjVYwufWT2JoDS+aahJbETDy92gT2BSzn0XtRogBQGid/8etM6fgWr0uy6oMeYHO/DyO8swTJEXa/hf5VRyMXieSzAMmBtVLx6Bkj1sW0oZVRBIxjTJF5i/Xk8qREdNM4q2A0S28Vtmvmc5SbzL/aGq5FnqJ+GEim/Sa25fMXlktuke9yj/vws8vdfAPFOhzQuqoMYzsE6YX181GTYv6aC7XgHgZnu20sY1ho2zUj9xmzwyR6aRJpPXq7Go5tqJln6GQgc4TYBXuj7gy49rAayoeThQS1WVIvCI7Gt08PVnduWyouM/2kKmXFJrp4gqyceBhRh17AxVhVvCIXNyfnC8N17PcRGaCpfsOAAKM7uzsWYa9MV9IOiPavL5XFJnnI8Kf5uM4dbU4gpjKTJaCEtGIxdy/A37DMzV9jy8fQ+9iNyt1AOEWI4x+z2MteOpsRvgBWTTmVenfBSle6/sKQm4QAu6sBOsvTFGXLOekmmIMFHjIr8k00ZYOSEpcfMfgf8aMX7S+x8h0FC/2vMwoRWIlAA0HgB9aFDvAbX9jHQdCSKm4GykM2zdMH0WKMgzxxv8q2flLWvSveHzAM/EiyIdbJ0pJn5ZjfzTWIdhGMvjL2A3/gkRPxgzj5fWsuD3xUFKICSdmFVAFh2dpkrVYGdhboccTH76Mu7NmT4Gu5OUo1F1qOOVhLhNi+4fSxj18tsNeAeAoI+RVEVzWSnX9ojHxUT2vjfjLqgW+Quk5HGEoKi972zYG5jfgCGmBmKjHdwN2Tp7Y30u8ylWJzWYNHuXHvaBWdClXdvY2Psy2uw0A+b2BHyrZAovFbafPTFaRQ5epGQUivhb4F02mUmQ9RhIF76kZxwp0zDCOm1dbY0IJfrsp6SJTmtYR4+DcdIZPFMXisGCvfkUodGDpUqRbmmsiESzAuG/jGaqM50KtLp7JT3hI4ph96/CZqFG6TMxQNI/E2M3tanoldGkWw5Jx0d2LW62RagimmqHfnj+zk4KbsDMtvP6dyUmMYCdnHvnvMJR3Xrhmwp4qxWocqC/EQMCizTXdKo7BOgkGz7CRZSBmFSWT0z3ygqxpc1jHyZMFU1svP0GU7k3Ii9UuHU8XkCib3iC2FooW2/hvuw6rrgBou9szyyI5aj/3yoCraRd8ZbT9CtmxHWGXiAujakV1rHB4exCB5wsPDnBRr4mkN+0STHWasqFC7S2OLmjd7DEbkOsIuZqY7sTMm5oHpWSpftqj8ghR5FPjUmRBsa4d8JkjghvCL9dsUNLpyll/h8h/AQdogeOBqutLPlh9roB5vJYtV892vL17fXTpocyI9yDbHX8fnt+RXcuvn//bU2b6vXe7ZItcn99a18l0P4WbAaXSK/P/2jFq/+Z6emnaGxUYl3yArNLWubnzFLF9DEVb1AtWk4St2oP+Rmf7MTAZCYpNuHDdkbYOMBKJ0NaO82eL/HtQF/qWnVdyIm7Anr+6OaptG7bYHsrh9jJjsfyFEIp4xTIX+568bTtAcAHzmvk5vSxolESU7Oe1gLb7k3XaTf9Ry8IWoIj3zu6w0MCyh0ZukEMCVCbexJtJcoMmtbM1xfw8/gxTehJ1Kykw55sIuw9DP2u4fQkl/9st04ISrvWYVMdfJMjOoTKKS/+SSn3IGhy9eHovT2abZlXnkQ0HLlySXaT/T+6G+e6f5KJ3JVYaeRLIDtLWFxliArvGbwNdfXeMBv1JUXGX+DiPKzNMPFeAZQLePV7p5+Xlyyq/iR7UK9/P3beoEsyS8CdC1CBQN8O4C4aTfuXBGwnYERLHFK225aCx5wdx3Fm1pKb8mBqdS95NHvWmA5KkTd8Ijg5I7FiIiH1dspl/7ghos6PD5uBJFjIe+JgbiK5JQ5sC8QcNyHTNhXe7v/xq1Z5o/ym8fjjemyAW1uBFoTIktO8u/Kyue/Y82TaPQcv7J/c9U0rZWQjrLdlyXhul/MwGX+P572hovSW18FjS4vj1A7DZ3v6nz0pHGCCFnaEbU+bWZkWCkqySo9/kCT8VOJULNFpqzF2QqSqecN2tevFdzhcwBekKM5OTd/96W38LExe+E6B9NVvSpygtLOibtCF/+yW7elKwVuCEswhjp6JBxCKw/bEzlTlJL2ll9SzMDwb1As77jJ3djK8DJLLCT4M5O4+rpao6P2ItPS98pul5aUVuBsolMXnysFbfNG9q4PkCVxFN7zLWMu4RFnjdu4c2PX8DFppSQ/wkr4sWQKVvLI0Gfn1TdCrmJ4BCPvF6kqXVApfQMfxWgULVH0FCcO8DLhaWGJ6+tlkQuRz9W9kBFXCV4+F9VZHOzVNWwXuljJmZnRZXlXuVlPn+5jdRsR0PYdPTmhsm81MR1yGiw5Uk+0BNucvGrQy2rSHitz2egIXXKs694vI0kQ3/pfON2jfvzGRznRUSZRds7N+M+Be2rTp3o17/FQwIEMIgJhpI3iI66pCoM60OOMTlmQmFSuWoUwzFmFziMUFsHlZL5PD7RUxGse5DjaOdsWwtY7N2zhz1nzWNkhdaoC75iW8Nxh/d2zD4nR3LgVz6V4TIfRnfDyhdqwoPOSGsAzxPJJ0ant+cuS1zDYj55XvIfB+4xgQ8P3i3QbfYTT/ARcwltd6VGdiUETj8L3giE8BdKgGVq3YUcwnC/uZ3RSKbMO6rAjbOBvMTyHK0ql8ekm+RePNiDVZ8rdTrNB7o1qTPXO1oCFIWJmVZxtS+E/xsmOLBPKPsKd3IDLTkjlo/wlbCfq2CgmuHi4W11aOWqJxFOlkmYd6EECwN9dIg9KUqT6OmL5H44TmmlLD5Db2g+1Jn1/TqqkUlYgM+vneYAMLBNNX/BOfpwOgC4KJUJtPfNs5YDDuv/ZVzp3zTcYQvf/QilqhTIcDTnIoPF2XGeYqIXGtZKVEsAwMu/5p68QdDXRlQRz4mmtPCb1NVss2vjhN641k+LcJY254doMDKNE/jxQBqf8nCxoKnhCj6h68FAVbw/1zdHJLRp6EiwABuXWQEw6reycxWDz0HZOsbZltmScE7f0pPnkHkDyhf5YJFJJrOsMqf4s6rLACXkSw/XNqjH7x7Ej3+pMIcvpSnD8+S2yGz7/LOBjgCn8BRBfGapnfF5bhPsvF37I05zkLHstw0mDvi9EcOl3iDcysWr9/D0OTRLYH6c3vc16Bkwk78M092qGZMcQA6KDw5nHdZwTyE2u1E6voAOImtHiFkwueMS7E2d2UGZ4qfIGWh+m4Z1zirEF2MWVep6ZluPrdf2WFOkQI68MJ5UdkqjQ9kG74ZJjeaC+Bcvxe/KbnK4BmUtOtGYXuXHufIhIjp3L+9K915yLCrckW5cZRAVhTeSzt6ddhiwilWDe7Tn/ju0yhC09+PULN15feYcXsZsWFMRUaqBrzfVDDPv4ena7yp1CPNBCo85GlU2KVAh3Ey5uR9cO9BxT2koOiHlmiL89PVdCHUTNgI8KCJ9MqMkQ8bMY7I4t589ZZtTrahxNHXNq3wLcKWYEJejUMkzCrIzfvyI5gXTeGEhgWeCN2uQjSs2Ax9YaFDXa0tk8i/+y7r+7SLBtMkh2ZDKDf/jzPZsmr7NHj+z3fFJLrAu69U2aY9HDumiG/wnRMNWNlYaalwBUP6WYcNw4Pduab2ZHvc9zikG1o2wqcNoEN9yGv5FFy7oSjq/VjPC1kPBTh5dADsHRny2OE9iUwq+XUpsCDf2bh7qKNXRYyjCAasqoJq61/KfNFVY/FtNBaBcYyw137IVpMOukc4DTz2uy8cRBbp+5/Y8ZG2YIw1KFL9cU6+tPE4TcQqIC5ESJlEuO92WDq93xECEs5tgLB5WvU/TuH1wItI2oymOWrAdjA8XdQhLFErsdzZRjOiVz7hNO0R+xYQ0HfIAlVne7DmjSwG4ZZXndiT0vEzYhhzi0MJm2nW32zHOyj9CPL6BvxGsrVjyVT7QOXDjmlM5fYbrq293AuBLCsTksOPLpCXo0umqFHh9ezV34vAwE5VBzkNL06V4t2UI2Iu/WM350I4jxsxmHbJJux12RCsOGzml5RzkUVukAbXjV/Lb+u4CLzXHZ43yvFbP0G0WJVssVEj0a+gG9avLmDdMtLvuhgzxH5LRkDXcfVjQX1k7ZzT2WgczXdhwOebGdXJdYPbFEfezKM9T2SuCDSMXH235/mR1EJAg/B5ZaDjhDqzK/vyRBZZUjCy/AGMZ43ByH30sDTwMkOdhb5LrXpFFQwHFeGMj/U8ecm3mdIC76q42pqIYk+/U1Qnl/ZlODkqij3y9RJr67BuH71wkcUBrmeXGQlWuYtMKsZdFO3nK5Q8vl3QSdOC39CDdudH3qdxQiHjSVu/S0UVb7GrIisxa5YclGViCBNXMtIWRrhndmGLwnt0GaKV5ea95mygS2NokB6oYi3AtFsdFl2yIPkxPZrkZ+cdkI+ER6c9UPf5rRC5tzpt/BlS82OQ2y7zICIPTyAKDb0cm0ouIX8ynCE+r2i70thdZaQfU2omdUSm4VbccQ8khElPlFIyP/05ihxSWWyhsz8twnf+OIVHZt0rrluo1YdTND+OYXEPHbSJJcIUeoCWc73cL3bszCi9tP5MDyg1FdAcTNIfxRDusySuJHC/MhwQwDedcA/HPLv/qHIAlAI9ny0kVddaswYfJFhMj4o5qTQWhTY88FiE1ka+XZmcyXQ3dc2Moq+ap7NhWxClD9sXepvTUh/KHFg+nIvxmjUQc9LcQKQZBgoct7QWDGWfBfUkTRgtLKE2AAXYZPbng23RPtNE7prv9GyxPuBt8Ia9ASt0RXLOLfjHyUHqmvafyT+l2J81yX1cxjXy+qWJq+VxQghIFF99p95JKMhS2tjZ0nQUhYuymlm/UaPEJKifcncrY3NTF3iceI+IKjT5XtGTM08eiwRDgPN2jBQz/odhRLumbLklNlhWkOtCy/6oDfpAnLXhdW7HCGSiVs0uJDVOAkQGvxo4JvKFfvHA4hcNOWoysDeU1KZ+m0PKPhJcSo17II1YoTj4lFIVMOmNrf3hxDQ1XLe1BxQwvto1ZWuok//CgFu+Pj+l6BMdFTIK3duPgQpzLLFmuny5aDM8M3X7rHVhSD81ncdozAJKy633v22vai5kKDtZRrIggrRb3I9fvD+AaUYdKulBhXUYLUD8/EFkA3AGyQezwEdBRTLajZfT3GyL2f3lg39rckLHTUlfJmudTjq5F5RzB7+amcfuLsQTQYfRiaxN4rg1rQR+W3q2H1XzW9HFQix/gbK5SJ55M0/plnpHpcbDUA7comOm5674ws9pJKpdiIoLzzbefdOvfguB2EAijJWYBy3joECcaS7w6e8tS0Dyaf2eezVbWzicaPSusg78QnbucXnU6xEJL8xDm7QPv6+ahd84UTUuSYd4Q4OpDlYGjmkShfZpcFxi9XO4Sboszz02IElNGJuqyeypziy8tNKTUQXupYeLw58J0rDmgxCGV94Jx2SwZG5+cBLhsBZn4hVqx9kD34ettg+YGA+93CcFlM+JG4pZCxqcFICRdOEzEoTDPz1rGyqvBPnu1oDTStDtSaDBcZhlqlWRnoxd6khe1sWR0pKoM9XARFMR9SvAO5OVCYxmJ6hW7fXoGzav36tXVZ+Z+J8RPOkdc7WQHwEf7MYtGfnEGGh4cxzJBYIcGG/oxz4rfRIMDOxbNOUxtVR+dlBWCxpbn4IU1ySzYug5irhc2YAGJzGPkt7CQqPGAyhYXxnR6wjvYQuWH2XPReRYx+IX85WWjVv1xWPwlsHC/H5TKG08PSQYaQFoHizf8oyAIGQNDQAL01kYncvqRAw1tryuPAtTs6aLEzfsXz3gbyit3P0b2XaREHLh5Y1hn8G7kMv6o3AhzkfYo12jkiPYLvKY5eYFr/xTVI4lZEHm3dTRgQd77oHCfMz9cJIDqcp5gwxbF+Q3D811w6UgjLmQbve22g0PjNMMJfJX20WjIY+dx09Wot9YwItQm/mKfFdFutOQtIoToCKWwhTfdI/re81ZQRHv2A0bhnzf0iTjMSPjZFypsKd1X3lk+QkTZkklPi0y83/u+8mBcIfLdp26lJnq802POynP7tbGThCiwV6qPzz69xvXFCZiSufXJ1W2wmEXXJru6z3OXHsFOGZWUuyYXgMBE91g1XyOAm0gpDRqJEoiVR50dX3I2wTA5/woPz2GIvqZT7Vu0f+KAPNp1ldnCrEzmVyz9JBFdACQpu63DrynkrBEYVrwyXYs4bkg5OukTgxEfjAr5fhnWJKwZkiVM5371I27oU8vvAxdMYN+np24UIoiwPFptSrfKZShdj75nGZOYRE/0mrmlnmeF3rhUyz9yBoKgqvxWCMbfDBvtjq/K8YWeYPq2kv8bRmhda6inGa19khOPmMFuVwhzgPlDYxbD9G6rQsPyFV0lv2IaNO8gIrc6TDAWthvMGeJ04FJkvUI7uFERrfyzx4lTblE5ySXAod67Nak+t9aWgSgWsuBek6OeBA27ls1vLyJmSppQKKZGz6rCJgVY4etbZi6F2jmeBDJ3ojl7qFJOOg0Y3hTGj/9ZV2frvGs/FwYSN9DB/1ZSMc8jMAsBQOFGLFC8EptXHHOBoUNX7McUj8nNPwP6+3c8THAYJnxNZxzjaVUlfjcWIuiJVpyxmfkFbMVB62QQ9V8Tz6tGNfa1MnDKI0DKh+bIlA9evRIRnSM29LphI3T9VpvQdg5KHiQaDnjVVSYWrlAZJbPXyK/Qj8EFUmtZa6LOYskqx+bBE6Zdl10J/Y4I7FdxgHX6h7EMGlj+OXEkswLgaSGyuPwoGJoj9fjV9ZnnL7f213jEekjsWPeVA3ueuPhJYDBrHDYlS3uTbSmVlUw+o8Ed2AReBNUH206O6P0isMTUpdt6JHRxiwoUf8oTSXfRVJJbZt1EpcoatMuX6ZaAW1xJ1T28+xMpPVRPcM1hBSuWX7GGjILpnGiQI77ddRra+aawbzIHF5n6OAXWUotPY1Ysk3uSn+5CMBtmY2732bXZwhhS3tEt++Ml3E0hJjHEAvsuPBSij7IqJLyLtwzoF3KnVt9Cl68NGaIUytauLs4ZjXgE30WgTVNvvZlZS+OXXrEsV4YyrPScgFz9eQfEIkOZRSuNUrEWLhFwhlZarAXXX2xl+GYe77wwNa3RfwFytv2dxZTiycAOsy5Qe8e9DsPPBHA378a88p8asGcE2zInVH1OSgMMeZjzofNxqAJWXe35eyJtDUURNh8/bMh8/z7pDpI9zJkitejsyOh1MTuYC3GS6HOTANAihLLWQoCXH84ZOGZdRPwfWH7e1B0Q+h2PBSEvcLJWetmeKQ/AKnAUj3/L+3iaDEzzN7ksDH8Xanbs0NayJW6+cktfNxj+U0z9ubMLydZHdu4swqx5l3uCuvDt3A0MFcKm/XrDq8KfcfMlWFXGwLo4sOXQJGSkado4RJdqNVfWnuXkc/ZyQizLBtYgpXJeyiEY2BCIFbMZQUlfNtabPROllxClv65tItEvSBB97NaCkd6ZhyNaYBiSZWxt3PEtlKicflCzcj5tAkyBUv6W0XlVkC1X0S/xZaMtYBJQhGVE+m7e6O163VsY7lSqxsLrgcKs3jhXcZLxH1Q2r2WTUbZZYOc9keLsdZQq1u/0ybDV7f65Jk0ikrKlh79rPTKsHpXUqTOoT1ch87pwfvTDaqqVxzWWKvUKDdBKrEKIV63Ups1O2r/WFXietePV1cZ/dJYKE0e37VZJqt2SKHFCMM6uQ0YARWslxXFnkXERICULwto2QUlUE/mth78wVqXbk2ikrInN0zggSc3wBiKYeHErzvqk5v8Y1s1W2so0sRn5Oz8Zag6XtWAmGubWtsufwrhj2ElRVpb//tgSyFHX3/qI/+YEqbVUU/ZJV37K/Fh2iQfECzFoAw+XnRQLJ8OkTsJqwo8zWT28fczYCzKVjaB2BtHGmAiuXsee5bo3VT+MLz3DcnK3TVrHvcwIzRVayNNxC/GKF+YAHPivY9Bhjj8svvS86ssN0fdvWj2UeXy9OqMnL+i8GTI+4Oa3yUUgM4FhGU1LXwS9zLuueZpmqS64VxYqR4fbdn7ASamRy7rlNr7r94WummEKqYmgPTf/sq4+fQQllj3L0bbTSBg6hc/AM33F2QuHZKcylwiXm/eu+u9gdJg8sby0BHKXjqHU4oQ+wLdPt12fGW0xfG8MyfC+ERiP6EPdwxqbRw7TvjlL6z1rSpGybzraKxvKW51qN+/ZoSqmvp/6xruBNJI3WDwNnr0lIMIUe8P45P3j+h0r2X9Si2zUsI6EUbVqYz4MqQEj5h5erUTSXWXwfADram1MN1jMpLBwmAProEEDmvwhqGwFnfmggMs5Tug/RwncTcx2CxV1AGhCra5agJHhT6FpuNY8mubFWZjF8xYPXkGcp1S1zeSWxQKhntfk1jQ56Gk5sas4WDh+qevvql9pWd6aty9f3Q8JqBf5VURmTzN3SLq+I+AYiO+6Zw2aPvmbl7iN3j3NFkJp/hCPoM08s8RoUJn/PH+9wTT4uLX0K3piPBq+Kqp322wefGla0kwS9Q0nCdq0UadS2z5l1kdeCxYC8BZoIwt5BeJnlLNziIuyo6JTWr8R112qtGR4xbqbbs3fy/DErIOBDB8odfp4Og83rJak5pZfnT2Z/vWspAk1CNiLSarO1qrIa7cGdWsOeuCl5zoraLMWqUc4jqGjeUgSkJF950JdSXfG2qzrANbCOPG+cX9kEb0Tc0VtmeH2hahO5TUaoT9k9Etfabgz+NTEk2raABxObG6cRrNYHfthsfM38jdMie0v0XcPwTy259uOgpK2HHIjpzKkz9BRyHKkPG85qpPHteLDmeF76wROytBYzM6zX/r9m7lKNqhuRZ3r/TeopbwqmRzRtSThpGn/dGOmITI2i1CUZpz8zJUJX4s9fqPJ9QviwOV7lrt9gXDCXZUupkKGGq4ombd+zexYR+BTHS3tS3j9RdmjHWxfS9LXQtx00Lj85u/TjGoMpaerSuWB4smEGJST/RXPoSfdbVLYhGOQ1plkP+6SWNBFuC/3gixNELU12djoUxXA+WjOGCCH/C3tjak5HxES5mji6MI23P3cfWLX6FF8JrTZeYhQMYL5+JucqHkKPG5wvJgHCtBVwDm8IG8OlSZLMGvpFHMWiTKb3Dtd3mAii9yAwxMeAV87s0HuGIvxIkg2uwqVZoGncYlFVRcn4NnIIuvY2s3vLaMfNFktse8PtjV6NGStFzXbFGvyf4QgigEc3RXMbKNhYcFBj2Ya5ZH7EFsUBrNBeCiZApBVIx3eiDBjoOgFh6bil0naQ7+TTJ1IzXJ9lYC9UcEmZ1omkOH6kTRP4neru1nDiXl6gz3HpvTVL+mwrrGvaPwzjgcZHZsTzWLLdyka693AjDJIJ/bAwVSlzEcx0dGjjQuCMRzV5WNgaupAnr9cS1RSOCfcaTESyHok/qmn22G0//SiMWlzYmfl5oUdmLjTVWy3BNXWlMhAMF9KQBKpstWuLwiwHGbTPxGVZfML/WGnWQc32FpqHYcDWISLXPMtPSoNKBcNgwdvxZcrfXAL2OKF4+3h6kXqolZG+ZifhXLQ3jspgLkRfp2swVICl79YDyWzmn0OxAIIz2iLK2S739sPK38oSKn1coJBkQrr9fv8/p33KtHRFJNe4ivIznmDknROQo2wA1tfHfvAsfzPxn7rbFoZ0krGMPLZFvq4R1GrH86Kwpc9DWrJqRc+nQs/HcVHEIe8WSSerZEvY6fiidHcocsp1sGfrM/AWYvVD9O9Y5cEVjQjMwtLT4ca3At1y1qt9m3KPKCZ6R3BSIjsNN96noQD9PZc2PQOXZM1+IMm4TqliLhwMIfWyMco3kXjSmpqjT+P8XL3RZK/Mazw38XWr9D/CNed/sY66xFKSxJ07Yp5ruk3jA6RULKPgD8nbw/54rhT68WcLETVTRWlMfDccaqA55SZxuA33s2jWSEgFxBRhQ2PqkK9/s8GeNNv4HaahF3dL4tJy8LskqXpMa37GIrOlDkrwGx9J3QatpJM8Ux4KNYnlIzOoiazwM+j5G6anqVokho/o5SU059BPvdeG1q0pfp8ix3ZXPryrn+3/be6uMGguDHMnTPG1bEWAqcfmq7RJiEsaCkluATqTGCiS3Qci8cW5KZEh7PNnPoboBF4AwZ0HeSpjUNpmNwvxZOhsJkVR4kzVd5SfAaOKsU2leE2/HO0Ki5Jn1uzlGpJfKvK+T1RH4oSs/UnmbAfugq2opc/5/7gbQ2su+jkl2XeObF18EDp2YaFsE/pgoNtXhn5a0h3aWb5qTxx+TYz90mCNJdvfnj3RkEABbC96qqsqyZ8Eloa+Rgb6NPPeIJdN1MdKCOTA7S8u1nkUkYuwq2GgfC7RL2oCnGJCen3X/RId8KOf/aOM3C5m8ps116QFmy6Dxrn8hgSZAQcYimyHLnzmWlXW/4o/5mkZfza6jkjiv3LFHx3by496cOEmY1xy1ArTt81MPyudt8wcjS9jE+5nMfbcPtcFZlW2z8wiHRR1EMA+InzEYFa7JYdx8CfqBWiUrwsYCLfr90HiEtVdcrEO8PoIqEIcGo/DWurmkdVlyD07ao4CLqP7z+rq/DUV/B9vL3gFBs4s1ELfm/71yD8ej3NelxPuTBulJd2xq2fyV9vmz7COJ/DYVTPFfTDV6mSWK7G8BzCECNQUdjQoDqBXYs0sBzQ3B75nZioQW48lpR46GYcGOVh1e4XxvizE6B6UcnwFO0QjYRKrkceO4I0/3e7earLCGzvVKVR2x6195i/QPA/D0HEoqUoi3r5aM/s/Wrf38X5dyv1NKuR6LbDYArT3UFqrVCONYIFlwcjO88oajebeaQIgbbjM0q6+CEmOKqfmFrNMTYiBd98/lE9UGGMNJRA/SIAWIPjiXJZN/p9LCLo0uYCZ85tT5MtkLf46zw7wd6RJLEuXj5Igv9yh9ns7irwcOiq91BqRxUH6qvDgBahfe47UkAn4I1yayaXGjksfaKwZta8WeJZZXNnsmdu5DgqkmHc2fVbXiPA6dwXI8IgQQ1KnLdduOFsIk14xhWRjrdSXVnQ0mL+WoIqJ2fK1KX3iddslLvX5azX7dNHLLG9EjEuePTTVWbjfh2St6NRR9vCHmx0ycRBTgC0ZLpeub3HpRWiC0LPLDakrVIGmqGoBBr0OZknOnWHzPNenLpXXPG0LRP1DF6r/Ia8aelKWGcpD3Ktt4+66qkRw+qhIPLFaVJvc0cKM/Q94U4AcSTqUDFrQKDXu8Kcn+cKYviYr2+GR/MmMMc6kyTHcvgzjsBBRoR/OuYR+dMo4wfsojFqe6ObPynqR0TgUnoITLoaDOIWnTYIScuTjrLj0ydnlSsFFnZXxe2i4L0BKaxhMExMYYimVCVKVwAchOxr4xLwGw3MAvgyPBgDORrZN4ga8MxnARU/Qc4TyzPbOQJCKq9zqXl8biZlaH4+AmPzNjp/+xDXOg213xcC75ZqdpC/2g0ckafFEF+mmuQrvQXqpLbui+Cyk8JJg3R930WXkfqHaf8U0Et1f3oTiEU+Yn6XXwQvxLQXqhaoXmrBQ63IXAlh35LmKbP6ZHkwVJP1u5g8egRJ+xhW00DK8VDiPbP16Ayy8B6x3gEl4Uu7FcJdzD+MDfg7MUpgCxoxiDGSp75KntOMiG4hYX+54Hmvanc0SZwcQcC9diJRhd6+k1GqOFqjWDcTZkqhqK5G/a9m5n4k2oc9Bf2GbFe0sg6jrI1iRFoZHEtqWwEU7wTjkH8FCKP2VpCN2N4hwMAI0D+hKc/g5wbq5+puWe43xPzbwjCNmGaOfisPxYdJ38V5pmzUjMvwhUNKW5j4s6CO1YtHcAolkjnoLuNqtN1Grx5mNtkihJlHn7hnCgybwFHpEFN0FlFBORJUvG00q1B7PJK/Q0L9tUT7WOX+4/lrRJzsGxfG7xw/aKnlyl0SJavJT8iCjuuQgpqthTgUaRWImud6iJV3gm3O56qJPcP6jNWnbrZr5zvip83+Kvirm12hPq6QWgIGcv4ciOFzb3ut6jwJ4k+/po2Ps9mL//4ZTDIFFL9N9voGo9lDtM1DzFIuRaplL7BAbaqqjzxCURQKgQJCAUYge3I6MtfOD1ybdMG9jPnWV8IDddZI31a9rj9/eQOcUSdsfBZuNLmB1BiLNUpNj7sQmW5hxhrqTyegUCGFyUCt9jeZOVUI+ojUQq07pKJwPu+RcwjTZGvV02rU1XMGuC5NvyYAsvs+iNdLa5bAICzRvm0E7g9Bnm7WCW49Db/Pc3S31x7PNjkdf8mLX5p0jj99F4klgkIDHCFcGdt/gj3bpMvrRh7vye+HnQ1NiKUYdajbWoMLc5k2pkzTmpG8n/R2ML7qvejqJ3RqCesb3ohBIVkc9QNdO5ivw1OsD4nzSNPPrfyzyHUWivfNUyUCUIbESUT9NTvyUbrIbok3cZ+vvSbsgQVn5PCRR9TOTgzyjPfYz2eWY8kmu3BbFHTM2umb/4kQxW3vhlygmQPpH67gNKwRaybkVP1FFJAgkVDBOUg661BNDIKjFZ7rlV9MORejNcb59/xAx6F7u6YPEs8k+yA6hKSOOmRer560TN+QwYZfbkm0P677rGgKKTln+5BZFa9WKbl8A9GRwpuOKjVXsS9GIItwSxlVfcl+3biYMCkXKL2r8x7mD+CFo6wuIh/D120Ws13CslpwkTzgPMKmilXHBcIU7grJnB6onWz3iPB1VlhaWMvyzMVIazsJ5SPb+2imEpHLHdJYzitTjMeSrY0E1jTu9AB0EHOPWxHHVWwA5bY6DljrhsdtWYoQvrHtJryxsn7J+ExqJ/+aMpknQ0qq+WqAI2ZckjMtoz2YNw+7FzQguYWrH51J5dRY+st1SYpcS9j6yRFfuldJ6Y+v0SWc9BmJGWrtAs4Bc8xlqwaTArNE41tI24GxlH9WPljpNv6Rr591uRHU53R33MC9qa8QFW8hooFIqLzsYLSA7cULXUwjfWCeibo4fGUvpxGl5uVsjKMO0KazMqHYDNeeWsRZ9wKpFa2GdmJzsObDO4M7JFbakt3LnRthVkQsOOLcc6h3CG2BT2FQYIX3FmDLaanwDBuZhgXxrbjpnMyk/WOJrY61JqjQuy0N8ceTFpG3HPUJG8APhnVmtu1OR6zJc+yp0Su48ih24B54b4TNlz1G+JWoIIKl9avDRFYRBtnsp9dA60sY+H4ZeP6a076Xr7Q+1nDbTRJ1yJta7l1yLcVtLyKRou92AZqmNsDVWrCyOeUfECw4U1TiV8ntEILUckvjyE2OG/Jv0HUY8h5JBrMBfuetPeaX2181FEylaeGHVnT0IrS/rYTwGcseqfriNfRO2uGNtYeapa6OmoU43Z6XV/FIjvXNgIUq+SddJXXnsJsoI66/n9IXDzdW7tFmQHa5PCmc80r6Dmg1kccFmjRLu98+52KonmB033iioD43mh5DCESxqvbQDxv3K5ott9R8LTLvxNvy/7VlLHnU7rpgRCoodM/Z8/k2rBgYJdI8ADXKTGHDqZdwCQL3UCHv+27kx6tU+cMEdjrKH2S0up/AboKVgwpLnX4QKRDa3CSSjG6/j3zG6pmIzaSZeP28qR7BgmMraZf27BmC8WSlA4YkhpJTzzpcORAKwbyD9BZ/oX9m3t9atgivDuiTQtA6gx4ueGf5GTMJ7LbA2Qb2NJKBKmvsMa9Q4UY5ZvaA4cE+X2kK1mresAWlyjoXJgpS9yZEDlPcjPpGNs2tCUF7eKTJTASrAMP7UkNiuBydjHHS6c63F7I4B6seUzw7EHX79jB5WF6WOXJ83pPLgwrYioaIZCzO3YU9poDm95uVzpcBD4a8rqfpoTLIB6YJ4tFKP+ppxf+YjlxUfXHk8pYc/GJ/gfVK7MTb4W20M/LqMvor75u6iCKkWC8Cq3iozUeUrzrkshLjc6V+2laDdH/A+UCq7AknB4eK0Duf+6aFhqa/bgUPkpiKu2mi8jHnSFG+NWmrc+HXpmJ3WiIk34W5F2JVU0G1ZN4X4helauZrae3YdPJ13bu/mcwSpmcernOgpD8h0ZBcgIR6/4AXvwjoZ7cq5D8G9BRpWH1nfWqAU3TG/Jo9wTj3uOzWSUYOSpjSRrbMSFrGbPbwF+UAqkoQKXR9qd7XLNQ/FiKEcTh5uR52AjsulkqqkujNrTU45zBjpKKxofjFuXlrakh9Uvsh629G//K9nLNKdx/VB1abUZOQZl9LUfHt910U4o+9brDCTa1HOtet1ovGsojbJThQyx+2Pi5WAND0XflV9hm8uMfSgY2Tx38Iq2ux1G/kgP3bITZVxPC/iqJkc+hIGk9zXmiXnL0V9+5gELK+JvNio/HpogvRh63xK8wfY+0CWqQ47cDd+sBTtUNKfVTyt8UqvpeCCC10S1IssZuZKs3jzQZKFdqP+Id2hfTQjK3E6kzWBfOdAQw9zHujjVukXvGJvlElLjkujerCpsVGgK+dAv0N3ZN2eNwY27We7pik5+tSIkm5P2W0lhIKdR8b1O1YPNsDJAo1HA5C6JrVkfQ5HCDrbmSe1AAolNNWtXuZub5tXAoEpnnNs5fWe8aseQiJDV+BdTrn81WXB1sym2E9fvEp7C5yAdUuPt/5q4RpdhA9YkK9K3nxHv17SUCJh8ycRdDSvrAONccRHwdf/hdAI0PKHAv3ujGr3CtzfuNSHCtUx0P92ZoGGVtzTy0GqCUkweiiMcQL19C1iXDd51al6o5VukOQaO8HGIyaL7vPWTzG51wqQM3w3tHIlR45r9ZyLZurSmacs7c51AJASnRQ8KkC5T+OTFn/OFZdgXPz/qFG6zMbCE4XjC9sxUelJLw4aeXT9EOYETcqwvF5Rk8Mi3eLopZMXKquVr3AGw6Rft0VGFS4O1nxOA8g47gbQ1xZcpF19AHuMWcuaI3orLmpGNuqWsNKXJHOHLJbsKhcI8hkjtZqo1BoAzpoPRrSiU+1tG+7BCHd4507lfuzaoYpXiClZVyUpVxEZAhf5NhRzN6NIfhDDLGNDN4iBeT3JP9MzurFdozXfPmQarwmy/2dhhXY8Gy74SCIKjk2VsfD7slq69K/F88kuh8zwQ/liY2b7EL6XHfDj21Pe94T0KqErAsvlNrOpkQ7nX4n1ruGuDkK1ahlP9H6ee+lmlTGO1a6IJFkwhvLufePaw4auSKst0ahJ3GITlADq0CCWXxFCulZXWIAswQJD+wNaumwWKoqARVqH8e7836ofufQNg38coMW7/ARPqEqL9ifxoxWYzC88kA5wUYP1AmTHrPfa8SLTFt1KS6vVxaKLfU7ztgLuY1jReczAOyfmBqNBcpzHVjokS8RYo7iogvBJ5yAfangeYDYofIUyuWxc0qgvSbcJQYWIp70OmPLn4LyVcTwZvDGrOXhruNQrbBme0GQn1StVXm0ksmJUkjMX/6IwDN7X3yIZBNJI026GIsXuFETxxaKwjASGiStqEpjoADxQCrjRVInbTZfD2FouNUrGj0WrUi67rThohx34X2p/pMxKfMsT9S68Fm636lRdB51MzSetefHTxRaz92SgkZ77yvxGHjyOoqkgZJpMFiguulsmZA2R3JZ7ovLF7q6cdzTQzZfPGp3HZHL7iLEzgHUZTsQEcFr7NBxYv6MIZ8f3Ds2urG9MoOikobIgpzpd3s6842vMziLYCPa2ZVed9VmQ8ydDte2jTzvEVcrYsr2U691dd97CUqJJhsnmlx1unO21j5+YFM2z1U+ZCJn0LVZXgy7I7vQRUQFd8bHgeX2us8gn/FGUrziNkx+Cq/zYbvlu/ZpxDak1BTN7GuPHXKhSbLUtj3HT4Wy143lFqbT/m8f38MnVQllgZkCueVWc7FylGrktWKFXRyXkW64IeMTj7GQ/RofYIOs0HxOxVonSEaccpullcL025iFLJ3/6bPfq3hAu7r16ZwPgVS1rB2XznVZligWr47S22ibcKTJZ6lAIsTG3jk/NX8nIyQD1JVhdv1PaNayP8Y2I8g18NxYhqCOQZaZROwJwKJb0YtlomtI+kU85WpLmxNIYtlfuCUYbYFlEoApYqbOIYxvh5b2anlc8xtcN7VVHVGKwBnbeXNePKJtQz5bxvcs9OIbPxLUUuYZYpxRK7CC7A1+kDi5yR0i6qkhNzT4/ZM73kGthuRKNDjJO9CMoXCeEFBNzUOrvHJf2ucJGCkQcF/kZ5JeUq6iZtMrWBe/KPuLtnn6JfsBfd2jiFHBowMajVOtAaFkkvrEukVGGOq4sOz3knwGn/O16VNFPExuHBez5X9j8QGvMAMJrLBf7mSCvQmU2RHE+TrfCfuwzR5QcxGeFWHhPbNy//Tn4HYKONEDtT77GvxvE63EGEoHRTGuWieQwIppeVfBCUxRxeNblHas5KRbjZFtGF75UhCdw3/ajOBERKjRDkdyexH+52IZ9baoXnBjaaohrcBpidJ0GoaroaVvt7qeCrSFeUIgyLBXnIyJtZcoHiu47DDZdWSu/91+T9FptfeRGcyZ3C2ztNVWhkF4ETn9sPdyMoJu9KeaHv+/BCTKPDzAk3sQjBpRnoQRTc+UrFaGaKO+yOJMBtsa2oi8Kp67qAwaK2u8ytIYt9yordFAHVFX++ZyfN7YloikgN22URWU+n2pfD6dkZVqedZTSLpPRBSNQiw5RE//HtFFKnrRQoSQXuUTE9H72wPmiOzt3xnOekXF3Yf2M/uxAaSe779SaKcX+XeOmOKqG0m/LUPBz7gLkmicrCQvPcvv73nYN+SyKjRlKgfXZDkFrNspInojO/SsS5j1hbfv/MDpJsNNVa7WsZ9l1fhN0nE+IIrMG/LE+qGijqLmWfIhlmAMVptn8R/S0gt7K/78zbtmvMR0ZR8fEnlVVIBIibal3z1VnwRyUJ+IRSMama2pqOigj1nv8g2LbS4ppeJqnySdBop87PzYZWnsx+SaTTrSiBbS19eWzMfWhVOwtOrJySzu6XET/7NQuN60WjoYHqlK8qxSMXLKcsVBVuqgFMbU5GvbHjChc+PChSmPSn66LZwJo6CMplWGkN0dHiN1jByJ3bKtcj6nol+WgwWClKuQ/Avd1Nr/M/FueEX809naU2yExAxLUzHG5ZN36tXxpK1Sull9HxBJQmFpL+fMnC5fJzbGZb4BF/hzlzhlFHqHOfJi7WYhTXECwCa/lF2s6/QTYimogShep4BAc9q4Icr2R5lsj2+RcxYT9mHHSoFyaSzDjt6eu8l4o61ux/wU+//Q5wUvhDZ3/r1Dzt+aI0SOhuJbR7QvzamUXEZluKitYZYDkV3YtLtQ8LRqGyoCxo+aL5j5Zo2uDqfQhnQSgsqFnHGduj94XkHElLy7VDwwkZBc7CFfc4zaHn5ID+hkN+seCx5+p9bbKS5s5r8eNgr7QK2sYU+2MPjdyNeTVw1Fmvt9DnYADRZuZGUzH8RBsj5H+H5zzcIkT8WtXva4UXlZHVU1dR4sZwLCDUjE+oxPX5A9YGt9WceKdGJfl2v30Y9neD0a+AaElSULTpdbFG3ThTcWJV+8MF+JXq+ZSdbCSccUirJb9z7jdpGz4rvt0EZCDcaz8JfKDIBQRibg2o+1USOtxzEOUpQsAPaXW4Tsp0Cx15OSRe/DD3yFHnfWkWE5amQfy1B8leuKapelv/kZsp9HNnvSvA6S90h6GF1f9JkE1IytiDDnwXNbdyY898c0MVRW9uEKkxNfrgGzV4LMPU5GUjCm1ijLSwV4BUXvaSg0PqNw8cfvzuIJ0vkfW4ZUCAo5qMBLA4FQEsO6NC1ImPGyQh4IIZZ+GLYSMzNdgOVXEDCF6V+HqToDGKb6dDjwPpE4MbYVPkBqYGeVcsfgrhfpLjDUAHCHLImWvLnun75qJ9OBWcalUQVw0Ujl1DtVvL84tjVvuU7ZEJz1+7a9M100qyGRxUdWVGpJMAGXmbPslPUPRPjAPdMz8W8umtWiKEoXUVVCkylSMy4jlzCN1n0wCKWvzPAen3QvznhteO0q0DWG2CF1fUzho76P5BUn6BVzwQO5weckBRAfgRcShkLdOF+xUmNSVGovlRPjBhWSloyLc2fSUKCmr06RVo2paJbvXPF4OHrBqNlHfkV2iHrW/7LKIknSab1gEaZXfBGVcndrF5ZxgTtQ547gtwPG0WcZibcvpTYIPfr34KnlSA/oRhYTO4VK3JzN9EUX5mFThxbze1T4gmSrMJ8mfoj7y9L6jvXv1e3c/CQYb0eE8lb0eZ6jfqZOc60Lrdt0M2mA7Z7M8yuCnCWjFJo3ovkCKWym28U0TYyme8Fi2pKATqJNI3UDMiZ4getDPiGxBMWgK1fyuZtmUwfiNSpvPfluQ2YX2zNmT/SEDbFmo/q+8aWT1Hxi8mf542AXQOP4bSG4YVjSgyqFmH8IPL2/RqH13hOWMw71Nc3HpEqIl53WbxVm6cBa8M1zts0kUyLa1n8EYKYrzzinqOBe+wHYHI00bYbDFskQe+Z6hp6nqb7aJRM0QMPs4WL1lKBINR2G3F3B9YkIvKCZxJ+SHgoqYABtjF5ufuYYNBg++Tv6TfwvvF8MtqSwmraHv3ltvFaPTfX++ccIoixvjCJFZSVz0fE4PVDhrpNVLDVpp3aYzk+IdLuPMqBnJlJh/my/m40R6TlVN1KC5MM63DXqSl8o1kTreqVT3F3zjxif71c+LkxrjD3MLu4HTWhtfYpk0giFdtdwQfKwFiRCCnSrSUSe7un0qLNq1Dque+C0etnmxLOIfGGU87ZL23AP7qbpwgjhto2UWLVYbT3OQgQyP38FjiHbetnyFaUfs8kwyyJunolJGl8DUqdhaeeJgWwxgPb5LmT8+uspryxnGvQwmEtlTlrcLMq8naima2JUGB90CIVeyVaR+fyWR/+l6AlcwkMT8s9JEf/v76t0YSSy1FdedHdeHZ59JSCNS2s2r4/8mmk7sMwejJvvZ7QNY6aLEJfOJlzVENADdvqqhu3hgij8ey3Ph/qD9Dxr/jpW7PZQ8NzTWMcV3ovF4Cm13zsNKzXVDUo6IwP1FmzxAYV2lkVkrkZsjOYDS+0nLliWFjohYmSDqHPtkegya0t2h0q9//YGzNfUI1vwXz7phfxdA5CNaBZH7LG/A16jhMAyka9YK6ecx21zIGgYluXyyUGUJLi6p8WvilgtyAKNo65BeJHatBQJdA5hafbafT8dMsxZvuRyy7IrfOx4ksL15kP17Yniz/KpdBQYdoFPubw8+dob6oHqUT4gSXW6RLnhW37Guy1KKPOdCPb/5LPH0uKix6EsqYdoLujNh0+wvAV4HfjnJzpvw2pii1ieckiJE1yzasvHzBO6J61mUdsfwC98HlU8BrGs8B4cmFcKOXgVy6tkcjemeToEh5Bf0PH7wodtGIaIuBl07Nc8dCuDXH74O8u0pZo6B1oXG51Sc3Fh0x9/krNOl5qZkgl223sZjSfaOMdgrICvTrNeSZxZrgRiBzf2E/Nf668izaVxS/ZEddajBYWjpAwJnh2N8wNPKovOWfTEZ8wLRYfCBF1kn/xqrX0/nwYscRCUOcM3KyWJ3xmqkgLZpMXJyhNbhi1spIIIWA+gAwzPibpL86XKfyB/0ty2g3SfY8Cm80u2n+idoLBuCB6v/GlNJHL802iui8nCMidFUReQahv6a/YikTzQ8JU92OMOpW0AD6Ea+GolftcWW9klwS31NbJPt1TJPPe4B6xprTLVsWou5PAkjv295OYzy8k/QUFs8cXLHjF3AH5lay8SCjqQNlb2U7qMzVXVQDRpmJc2PnEZXSXd6GO4QdbKxhwUchD226rnkdDGWqEs/dAleh5JF52oS7z2q4s2Ppxe1AJIkF16mStfoQ/LwQI5fs7pmIh+mZ7w4WYaHxeBkU1jyG09NlWpaes3YUDrxJoeot9QgCYkrQ7WaQYvzVxfJ169FTu3lDy8Fv64xzmBwroEY3+2c/y+tYcZ5JX1c80Qz5kBUjdyxChS12tHNyM4jn/P266n1n750hYnHr1/Oe/1zyRBF7IHISjVvdFaRx+CwXq1wgYZ1K1lt+ANTszmiIr14k9cJuYWNjF2fSpaPlAvUHsb4UFS2vseZCyGUXgXxw5be1TYmu6j1Yt3osVmO7vpeG5ttKFDEQZFfmis/vdypwdY3044UyprtQjRT5VOursN+7DN/kyyq5LcNyu6ZS1kB+oaPf12JkK8sTWXatk4DOFldmiJhEE1jEDqBA4d/EdGfpnZKPTx0+tLo6PVdLjb0kA/53L8jH0Z04t9mg3A4i7aWizEGBG6GV5udtRoNWeep4+Nl5qKbWa0k+FHZ9P5ahnx0Qkytp9mZySjW9k8X8IZtRkj2P9rbTSJWykQVfsUm7sPPfXT3GFWE4vV/r4Tqnk422IA815+4n8vjEgpZsDqSE2vCKx5uwcJeQD9Qf/I6FiYsiQScftVmCRrk71sW5aEDXJF/CS/BKPItLWvUZu5wwfR3hzGiOxU9hBiGP15NiCKvxTMlToQkzEy0HT2gxCsOHTwW+tyYai57Sb3sY0hn82Ch3jsNLV8muEJ9GClqBmMT3KG/4YtUFJYRYQF8Y/eiSrJXm2yaFzQXFM4fWvsm47fOMIeu95zSY7bJDkAoiRUZyIgs9j206UZPlaOKcRjBHfRJ5bBVivzRGrUVGi3/C+JRjZ20xZalKFJobpcbJXXbFfHZQHUnByR0WvW/p7ptqvY97EFY6C1soEVShXx8RKJpCYzqH37V6xFDKU1prQuNjwpPeVgtMyFQu4HCa7Iskp48FaFjY7PnUl5PvH3ec6zMnoGNR5UQbV2fo7vdey9a9rLAIShmv43szbHUhyWu2YwplJXM3A2nLKFGr+Lk35K0bTg0k0+txa+tMh16ciKYzIFVRHN8UFPcJQXLzE38euSdDl6LX0pqITxm3m78nUJfMWRUo0zNkMygV2qeO+eKglSyhBTz8p4wSq9Ql2D+NTqMTg9c0s8I3vPB0wmAXa62v4TwcsLJ9ucZxbLI8zWVTI746UylEbGZuW02Oen1vfKPK/S2VjC4N8ZcFLDCLkMUTjxcHEiN6Cf98FNWr6olUkB+JdjTrk6DiZqESiAEw2X8bzmMfL590HkvSyNpFRmLHfm7K00fBeHvr5r70zSWF5tuWxjrdZoeTujJn/X9o82fdI1HHeKRnvNpXQAe6dP6STPxHyDVc67a423nY9Fr3ibDyUt3ngD5QKHOF9HMOIWfBeeU2lxNR3Ybi7Z3772Ihgs9l6PkyIubXFjlrUjZDiO+onGcU7YRJOZZNHICRfXNhn1PGPvQcIoobHp3O9Vwm62aIX/nOlMLrBXqRBmUK9ZSXp+ad8qt1GGP1OtxD/CVSbdlNfcxuY5wGx1WeG//KfqmJAEgLMVgyzgzPd7hCeo96yXrRIbuR/cnhjTSUbwNrQDcnY2lS3MTOgdgcMK4+V1rGculv0D7nJ353fgmaqu8zsYpLkhaSlEiGyTO1W6le1V8RIS+SM8PLQK1hzcGzdDZ+9gMXMoRNUSQvLpxyRpQvcrE+T5QWOpTO9HfINU74pAyLFFLjzOPY1eQWPSzsgStaZojXQqCeTgRRwcoqzoDLRy1gBWpy9qDxo6QtdZVWsOmFdr0l1To9MAPIA7NcpPlFJwjVgsSYg0+fooayg6ZXnRUBV9IXXPsbc37PP7+u8vjrg/58sw6zHDJQ7KDLMgMc7h57oTfdc6L7ZxYajRK4GR9Vgwqqw14OPQqQYxIv8JMvszrHKqJ5ES72KUI/cJf8/XpiyWM/LwBmBVBKJmzziHkx76whoJru11pI8fIBPzmIbK3/UhCNxvwjSKpb1VgqWYm2ZwKhSrj4Q/7cJldIv/BPmxF0TR+tkm1i5BAEzzeHsBUnCGhxukuvqFRvIFKGVcS+0TgRK7ECWYpoA10Pq0StYGpGr/h6yz3zfguzjuWK4Jh+i86PAIkxzM/mPSmAUUr5I9yk3GE0xHJh2CfKq4yzRDnxWVT9oQtqpoGIV2DrgWc/v7yNZqI7taIz9qSSSMAtf2q55sIAwnDJjtvCPRDr5dMbCIHbrSLmvLHgsN0rL6oIaRVWGwQcGEBEefE8qBRyFb0g8aD3+HaLSDdTVdzQbsHUPuzfYa/pI1u/Dmj7r8SIJPtdpBB+rp5WxibE1ermb97mE8/TDSJamsZHYR1f5kRc92gGE4F79pK3O2M1T5reGdTt++kWVWjhsPNb4u66QNoeMO2xiGZFFjOI7dJS7meFaighfRSdqsZDCEvIRLRllS9SNVhDSQ2MclHzsoL0jB9fuoqhHJ1QYuW8JwW/hosFv5dhQXOr6Z4Ko6RcGOR+vAQqcDAsykF/d5IhLCkHPMIlHJf/3KC+CKAD+nhjPcf/OA1velv8eKBglMkc0orlg/0RiMVO3QHqRv62RaADJmENUcOryRIu39x4oqowfXnu/oGzppXn7L0GLb5Xfc5p0QUfII6qmFBV0AysSNdUxFgBcrqlQmbn0xbrXihdAjO2nDIp7VqttNhJQW6ASLR3X+u4Bp63rCCfKJBA0ra1NJm/kFcVOI1Wl3+fOmZXIi9PLVVTTb7RgEW2dCSV+Syuej4ituLMp7SWImCGWwhM4OKlo9U7zGHm5LGjkj9SCZKO3KP2o3yaw5ca5UcSEKa2iCjeYs9moDo6p4MD4s5GfkGdC6zsA+uBb93kOnMWgSp5qFvB+PQ30F0VNuIycaPiv7inJqj4JLY9XlBexYzt1dDnh+28DQ/M+v/3WReQ3YEtNqJtlM1ppAvjQenoUjgWUgnrgT+MrWQ9FnMdgkliYhs439aKbS+QfawWWLB0AVuqo7oFUGB06cBcIfmyCPyUfdM1MZidIGJ/5rpsmFl/YhUCXEsFV++VuWIAgcdQjCCuULSlLbcw0ZfloeMyQiQhcPrwEu+VKk1vxG0/CGXXKKY2SPFoWr5MrDnvPl97kWnthzS+v/ZP3FC9KPJh+Fgt1zxaEkSTAukvkJsSVj+kkowA8OOHUTCJugUqMArJNdLONKqaBgDMuJjPlnVk96H4xLoSLlgtH5o/MqMorz4WkHUGndwKfpWUUxfpE9W7FDOoZwDhORIvc1rTNTA8RuxAIUIg7dgZ8EtSMkhBYl6MEriJLScIEGdsI9W2Y1cA0P3qu8UuVglNC68t+3d/NpdEe1CgkrbeEtk7BAq78o4LL0tpA6o/ckh+Mc0+d4SMTtEWId9gwGPseq30UaIPiHba/B4Q2QIy3iW7sXGY+ab2+e+Ei0A7oq5u8l4DaR6bv8VSI5eV5FhoBzKjn/gGhntWLQHhJ0KlmdvVUktmFtreKAvjnLd4/ywlyqdeExIy+sUHBj/bHbZdPvtyScBdWOCm/I5ohF0ntMh2jjxbuymdD7RGb7Fi/5UIa7l25U3oW4taODzRBFmYLsY0SmaNWTzakGbUVaDrkADypiG256k/6thQtByZl646szzlfd8P/2izRl6oku1iyIu+eVaRba/3OjJbhBX+q4F8hHqc+cOOsh4rbaaUuOlYvrPrybtEFVb61oPuTrkyPWqDXSS8WBSERYmjWd+cOSSnuvhRYkkEd3acGfwOd4NHttP3itacqygVUqyW6XGxAZXmTVB3vhJwmuxCMUEbovWQutWiCmd9Mj8FWP4P5il6ZAotU+C4J5yIkh8kF7rmCDQVgXjBwOBxCslNFnAXoiVy88TGdf9h3Nhzytj4RIP+TM8Wd60Fj4ZXPp3X7YIqy7lUxU+elj5G/5+ATtEHT5VEARf2AivzIGM200WeNll7phqOIt1hZmuEcupXW5Xa25vupadXYAoTFgCP1WEb+ywvk1l9HFhMgbcQBK1ePEGRh58hZodUGhOjGsLPrwulRXhZblwLEIx3NAPS7H3SbLxGmntVjuQJOzboX+E5Y3o9j1GGQJSfuXbQRBHFkRcjdro1WPMoNRKzvpc7oiJwk4gylimHYLak+ol+29Id+d5fpLnh89l2paA5BArKc5Yiorh4EVy812T+POku30tXsPFkHQlYSWvHpf8Fi3WidxNPOYQtVVwdxFJAPWYhZWDKZS0FoebtQFpLlo9ZIfXoEHfc+r1qmvaH6+cmZ9169LpG3wRyVRSOSZzv2BuhWGxej//oET6iMaOm9cZYHO9llcsI05EYH1sE88JMr/lLmvHjyd1pDsbFNMdRSDGv+hVMHnLvB5LisuSA+ep6oq/ig8UM5+ZH1KDJuvyUUI6JUCMbPET3f21jgNHBKSA6n2MCVBFLnx1HNo9tJ+U2MlQJFxLPXVzYTh411OR7ArvF/qEprdRwNcN87xjSTO0DUtqSenfuPeEn1Bu03XnJol9cTlQvhi24dnMYwJqd3SWHTf+5Z/jCSlNrVOw+VwrWb/iTTTZ7jv/LNhvNKv4IbrPe4egOKmYnuA82092HTjNJ6kFgaxiTaJ4Bvg3e/Eo5hitplwW4q/deF184tAD/5jckN84jkV1+pOZq4MhQdzE8NaFqJR2C3r509RLY5MMXwvZe6eudK3wOwLTuHWd17gpGKSoDjPEd7pyxDuwfuKVaqKm6O79XxD9r8EW481AT43ZrZwM0Ayn1LCsmBKGKWLv3e+osQnVfS3sJ5LbA5j2km9jTMWxTts7RwBkpLZxHgmxZmkhuGuJS0VXnYV8FkyuYPkg9aVOn6dfxyqGW4jS8hEag0bE07OG+vnPtOi4jeIoEvA587eLW3j5X6mIRs1oLD2sgmCwldkZgEfs/B2nKSBS486Apt6BUivSVdvwXe3bup82+c/AdpvGqrXHRql+YZ9mUw4u66sqUWoiGWXfnEKcf4nqltrEO5rUSHW+5oTDjqVJybdxoNMnSynLb5yLy72Xqc+1YEoLvIJ7YRIDDy6srrD9kzZQKmJpg+rMjmKyHMrUGmXN2E0QJ+i+8xNNF0qi+6ZcVkVJ6LGjdjmSw8PB0cuxsb6Jis+LTsGIHEvw4XkJpq7+tbrANGxdJn9gY9GGrYvF/dbPDgpEQdqymptkXzR89XP3ixUFTI4q8lpuFXnbVV02icBb5TRL8yQZ1KqysvMdlQLI1q6yLiMOMdcAB5G1/zcxyu0w9Doj3yXQQ7D700gyasLcLkc23kYUFrXB6UgupeTAdK9aBmRZMSaA3tCFmuCCsKytVXHNNj2eWuc1KY8YUc1Cxgg51zXNXpWuJu9g9/Dkug9NSMrLBfto/RvFyF3wNDyb4WFeatB7LfxXSpH2HQmec9IFNSiofo8HoPxXblvrE3JBTlQlKFH+JOxuWI2qIm2tu3vbfl0uOxpSbjgeXXz9TYqUgxiP6OjxUgpdSWngfbTSQtk9UB0ITxqYRrq7+9oYhcjD5e33J/lo9NWW19oSp1Kv4fi8c0WmoAE2REUEVkLydQCVf8d90URadcHfBCIGmpdFJ1VxE8Ln87jXhHJ5f1d9iYQ0EUwTewP4xv439ShR1cvTEBnA1uiF9keGY4RsYngxU87MYdgZDvlWsRg4slRn4ODnzKJiPGzCEFXyiNTjsRJ7uPkWpcyajxv+DiBC0cI41SLwPK1jfDC7umMZxKBOZEGeMZLQoexOzxluE0efWh71/RDU1vdAEVVIOLJxYxdBAW/I3SB6ISIiqk4PSdki6UCCmcHgUhXHjl25WnCXFPCGvwWh3zUWZTwFBf+RivShoW+EutPB7nyVSHPXdBfEhmFXNe2BMtpUWqxWxZFhP0zkJEordhjWXHw4B2eIBZo8bKSiQyopgnmwK6bHcoJsPKzsqHkFnt8wbxmM24rICmuycrjLb9Rlkpdy0rg50Yt6mxDsvOKVyjMkXiGyL3FRkC08MSJ5QIqpdzkwtQimJADOJ389Dn9nSXM7V00fKWu2nNB1YWHYUUSmwCWOsLr4QY+CNbRUcD8m5UP9eJSRRpo9qdEZhVTZNbg5xJZ8xv04eH8e3ZHY+d710wJBg8G/G/bRWl1mev9X3FgEw9kDtw9q82i5EQp20gnW1Pn/krvEeiTo4G68tBkNCI6R0mfI5DL1+bQ7+oyXdcbhQvMp4+nSuUp76z21TYK+ysn6B/AlrboKuZ9dv4OSLKUr0K5GV7REZlhQFUTgG9IMPD7Ve+Ig8rvOjGTK0yuDvVW7UG0B1tnQ6QxSVqdMPUD5KOrRF8o20ivgyNr5UAm+MY048Z5ep2tmWOy0fq2dQd+f5rdtOaAvJ6D9PrzSk5DhtXXazGz47mILZDjyQI/BpqZN/mS1TlyoswPXBtXUXgtBTaNHbL336NXE2dNd45G5s43XB+3WXWZ9YZZcZEEBvKzUSn5gb5EBherGHQxNimfPAUvTn7LC8093xC66fPPkDdgSy5GF7x48zOhikyOflWyp4TdRKhKEOqFJ/s5J9+SJF4r64OZluEViIW2h1vYs4HtUx5H3g1b/Oeo6v5xeRkKUxwuwoqrhlA95npI8qM6cnt1lhZnDop/6hkOc9MNU5Kbiq20woW4iaAqDgnqNiTLJcoyDu1G0bV+vWM43uEOM41vALe0rP166UGFubWH3GyQF0zzUftof7a3D9j0Fx8aHONALF8qf7+crNf6iA5XbmIlOU41HoyUAD5AU3rURTbkYNWSgGFc1QC9pX9fJwW38IHk1DTRGcSFoB648swEORnw3vHe430IaI7oR6DZmiDPWJIKR0xWvg33Ov6C67sBFPaR68Bv9EQTMZa8wxtiwfHWwvmCWwpi3NAePx1YiOQvBgOr6G4/KcJr49C6NGszCrepJISRtiVWuAMKJC1RSzT1HNlIjAvlWAHsVbSyxg39FgobYRXrmkxas9gqrQQfF9BZ0dG8rh9ELLW7lpr+0a4tlpZKCS5BZxDCjWG4c70/slbmGwFmqKik823WbRpRWrn+Ht7Hdq98eWiFD1V/sAJkMer8VKs7kJEVDq7gUm23soPqzukXrGNan1gsfOD2ZQJxAtg1freoii++c1qPGt63XB2IO9bdWZHgeee1T/aA+aPDcLbXZHuEL8fq8mXz8ZDo6RU3htccOBZSNOjfx18sZtBSmX0zLlGmHjhqypsOMvVuaDL9DTyYZyqJ6Epr0g1RHBLcDjZp69n3oD/X3fAbr4loCMBeAiJbNrEDrSIcwu8abFeFSntvw/vHcJ39zqSZWNNQSupcgWC9qm6eF+Ii/duSKx3uCCm1d8mcfxZTiZ/tfWRQvT2ksODjiPKcISu/hktIZ8eu97bbZwbaTiMNLeeAoOkUqyA/uVJ+dOurMrpKorVWBMRSGRFB3sL1EA6IhE+tx0QEfb9adIv4pyh3fDUT39/Kus1EvkWAYhciuIh5eFFtyDO4GElxHktbINvNLdQNrXzMCHzeRyr/O5OhJZYXIwMXr8yoPi87FqMev9Zfx2zo2PEKAp3+14du8Vc5SRGoXY+tUqmf/e0E5eBJn29+qJFPKBfUFLMWkLXqc7s/DWiSAn+xe+rSpUhJddgTCGx9NJbyWIAoA78mPVxbZzxA9x0oqp2v2cQ/7MDG4x/nBe3AGpXNs0FheUftLV/5XFaRjy7HZ/lst7UzW3h8jblPr953DnZkwTLmndete/Y7jKoyMCUz32c9RXUAlsOWSMSzxF/lJlop7FP8ZM/w8HBtCZ3N+x6koDXTngM0amHQYKF+uO3lnoYZ8WnF4P9ZNDlsu9gjVnFxmKM/K/PhZRAfL/7dn/+vcqki/Jcbs83+sYQThV1CLliU0MM3FWc/4FHi1VPbf1Y/qOONmS0GcGBnT3URRxm1t3WZSD+UpxUC7OL9Llw9fNCoa6MA4yhd2RpNQuDaAZbx/1NG3H9NA+7XpSUO39QF/Rse2bNkCo1Tt4YWLp8/fhurETJgbnJcCdyMkRu4BessJwxPNo0Zorig5LVV6XGqi8RhjmOvrwezNeE6EdeQHVcY7nBVmr8XBNx7ugzDnVMrd2LW+ykef5sYbMgNSpvY4F419JI4lgKPDQ2Ousq0E6fXSMDpTdKyutLtFfMtHC99Ib40wqoYRc6sz6MxUyrgs/ULDO8qndzxLb6iVpgHlHhmi8MCpLAJKIljS9sq7a28GbraNaFBt8tfVAJkwIkdBT+ZTkMVkyNVT5BnjmIJA3AMBNXP7HTVhil1PmQ0SGFR0TAp5mSLz/Q9rhOgZCVpnDTaF97zCZS1yvZ9HfKFyhxcJMqqO7Wt6a3zM3PBUJVV3cvQ+z4IvxcRjsESTqxOWXiWNRqqNue71RCVs/0D3/+f9Ip+BzsJPCmy1me4wB8Q0RvvwDLsVjz/fX12bbpuI02et/zujMCKGvFCST/ytMgjMvuIQHV532kXXlIW/ufeqISXyMiJRjH3mDPz5mD5HeKkTq3bGtjdC78iBZFwMKuW3Vfh/qzfx55IhxVxe7NB9RYehJ0SK6UZVtugX177g7tiwBESo8vqEMthCGRvAswGypqfkjZWPQsbtDFCz9OHMcxm5MFM2/H3GbRMaV7spxuu3HggvrksT7imrbiiCHGh/mDSQTEKZHoSuAVWtdLuK55X8cuhKTO5JaTXsdPqy0RxdBxY/rwNFdeSovry+cJWcZU4JEE2+jdb0cQgwOlRUTnCUG7nzqMmAgTvdg75gDLvwx68M66+1NRiyehlW4FBcZ21M4gPv8vqv8rAmqH6dOrTCKQvMqRt7V4wdMuXjHd0srM09cyJCe4k1WFd1KH1D/Ag9L77NX58p4LVOHdONxdwSiJXrfkTjlO3djnWAc/7DNRefFwnOVPoASiqs3ObJOnpWkTdIpeBJ3hw7unwqp+N26Loe6Ri9i3DlQXvLEyGKaugSbo997hBloa9ApDetKQJ3rG7GPreiqrZkf2XbJPfhxzoyxT9Q4XUKC21LvtFEYl+uHwONOM4X8qVCq7KhhjWM/qrOdd/xfVgWVZAr0dF9FbTU3hp6Ach+ZZK0pvbAcift/InD2j+idUQp5MumM0WVXOnbTXtPd2e4ScNCkAcQ90v9CnMvg2+wr1HRMF+yZ1Ex2QetH4dr0od/vdcKoOKF54ltOVxZR1QizIHLQJY25UAQ0eZqONdTiNLBczUXEyc0Vs81aLgt5WTDzkv5/PTxYVpWBmMvpIu2MtWjHg7r7LMdgKnVDin1TTL9/zaJDTVBwaJjAoaz3a2C4d+J4MWiSVpCkJ0+D1taUgHivbzXZb+Nbe7r9Ole05GLBbGNIlwfO1SBsXnQHNwkrhCw6ukmrNCfa0YK2/NOPsjvBnGwZHcLaB5CbZ0kyPYg/BBQtx/prLWgZwBmnLgQQ85tcw7j9StYPLC2KOEyX+OU3SnK9HUdZt5KBpGgv8OJfoK8GcDYJXfYghBD7N+rdANWS7Ig84ql+TELYc+vxHrO+AVAWGgI6l92OF77MI9ntglTg9nS3fXFroRZuz/+zVOp27IAQjkX2/Gloqhl7UsFQygpwbMqPJEs5Itm/FDYh463jZpUNnJ0bhF40IGeibaQCFpurD2rNsGo9DyqJ8K44yfObAT/a/ukHXw5ZUsnHTWNhSgCtwY98lm+20X/z+cNvYNcsH21vKKXy6WJyA3G/uHC91d/WSwJV+P2+d9DtM4BJzjtIzzfhOmiQ6/s39uF9QyT2nsfn9sfIosKD65QfFm/N8E9jtcZOu8gtfjedwE01QPyBcHPPmxow7EL8BLwwxQpBOWvICB3twskoglNDZnmN88UuBsujSVdooleJoUXIabAaTZUqZIadqMRta6TdSOY32lJOzlsWRmOOBnbDn0z7UXiju8aalox7ZbxLqqawtXykTia+zM8nbpI6LKiAfIafIix05wV0TzdoDoWnrnlwGuZYiQOhjW4mUjWrwmw8oePmZnmTkBYwLaXnzk6U33yZ9LF6mM/Hhcaaecd8MmuLfx1vf83pVSsXoGfOMOGLe6MBFxOtYXiUJMNc2oMFzZyXphgQ24YIoIPAMhyBzf22l1yXXz9pVAQsV5/ap5yj9Wf+jRnxVAuj+GXMdCIGcWh41hlyKdtKPV5PwSzM5knPELfmXvuFXjanafCSaWT23NhYf3C2TheC4g6nhjTBSYBwi1KtagG/Xeh/Ml9b0QTJWK1yGga/3pGc5puLFSayEoC5yDhXtqkkgXmPQSmHgu+KM4SdSainH/LVYfFvG5IMp5FySV4ME+JFXv56Mf7HyNEyIj0TMYI0mXUTS7YtduD9XExb49Tgb8ZpW+yNqtuS7mWp+sUcxkjto/o2oDYj6wFjTkoelDOGV4VwHU1ikDY+x5sWQ37pNAtH9TMrqIJq/yVLPXs6yNWs/RINPHr+sVlvRANjSiMKq42+6reJnx/eyFwpaBR1Z+xWDruybH92K24RAN+vbPd5Msha4uFYaqksC0XY0tURf19jhhOMjYiHXu9XkP9swKjojo3/6tf4pR93rYh+8pGmeFywRsql5pAetF8xRIJsDaQU+VkouryWIv8eaCIDbc/NNhl0i2Vb1YIdPuPRf73TCmPlL7SE0P+hdazzrHnaRvTJCJjeEOcYwYZorYe9gedDzfpll0DLcLoLj6kxWkhNJUnybCggV/ectGgitOEVa5E86xbhED7j/Kd0KYyN+PMesUGtWK5RfAAgCgQ6qIS/gTucyyAvtIMtyoj/7C24/C8LvXBkC8ykcKwPlDDVEImqZXmxC/mGlsCINSIAdjTvrsMM33xDAJCiOyXfsoUQNXbQEaCNBdm+LKghX9+ESShqruV5XdWGF/ZO3XYY0p3NhQ92CnnsF5oJenUlvWpCS/CRDn5DoHu9YqGOwIdgk30VzDr6F3hg8Z9FCEMV5qAd9IZJl6gubJb96rRaDw9V6pXpdt3N0pqCwe8MWMV6DlCv+wC/DjB91dqf618Sm52bfiwv1gd+5qkBXvhl7XD9k8wFK5x31uBBzt7Z9FU691NjlAK4uSW5HK7zfj2reDGFpRCnzFbtIf1K567PC9p5TeY7guXvbxvnn20tjH5qx4bmox//0Enn6ARGGo3x2CDTvYrcXIZ0AzuaANsFFoGWmP80mE5GGmmMQbsFqSMqwoVtTwQ4ctxf4MQpO+hmva8eZgux2NlfatUiqXEHVbKJ5yqLc2uQbXxgWZHgqc3k05SlsPIjuDRO7ZJSmOlyOO5osngsq0FNkDnCIlUrjAO43ddBgghVXuhYH48iIZKLXRn8blU3SQA4A55vRvDapYFzv5g5wY0j4dXqtDhXyREd163ig9glYogCUKgdhGAUD8kHhiQOUsTz/CY2QYMYhd+KwXzu8turapNZCgqChjyHxPFsbCLK1EJkobW90XVKTRHAoUjMMbcRI00Kx8f1QDEBmD5+5Fc6sZknxbGT6YkGSpaBnd9AWnP8iwriZaU8fyRREk1CU9NH0hX5c7nK9npE+2BOXXh4g40A82lWKmnDnDzamzk1sJ9elAoYe3s273ATS7Hdd+090NxxT/Gwf/eEpJbmw3A+vf/tNwiR3YnHu6JNJCm9D/4mQ2hCeQunZBDvuYB7Pvbey45azPS6N/l+xQK16yOWhWYIj3Cdhcm0vbL5i1+4si4xh4hWU7DpbttxBVOUiP5U5dCQwhwyUUu8GsjjSlM+IKjawiK8mn91sKKkLeTwxG0RebFCmtOcMBR4yoB+Ypg8s+2Qr7XCdFCYJHdTVnHpBBAdwZpbILth0qTRPMznONjL0XwQ5fO60R13LSbYlhZO1qCzKl6ij9HFfKTz7NtUZIaXCaHI5d/hpdqWFpp5fAMLxWtZnPR0n6BzkxZgMz5oIm4diXygVK7DfBUA/ScaRKP24gDKVwx7XPiXHmMAa46BE1MzvRGXN27B26jYFNJfS6fw1HWY0cguer2bt5JS8N95rtXCxwed/kDXN/gwA3oBpxQglWfWQD77SBH8qV9oU9neH6mpso1sG8OlsCcSmGQm9NPAnedBaka7dNb9TUqt1X12KhMqDlYgacxc8k4eij9yc/WS2A+ugwGcryT63wKFlukWxZCrHMCwCAISd0WMEiNDdHO7eKNVFGWJEO/QMics9J/uQc+twT5k4IzAKGYxd0ZkCuiXVH5O3F4U4Gh6H4LpEYKXgIzCdSiyjWiEVU5IBv4uIGu8sfgGPl42Ze+UMzbC3m4ufsVDPFM1k5CuIF7OFP61zFQ8yhnMA6iOntav0BV4TDN97a4MqVNOiV7+ZI30SIu4CCRF+jv5Ryfr3t9rd1+h4DYPwmGqrO9RIR8pt8kSoTaQbPW/gjRNAifU6pOBGQUMB/SK8NbE8CzDy1f6jF/0rLT3CKdCe7UvEccy+8Gn4EhCACZfQEJNzQCEx+Hu8lBwha4Nh5+V2ZAq8cdR57bZJE2a3TefELdJgtw1Sg5rXgPhsqrt910TfePExcoEbYrrdPeK9U8z2l23JUaou8btJW6EEtY0hpXSaLoncwSXUc6jc2hsuL9nQMzWjx5KeLDuHA2k/jBenbepN/Wov3TzP6q8bv+VgFeQ08t5XMFznrXUCxRx6boBPXxlHAK6vb+QMq+u/xW2tJZ1S12cFtSPn4IEY/85ck6pgjeCq6R/Pcffm2Cgo0weRKLVDdvmnqqdS1Y8YwRljVm0+SF8qSO3UAJ4eKOQm2cAY4WU2oSrvURhh6NaCOXtPbMXSbAUw11zrM4TZBifCP7/CaiXRM1tOqp11cOa5izvvIbIkFwFfg9i3GxSbXUkjwBMTpDL60Y3qBjWWqv7L834SvIM/dCCnZyclSfKg9q3nhCXGevuNKi7qRJr9gAszZk6Vkx3sHrXmmzE6pepTcvo/7HC/2UJYALN4DynR+LjZbMA+t412dh1trYEZik8W3evkZ9oLvdhWHYxPtacFhz8SzvUtl5WmhmCYkHN1m+gQsvePqv0aEWeUr6m6EFuJ99UyoLgLQmxJ9HGjjBTV62Bwo/AGPphRFz7mQumOwIlyiMzLgwjrs/MDV2aLkLymBFDJeZDIUk5HhEeCWXHP+4NHcc0ISqO2cNEXza8ETsmkzKQcGR9E0XWf4ECoOjWd/C9z/E0d1LMiZZTBrggCCdqfdjg9dXYQl/5VyRz8osZrFZye0DqmwRSIYfu3S2daPkhPUcpt91V0F9+AjfmpWqzn1iZ0bJqZ2yZs19rSGCi7RXyUFkBVTwY695YSzJD5BZUFXcm3jMgVC27/zPes/OlnuBAMMgnSMeQHkoEczMGlHkbItonv6YlqjPsQlPOsq3awNx0FgOV7+uNW/+QNCRWGFRbmPIoeXFtDA8mxdYclQdeQH0yHivYYOUKtSi27qOd3nSvgDwtYfvdnlc6LeQK0oYlfm8rRjrQ2snTncfaS5voGDhq24RY45hsAE5oXnPTHVsOzyXH+GQJpl1LANNLDY3PeLNlP1wF5b6iKgXER+JN+Ubs5oAFXH014r9aVXoneluIUL/26XlRuafd+ZPbrQyfoSWMRNI2PMBy5UId5s5sonewkiCY5glmcbJO+W57Z/xYwVoz7ue+jDUPgWufM7NgVW+8nVJs/nfsXjungcMoTT3xJbEcuJRThDo5FOAa9dQXcyQG/zZUmhkpFRA9c+fRiCSRpunmD3uXULxkocBEbuyc31oT9prcMoP5KwB64CHoTiqaWTohac7hVOMV9nWcFF0/yNeAehS+PSxIrw9ilQRCpFN9PfRZAqA7+Mttdn0r4Bifzc8zn6dFYMgZpBjxgLTXHsSMGy55wMtuheQmlkDLr8ZLoAMTmmtyXh4Z9M9y26hubZSddZmd6/ZoK0OXnIBv4LGhHrxUMtxboitvfjBOdhEpJn28pTwB3rj2BGK6SiWZoE3zMNXYbul18wCxUsaXROaWmRCNjVnkDn4OcCcti9hD5e1LOwagxf8EdnqCYJPnzcvo76MNTlaquOUEgXM6fOMHidu8CgK92I2dzhjXN1dLdqtNLkgAqxQhyPQKxJngmnl3VH3jrxXxYH6IS1+aULYuIEQQ3KMhQ/+r+pGD6Adzd6S1hF3+DO+pVbgrdLaxZQXoaIH2p98FTAXuH1OpU5NavafpS5pKdt4PK1gs/BF/sor0YG9ujCyBwG5mKHHFsul131+Ox6zh8fO6ibLn98sB6cRXfaBhWlFWzNEbJ07mp1+1+IUzqskGh3DZceVrrzf46AYTxCG8arSpbRIGfl4c6LB10dX48G1sAd0LJc05eYCFPUpviL3hC7Kv5W8hQQrcWOx9c4XYhGCkLzoK2oICkiYMieptBCXH39+cZ67wU3yiRRUGUff6bCdP/qxUpOwd0px4WDAccxzxY8tiTgnhy+k8fUS3dcDkMXVMvqT14Pq2V32lzQQngYtz85gI2vL+4FEOASlmeCiSSa57Q+aNH+CeG+jq7JgSnnHX7eAZqksISy3dNwAcWBGIvV4sSZ9c6QI4lY7ilOwnQ87rMuW26cc0sn+soreK9+pNGeVz6aTaVz5w7gALTHVKE7AU0Bs11z+1fG1DF11bqSMh7LuUULr7Bme8uTmXvpyLSO/7IGeTSpTXMZfIp+klnUfNezIOnF7P+h0gGghsKw+R44wfKNHqYUFPAYRUyXACuHDmatgy7IYu+DNYLh+OLYi754p3N4tHJMTU7qTu3VRorLuQCorHW9kHX4kSoVe51LdYg7xXNVL3PPu2iJuoI8pMg666omsJ0PFYdxI8w7xkyH4g1x+0Vpt6yEwK/5vz0rd0Zadubq8MFVe/P2gbesxWxRqar6XaEp9Js6J49WIV1DB41Nyv56oI9Jua/NlgMV1JCwTKw8cIEyOvE4cuZ7nRJKsA3c4/21bHnb+tJ8M0gG93TAcDc7BzlAf4om7ajsYY93kZ3vOWRkdPHXLtpquV4AAfwiZ1mqebGbh8rTTseHvbPVNcC5XoQy516Vi7QEk3iCmSdZISTFRy/W134D6vIeawv8S98vBnhhp72XfIh2J9SOsbDMhUG3vrrZOKY6TA2Zkg3MDzYNEOD1JfR4Uns8XT4knXypPI4Zx7m2WG+qubVBPmKZ3KkUcjSq89YbObglyj7kPe8V9Wq1EgtB9+Kd4BQE0/QAcYqsRfnZkVaegdhYMfUdc39hVQS6iobJ2D0DAjEn7JW0ExMiJmTYCgWgefAY/sjGM7AS8zDAeg0hvviOPLdpv0Y4DYuZa+V3yOxsIzDSKjMqGYJta/BSy/t7pXtIPIsJM6NzJk3y99mS0ZFdOo8gXUNKVqgfwvxHpnSeXqewqyx0tNRXxFYlAG20vNpiX0yqOxET+i5X7GFZkSzrSJjNsZ8x06dkkFMXeiSof0PBnN+O/D+oFHYsk31z2bg9lxhZZ2jSYf13jaY0gw5YRgl0bCTIssVcJxqkEZou6R4l4JaLLoJaC58Z8MopUSMnIQpTYbdca35IkYiJkM3gjfzgSRVMfH2mPSffRifNSfbdMYeIZyAI6Lduorf4ud/yvPww86n7VZDGYX6prQpFZ07FcqvOo0mCvhGOGl0C9dQtnOrDlLeTnvdZRcYWfKwH+2RskixQZFk8P5kXEjrKJEkNnahg5E015iDi9lWqkIHMJ63GWFVqQvPG2PCvOAXuRZOTWhzCjpQxa7YdOTeeG3jh+BFxTMXEtpMIOgebw5kxSSUgTWKExu7HbW8DVg2iqN54k6TqzqU2iyZh781hYuf4XHU2xGte3QEKFrFOiEwVYOPVJn5zKREgTtlrlrpNbE9tT2YSoEB0LpfUVKkxnO5r9K3bj2pZFEvUYde07NGTcnis4VrJlvJ/zgeEpJcwlJg3XFJKkTTM/sE1tQIS7hTfqGRCrdmY1XmpVcCtp8rBlfs9kyUDs5wv2fFsrHfVnUfZqTAkXnzbfXRE0hOmbKnKrv7hURIxx1jWplbPF+4PATdKs4AfzftmpfXpdIBBAFNDRdSjfuwi0SHpbkI36k24ex/ItRU1FEyI7vwIb6sxZQMzbWuM/Xyf3+sxc9zfU3Z5a48LfPOahfW3NyhmJRzyu1Tn+DAg2IqEL+MH2iGEwemKqORNui2Y+ojWdx7fSTE938zXfcP1iq+nzBxvkYqPhKRb1uqVzGKQRd5c0q4Hqtex4aM/Le9twvlpx+thebG5xWC361b0c74c6Av6Tf0xKM1mw40fhUh8x8Vqn5GkJ1r2Qcf2ECogO+mEPClNqxBxAIcrT4Ut+ERPCiYh/e/GmoNhslOiL2t/VXpePNn5ruF590ArPS+cK+LBn2nU3NqZ288NsSLKhkBWR73JCFwEQ5tgYTFoudF664eTB+vkpuyvGulAcVC1J01niJc0ZIEDmHVrHzsbacRhY2sR1BKl2io99BD6YdTeObL2F/LR2bH/mL1twJk32LpEphBipcQ6mOv+cpleXTTrEC2XTM3eW7Y+CmOX124NhPxo3EHkbZqkmxmRMqK/wJV26PPA9OT4QDJyMTT6aGebYlLjHM8QmifumFvMoAlWjSoHHjJPlG6NXJNSf8CtivNZk6jrCT1I7kEoAU2oceH0fogGGxeZyA6G1p6YoKluHADSgv8S3ais7URzaMbrggOxRyjI4KvBsJUngf1ScwtyiTBOmAqW8fymOezVK/zyKNmpUj+gz2T4eKY2uCIo8cgfLqGJKzjlSU+DQ7YSVAifE1HgT7iJCmrmrAp1NnteTyBgG7f2NkZmDsIHDrHOJLUZ5x/Qt1TUd6pgsm5ojZ5195Cz2LJAtMtZUKVipwbOppo0Ic+8mlX7bdqgC4ZQn1+GPiRbSbLxGc7PSOe5pPvUUlN9Yyl4c0hW1oCSaF71hcULLdcfyvi2W+dQeG/n6ZTyZ7lKRBTiOd+0qBjXjurBzFvdb9lC/YLWIDv4BqMNSuxthd2hYUykY5Pvkcb/SH6TQJUJ2ut9g75hCpkem5lu6c0t0hg/Dn4pTMJUgJFW5iyheOt8onItpMVquLNu7nd774hfkuL5N5/IHOHwjoR0W2DgsDlRREorfLU//+2aHC7YVs9q1FfLqG+YX1023CwAwyMWWTQpAlrlKbiPTunjBx4pyeU5xiiyJfImkokQOTEJtWwa3vvjicFTazKYOugoN5mzm5pBl6i+GSpwQ8DegFrLDgdl8fyYn4b2UXKVALm1w+GPWb9HX9/rHfm1y/Vp1ELYW+SpstUE9pzGP5ulZ1+Q46u/nDRZ4XnJZV38nhWqAgPZ4vzJ/U7J4NEbCt7NIW8Dw99c4IVp9XfOTcZT/vpiikxOp8j3IUkRM45xg/OpuvhLtmTw1umXvPOAozX969he472FeF23CW2KgSGMO73y3FbvVNxc+GIIHHO0h/lW0gtU0qt4sXShMmEVdakdDMWnIY4sYsGqW3Ll1PfkQpDv7N/tfeDf6G/2IlgLyOCFyH1RK1UOKJ4TO8iLDxFIznlw2Of5oQUAtXMfSzi0KVHKn0idB+7If6YirAwn7ioIW9q64r05+m13GJprS+Jdm0ABh/M27ui4dPIc4hFnQ4SNnq67WMHH0onKN+T61TRCWc3ayncouUigd9n62E52bymPY5mSRC89eIw6DBhVrgxDvHjdKz24+5ArfAcEeXx+o4f2VFfIJ9MJwkd1hzzCjjLG/DW7tNsycaQ4cIPltuWEZ5xQ6yyLr+r3hPLfvXmMbc9ADkOV80v4SnqPz3wtin5KJU/yNY3lvTjVFv9bfeTxxmk6K3aXV+4GXs9vTxbWwAozfw+OV21daCRTuC1VBc3546tu/6u/s1ONOqtB81kf6FZgDmdMotzS8mTrXhC7uEmyfJnRKkpwgsReISx1HBv1u1qG1GG/xK72LeiC1lcp70s4yDBH6+Jf6Nf7kFriK3qzUovA1hjcw1iUoNmTYDdu6R6aawvmCLY+hW2gmfYsjpa5UdzLrCaV583Xl+vRIy0cjpd8NTKWmXRGRbWcnM7sZviq66y2QrzsrzZckK0VKuU2Uzq/JJlQ3pMo5R1E1Vsq4XgydvR/wVMaFzjiPZJKUS6b0hyuotuckDmu1F3UV892dU1lRwbtytG1LBfn7p828NrKiE1Zpliy5o458HPHNP3PnkkMu/jTm6IyFTujElQcY3oIPXV8l1k5BxRrbOOecyEkB7MvztQBtIj+J96J94iHyCQrpQq3HeWlILb9yoxRJDju32BTEyTj8huGfbk/Qr54xkvYRLxBe3lvpsouYqlVciPTGEZ7ZO1Hgq1LsBP3wQhsbYTAG7oBZOG0BjhvieM8pP+kYiQYFixuzbQueSQMP3pJl2jZkodDhuL1M7ZHSh8jdmsmCwgraiXBFzNp3iFse1icnxC6s5o2bdU7mKpgep8OHHiSdUCr1Ynm3zkXRprgrnojpJxXCc+1AqutKLfi/FHr4kGeJZxCixVOZu/gv7sbeXmca89M9TZXJEvwEycSYqrqbWHGqxwNt4hK9pRcWD66PXT+A+4xN9fJE7s1swNriyIzq+z9jN+vUDS5LthpkDNNHEoqYHy5+wU2KL8nofv+XOJVWADorzB8IRR2LRuia9quk0mKIcdqIgpKT08theEUc20LIHIUvFPYZY+SZXwMlSmUdjGmn3XkBq43diogf+gH6ncHZyooaaQAA3quaqdqowhbSVeyCO6KtDMkYp7+d64wn4zWSbRgIXK/TTQK3/Dt5KbIY2MKDfP3ediE2ObAT07CUFGOJCFvyvpvaGvpz7pUnidWb6syel2/aoFC389rQO8rVVfuDK6jezw2OMP6SY4AQyIBkSgyN+JxFMsSYELCjOC+7LoEF15ewbUG8dWinvwHC176XKj+VDw4tKTJ0qg6O43WEkcH0j2slco9Zw/8b0AdS5xO7/ZQp3G3vq68JYG2ghIMzs7xbF/p44tvx8TrulnKaslKZWb5JgQhZbrROeFR+ZCUTOsxCZ41RdnH7z0eAaVjmPlYogegaitn9acx+LqzBtqQYNikOizpwwJkMSt8Ze6Zdn1wooJoAIhRqkKSRwyb+mXZtAVVzxNtlwVRGiLlltK/7y1UpI6M+fRBKsppb/7aa1AjhKeSJictpRSUKpZvLa9/7+r5B49Drh6tUk1l9Qa/kg0maVNELoGhxgs9oPDyvs3vh2M+b6xPUlsD6pX9RTfyKuYWSnSjdnL4wloBTd1PphITyQmn2BVgoxQzuTH53ILVDbrMcSPExfMJzcjM8Ha2PPUje23MOtFslFeXynwdI5kqko4orfvGwdNEIG5EEJXWHiOU/4Q6WnCHJHzwFJjxRMBOJUv5q9/NruvKI6r1BO0yXGoj7hvlwnEZ7CGyYcS4qxhwVXaHuKp/x1B3l4lqgro/2QhYozTJtnxHKeyn1yzZbT0dmlSWjIUaVyGb/5fEbga6K+h3L5vLggW3Wa1mUyn8VDzEo0VPS4KCCuivIpi3banxxpPDOpzcHlCJQG0CvUIureXpjU9h1EfSJh80mStYkapojtimZpGdHd5fmYU7PNbVyDA4JjJlVs+lxgLzZlpP+0ehjF/x4LhQeSgAktjT5J/GGFf57TKZu3Z5ci7i8O6Z0lbvnEdfUay/lu+X9fOImHt7IhsbpM+EQxffvsjl38W85AWtIj/3CZ9Bl85w3wf3Oh5Y62fLUHJlJnqkyORLwCOzI3I7jchZY8DQdxUYEt49qaOzmzqOvboC4+/EbCdeY2TVg2YT+Q2b+PeS1nTpzbZJJcSrfr5dYJqa7uuexU8pYGwxlLHx/3X5h83BTpn/VVP/P17qzx04iSiCyPv9ihYiBqYtghazWgGKqsrBodtfh8mLzGm1zIhcYaTvDFQBmSvXPGRKo/fLftGC9YEwvNlc+ApeKXX4Hx0TZ1rQVrVt9LXzcO2zatxlRi3Jr8OKcEGOHCAqsMtMqTtXOl47h7EMd2rAUd2VmGzreCDG0YQQEg95czz/OX+DbUbQsp86yUDTUJrpKmALOaKvtHH8Q/+wa8odm5lQ/Y9Qo4x18e+L6VCB030SC+wY0DTxDJ1+O4pCv4YmzH5kvA9YyOXhPTsEJAXi5vIcKTNdoMzQxC5dYGqKnq9YAh5Uz1yoZywAidJKfrOmqan63ej7lZRsOLlTNQYlCS2uVm0LPJeD7+YmdrUUWx6Q4yfdoqN92RplNuBF/JvpFqRjAGREbo7jvroJKaLD91tsGkh2LF2pGap2UmQkB+D9/N9HS+ORmJJQ1/sUBOnnroNHJ/oWp0x4oGvYXz1EY10NWlHwO67AQnkTpHxZr+sNpLNrK6mXjlINGBZ8y2B17jJuIJ/l6xrwRU5SbIIFcnmKCxjDmxUU9rTeQEQUIgQQMtRiqg0Ves2XsqHSqER8uV08eWBO0of8jMXg961gw6b2djm4UVqUCgLnUlbsPbiPdAc5U8jD9rbfsase5/tJOiB82bZc468j+iM3n5ihg2bg73MHriaF7xWR2CjStnF08hblO50vB3TZm88MWRGzPZoccTNuIb1g3dKmP1aHK+mpr3/1KomKoRPSPjqsNZffyQksNOupU3mwWXvicVBl7sgWD2pzoRT6haLgq3jSr9PpEgzvVspvDjzwnVU7dNuJDrArnZpRjJLBANcpOf7tDpXcVnkRCYNKIwTEIo9NorD/pwwYBZffQlKj9hcIzi4MFXmvGFBsqEa9ZxwKgw+1Hgx1M+cEo09oy9kQ2el4MOBncNC+ng52SsVtcOdDIsxuVnN7Dvy6NpYJDbcQjD9+tZc6by2Ns3VB8O6D/LL8A5y4otYF3sJufWsGM3rzSJl95J3nY1EKtK9ii4vcwbqwMW2nGVEi1uWDhrKl2q7sUyN4wdjLJT1VFOA0XNNjVHwZ7XhnIdn/0KvndjKDQIuUFtdiuQpz/5IcoZ9U528S7+MZFgKbHXShqaXArhZiXx/BixL06PNiwFV/8pugCv4vlg7bvdpcXaV19fV1M4QhdpiCRLb8SJeomcc7aQPZBqQO+kEvNLdzQYOs7gQdN05PkY+FQ+n7wZZt4QBMM9+i9ClChlFxnP56w0U0+QixFiRzqnuD5OxrmBOMzxkhbp+6PlDhGtXP2lUJFzUBF2Na9W8RrR4atvw0fyhaP4TfezaPX5/hOuohAzNVGfhbDUqXLG3DmRnTGu4GOj8WNonyqfz0UpuNJ6ogrMxdRt1zATpJusHS4dbSUi2JjAg/IYz94Yk0qSSbl6u/vXIT8D6Dbt1W8NgkO+WGPWdpLSepa3G2L2ifrEwDzRElUFcYlAr5lU6MLF72jeIn5/QXb2R/QT2WOX3fFwEB2qmAoyx64/sXh+oY5ezRmTpkLKjcW7IK5GDDMCj+dbavJnUe4pT4N37ImWrrFP8Yez0Ku5b4iZLTteQM30Cje61wM7QCX6MKVkECpX29cCnnsEOFciJZh0/WnlRzI8iiOpe4AZ96ZEo7ALW8qhsAyI+pbHYlJenkk48ha5ZvPQfjOU9imiBll6unzs1T29wztZ8zdWN1of9XXtdOEze02yIIkJ/EWwuQMz6xwAyWpfTjUJkGVXUxMi9K1NUB1/jOuuBNw6c4FvVxkF8S2/fr90+bXBMXpmVFokFg4bildjghMYWWbvXwURgJsM4J2WMbc5sl5KiIiiK3/+51PBNttHlDHyDyjL0D46kz7+tRVEOS/S0kzpemBnk5f8Dj4dPA8EAr9t4CuSk/MTvrvTMf9qdyQ9NjG72+K3fnAwiM1xtK3sXeLzH4hK7jgDkSbdDIPDe/xf1LGwkBYQsdZoCfb434yq2US8+9bkApRajT5RVIQKjyb48IsOQy0392KhSjaP5zUH32okc1Et56bHwk0rmIEEnB3ki6lmWRhgHtEa5Np+sUiGS3irgscVUkDsFt8zaAnPoA72WtfTiCOdxgGufeyL1NEx++AjeWtZq45efIYZSNgn+uHURrEwrpcWz6b08jB8O0V/61a/q3pGrAqhnEu0BFBSNf69PDOeZ1CdJEcwUWZFqdsr1ty0lgaBGnMPlPJQHLfHFioi/LbbkRj7WwvEa6dxZ2Il1ohGfxfFHWuTeIUks+4yQzYk3GSDkptbLRv6ES3aiB4Cp48O1h6WDbqc+gBJ8w2LyOxptxcB0k3ln7eL/F5YEetSTxxVc5rAhP7271H+hrgw9XLBS/WwAQwjr9GX+Sk3z4nm+bWAGwbbG/AuejptAvsAz86xwryeDWHIGsq39phfQEMYWX3fX+vTHHjjwQaNyshroQL7gxa2/f+ATh6FWRNlJbWh2zA9DRLJ3x3zt46WWqtrQFN1spdht0K/o1iI31r2OPCDO/e+PY3CzeZBCiHmThO5uZJOM3RR9UFAkS3M/8G2AsAMOOKo3bN6ROTuHx4X2Vf3FqA3YYmEKaURLyzcV0pq2RJTLmBS4V/yhZ0HRkBC89tdB04m+ocEZxFb3r/u2bZRRaBihCHXBZmA/8jf40QPSIfapYQ04K+CHvierRa+biX/3EYeAOybBZfkf1gieTJc8lGIp6MV83q91Uc9MUtuhBOVRyLK8omL9sDhdVANj0Od5dDtH/BHGQ27ngSkD2HcHmaBrfF1ydLMfBxaLL7F6qjdX3kFSjMT+QRAbmDhdgdtw/M4DHzXED90PpHG/UQA4DuO3s2mtIUflbZrWvSZavfZrSp71RC6Xfkei4vL/S7RnfxSebaFUik17oNZ8rANxxaNccDNMHt3CTIEpqsMH8xZBoQDdA9kNDLfdmGVKq+v3mjVffBz18P85qOlof/3iu+09zeG0Fx562TCKSpXZYMVarMnT7W/xU+KG4b6IGMXzL3PDsVb0K40YcEB+EyhoBZdHYqsKo4q3mYYCcOJg4ny7dlM66H/3llORfK+7UmoNOs+T/aiMn8d990za7+U18DXGBuD+q+GFqXweo8bJavVli2GINrEFAp+J9ooEp8TmsBd/kAty4+GrA9H3r36YIPXLuDOVamcvKsVsrYo1/LP4BTOYYXEdSkInNzWsPZ2AZVdAuCdTfZjlItfBNaL5yaExow8R1vDh2aAncGtR3Bd8Uoay1L3rN6bNrjlwYS/j2CUTjW/YvzoC2PL78Lv0TueCMfr56hZA5aGn5jN/giODxCaaKBb9sCGZCfAJ6WecmlOd0Bhk8bbHdjkjKmkx1QMCoZ8gcMVFe41vfB24zAr2Co2dQkTSAYecfXynnlLcjjyX6lnByi6RG3mDOlr9iS6X/eyaRus6N/w8EGhgkWn7rk4BxoNBdkgrvozCQMq/uJ2TUES7Grh6+BWVEZPAQ8czFr8QZ3WrAvx4GeHEPSR1m/GEzB994gZ9jJczlqs8yFznNdBwI+7waE9X63UJ2Ig+SmNSnQz7deQzh/SJwm96ruVtNvZ+tzvhDByPGyB7DZ0mF7QdU7n2/fDSRzxyIDE2y8MJyF4OFa84lMn9gszcuMI/q648w9K1b0I0hGVXMNeq/0zekKmrX/u1b1975byHu8ktoc46o+6AZvllqn31eETmTj2Bd4QD76AW2r0B7iCq6WCEOfnUDlTnFFPaNI0v4oh9JY0FEJ8aNjI/qaq1AfW+53f2zmnLzaecac5n9kLUJWcpZrj8/1xxxPD7UzaUIo5sAOyvOWMCjlUEinhUYC/FJEybz6vdNYlTu7B+/aPBHgNjTVaEbfIBkrJtRxz3L5NMl5GS7sE/5/Zz1dIIEUeCIpSVq2XwqRelFO86V9+XxlaJmrSSdbXJhcQbQOgi8NBk+ZNK658WIny+fjuB/q6serut5WKjz8zn8JALZpfimVtnuKsFRFaioMIU4dR33mGffTKG0m4zi/y2sK2wLvYOgFBGuQMfIYJXgbcCkp/u/CNWGpAUBm8IekDF2Q4z8z0UuvpGV7TU4OsyrQi+IxXC5A5uCxapYBx54TPIei4tYRmzade+KArgR4FeE6SPdnuvaB/Ke1066B7RWioMYuQvr30Sujks0A08Kensa01JNgLfkDysGCjkTmMCp4QIYBQg/7BlxFzFWH9sgzgUZQI0I0vop4Ap2D3R8DhnMmZMS1x7CpfOKdTU5VfekjGoEOEjifEnBMYJ2aLovGehIEgHIAYAAzBQoO2xX/yEvlsAQhzzWpYu/mcEAPbPgQOejPms7NaPvHloiSDf3+FXAu6HyITQwxi0/jwydqDfXHcCJmV5ezYK+D2g53fH3Vhb22H5RaAWmuYVvJ7/LhGMePz7o8E5DbTU4NMUGClh2ZkCdg92WrQfilCuTzs2wnUwNEkA1bwH0jmLZvH4fSSlql4Q9rL0mzjApndznuUV/HimiOf9cFgPGGIG/BIrCGmOMJUnhLLkcoIaYke6iYGtdNkwlAJbYsMnE+3vFX08y1WhWek2Irmw+bq8yPcSi/BqPRso1sDynmd6oY4ko9hdi6KnLNThzmOKn7Ja5Aryi18f9K4bLlDtoMHfXs3uqL2dszU9wiGhxGu4PGIWBl9cPOioLb6xFeygGq74RezxrqPqohHpVAN7FFSoU9NOGf2/1A63HIooVWiMyJ3kuj6955GRnVstTtSUgswTcQ+SqpkV/2S9VxqZov8MRqJjWFUcNKolUfOzvVKt1WBb1zOeGYNKqC7mvyeWjuWhfy2UH4FdB/zeNnYf+PhcpG6p+z1Zd1c1oMKX9+oCsCG9wvzbx1BhiugayFjtwajg5poiXl8PPPRvw//tfyeESv8xxbtoOoQ/t5W3A+bPno2e3groX80TIhuq5heY9c6/9hFOidSwbV5mz91TnuLdcNG3RXNhWtL6iyc7YjQKg3hGg3uP5czm2VbHYo+Zj9FbXxAFE1wBtID+4jufaMOqHEMr0xG4JClVhCYOMsG2fWzf2PdRjv9flhNbjlusE8FkhLdmg21jpY/5hrC71SQHGj8hztJoOED5JDhctK7/wGSH7Qya0NrJPED1RQRTtMIMJVIXxgdbH+VOBdnCKvll98qf32ed2gP67lKjrnjPticrVtjlZGTC3PSDrBpxaQBkLNYzKOcLcGqHMTwiFeCeWw43eDx9p/nS+QKCsyriMCKaH6zN04OfID5cmbDDEp5yM0yLd2cG6EbliLe/fzDyYoueqLDzC5EMkS3xKdZ5zdeCi5RdgMpjLztsZ+TGWQcLMpiPdLpq8fqRmnam2KaCpXFQpYY+fyQ1EOUJxvbI4bn1PJ+/66ZVuA4/IRp/vNA3TM/BScM1/H6Nk/xzc/p0BLRRx0teZ/wy0AQ8fMZkUeCWg2NFKFRaMr9jJTfvJM5sfpgdqc1HuAYqcVSnxKLj1xbZfpCCLKh7r7ptBHzgMUuNqTLlGe/nyEf4+eyDSINrXEiUec/hYMvWwAabCCUSmOSXydE1ywXo+O2aqHURCphiYCHAD5+TOySo3jwzJ/fKSrtkq8DRaJA8HSGVeD1c05P8U3a24n3RX2RKff1ieLCBTER9//qNFwE1O/XiQ9UrntmfT1Og5WKLr2VfBwYVgD5aJqiHoWWGjTztGzKSM2TLYl3mgYOehxHclv2LZ0rgtgUxIAUPTkaZwwTjh+l/3nm5zRXj8IM4xq93MJRLTDJr3wXSXjPL/VnwYnd4bq/k/0/4Dk49hakatW+ABhYlegvb9M8O/eTHN87N9wh+UXBnCrF++DxPYNa/J3oR1PQNr8LIV6Bwdo+NazP0jJNi3yGBWg9YdwbM++VyhjVg5flmLfyuXzfy1tamKDXZM5WzXxbyHEMZrHbQBYBlr1KYmgLt4W0Q72muP0e8LFSvchDiZheOQOJhgp1eTX+/M1ZdsaLxWPY7VD8L/oNPHk72tJAmAniZHTzWsDN+CUfvSfUF7gqZJMHa5aHJfT+zLf4WIOoes7A8HhmpBU+9QMtX743x8gGDUCXhbySOdf7O7ezZMA9+ezBSyyyqeUVvSvRqnJSfmdrCiD1l4Udk3GVAUrBrBTuFqiu7+DHexa1OkngCpZmQRQplRsHap7QNGAjBIY8BY/4OcfH0bFcM3tOFatJGzfJxTV+3diIxngOXB2UXY1Oj/P5QfO3+fPcTEsduzYVWMU5clS8xyfQAs8DhhOwkGp4yR1X4Eh32ZKo5S2dUbUsDi97kgLP+brDQjaJtj75z/OloCuWRMU3qiDYAzRMMEKYZCTgo6GNZJzKjyIoJF2vVq9v8bhE7r9fdKNSrZBNUjhurKBjbCzPm+q0Q6O1SKpbMUG01Km0e+0n6xCQ5vTSge8nszpIVWwwe6gJoJIwFF35zCB0f6wZIRJ4c6UkZeunrQgry3+JJqfaU0TwyaqS/YZJaSm12kNTQx+jc5+ucr2oafMb4Z9vi4uzox3lJcZm0riSy8BMpzBt8BtxG/Zp3Gtz0IOci/AXmBholJI6hexRW74cIzcPcv6aMEKaC6WWME1EdkLgnpV5rop1AFgbWdhJeNpwUwDP2CXuC4xKSULb3LDwAXQwlpusNfqhJJ13WMtoO9TmWYQPFaz1TlSQnGCsnAWpWAWgvlY3Yjwyd/3W9ZPbx8W5TR8qQkGpizpYelUm+9Ycg0TcnSBxjUpEp7023QKBHsky5WRWV3EJLpMlEuoogrZE+OabCh7IkXhLZsZLCGVEUSaIzRsDElJUORMGlzp0uSTu60MOtRQ0p0QVBiEJHbizZRcok+dd6DFss8wefJB6045Ffh86/G8uKw5+nKAP92meTe6HPIUsB35Mi4h87QmlWTuwQAt1d/bznXhwq8ud24zICscz8/qXMEow62w2K9Chc2VHqJVeirCzutGi9B1+cPT/X87FKXs9A7UCp8AYg2kDBXddYI0h3hheJHicXlflOsNMG0BD45EEYV4KZX6uRIkmm3OMOOLPy9rsJm33Ry+4t2VuMtXk9tSSGzZyB8P3WSb2OxmjFqjC84N2VdI8YEP18qNdifOwdK9/tPiAbWy22H545+A1fyspSsOToFMs+d/se1I/k1/+Go1FkjZbN28u/++5UVaka6v/vgAYMhYGSRhqxQd/uO1lE7e5FlxPjvU7k1QPizT0QGm0cwocG/tygCg8k8fxnv1jpHr6v8thavRr9//7bw4tBxKXm+Qx/Q7A+Cde8WMXQL+RCVaUx+HA5bJVZ0BEFP3j08g3f/ocrMFEHQtQC0VLV5KNwEfkop+nh0yUSHuDQlgF2Tyv0dH553wVpgbJERhn5XGyUCDogoRG67GSJHWP7dslXHYT0AYa8y89CItdM/4+dwqEuuc36OX47Jk62uC+V/Re0m69SvDlVA/hsnwSQiO1g+NOR3NOutuR4TsHzcVfEIz2fTqpneWhwke2sgfN02H9BW/gNX33o5jl+JD4M9a/Xbouw4ocdqkvKNOnva54fMJHaTYtprjz+03BokaMYcWyxOuRmXfxYngT1nTv2z9/LzGfQJ2x4k8eTO9N85gmBOXtTjVOkrEGDXYy7hjBJVSfUhvLMcsGNNRdvN4QwOKCC9N66tR2I9/j4jaU8p+XalsnJvAPQlAoUSkUL0kd1mdxhqghfA3eytn1PW6h9KmbjWmBAbxB0UVzTynDS6s7ZtZ1TUvPZ76c6HJvOSTZSvSduYa/weCkd1pruNPOeEGOMXIboI6dmSotBsciOKF57b14slHfg8bH0PhbUDneUu767SoublmNLxx6dQM7mQDoja7jWq55H8l8C/fXtxFVxVDpTdIIVFQveNPQra4rZD/loXtjSDFlgzZxWFpG+2tK++DcXrPYwBfQOqMzy6key2zy8+CAL8q2dOcmp3ajAhvwxABu/bQjLcvXwkGzo6F+t9ZYdEu0YEb1Sko+5BEenPAsh9fmsei+lraacW5cuGIuf735tOlecgeTYkQH8hd6nxSAd99qqPMFWeeiaRWQQcJ0uMeMankmv8AJ/ouwFtbQv/D9WhkQN6P7mKLXIokk0vNa/12PUSHZJCWH33ZaySzxIi295NsbOvSSc/FLnROL9dXwVU08UE7GnhriRkxlLZkB/alegP5rQEXVmZXaLtS/5dFsTPvIAYoQwghC7HlxiYp6mticBahoxNhAm7zM3U/3l9cEfQ1w5yZwy6561VoWCA3rXad5La+WC2gyxj/QHqrTm6gN13rmTYpF6cPAxDsMMYx7BCivdYs6XM3+v8aQThmNyzhlp9+oOgeHom2BVcpnDObrm+wvptY9sGb2PRV6zxZxmrJrdpG2OCQV5tC3PUr+hm5hjSVHtHMDzORZyn3lTehRTeCPLCLNVKNzoseJRb3fBeyLRwFmTk1kNHHZ9EFFAsE0742w6MNUfcLJAwjgzxJFcRBxdoiXsR1lr1flI8DXOQ7jng/P/61uM1wmhZzNJa80Pr9KbgeAldf1Xqz58d614FITgwIM6REdDgm0UWGMhUvkxDGKn1gFyBd0oAvt5uOtp3U/LAdqHGpf3scydjaSkeqAceLUj7dLtJNTzuGlrAnKHie8lp8/leaWsdcIImHnmHENtq/GPADyOIAQKCPH/QMouYOJuhTBsTB6KIf6NIXmrdxJ/5VgtpxoJDREV2ukU8l7qow5M+p3mQ8fu/h2+Wj7q1vPnlERX+zMyklYcLcwJRsdPMv6RbYD2M+HPScdhuwnrav5A6lsmQQ9hX9ImVWdkRRY/YfRgIlXhMLjTrdwtE3u0HsDBLpj+aP1sGj992Mrkvar3G6Veehvtv8SMXA6d2HWQWX7iFokxRf7C6GgWzsnpysmoNK0ULj7aGH75CM0K5RNuKPpdvSpvAgOnMXviiQr5gsis+Z5Jo9n9hghdcofiJ0UkXWXIbuiwCZY3AMDWYUJ4qh1OmfzuyUmPE4q3GwjFChlQqHF3kh5qV/ni6BVwVoeYBCTBvPKIcN5y588/RuSTPQStc+LeTJjgdTzwMhG4Q1yW4LUigYrq0cKTBtYwY4uRwBg1Hk8gsHfucYPlju7c3EBhkHbh4kggyzQqV1XZHKJ1oZDY2H4whANZs3Msl34XabTp/SeosYyz4vM6YQurLC2W7K3n27NW2eG02aDrdVcU5flbY4HuC2GdAaOyMfqhvesKR6vLfWqn0QIgVM26an//becQCrnlbjdVbmGCJ/7wnaJdTUGfYZxtl5ikkJXM6bcFwvvzm/8Au3pbLZt0VXI2PmfYPULFBlKTU/7hRwmoCBJYfxRmW7iOmQ4ol6No3wrVDHMEarzI2slp5pzv6Ul95lR+Qd++QcCIdekR5SywIOETMTyPbsn3IUpP0J9PK/IoF2+eGllPrQ/+zq8pdou0PQMsF6z6ob3a6dId89R0iKSPYvP0Gq/c/GAzs3EUe2gNxwt0PRJ7o1Mhjx+MwT2CCO5/hhMi/ddejj78wta7UvqzlpEBoEzNOKfIUB9xghHzcMZnCObNGxvnrd1A181O5sjg8nX5NnQTryjrkrsawOBuMf5xqUN1V98GAArSWklCG4wmVASynbamZwMvunJXFGObE0q0N9cDMdl2Z187HUTc6nu3B2d0t4nY+594KJWeo/UDJl9lIOEAkF/WhchgA6UGRcYpJO2sURv9+5JN04oJWgE/adYa2KE17mQRnLUqQToJmmKXnwobWkor3zgk9GYqCHi1zWkIyRumXf8O0ZkDycUyhIOeLFKbUZfbtVsKx2mPya8KySOaEKTHgr2eh4B/Wsv3y/P+tuh8yBIVUNDisYyAIrUvLHfLB0tufrEgznxAtK8IAWLh/4mHMQGO6TvTfZXiC2JcLhviHHPMH+lpayoGGgMcQLg1JBqKGyvxkYYKjFwVVkC9ghY+RdycleQFKbIhLHIXiCP39NNxzRVm0SSNAodYe9I/TOmCkO02VCPbVIr2HSLaUqEbgvIZwnt0d3NCbcvsGBsykpn3U7qsjphyCVjT2CJ5DB285uyWhN7CAyH0iJBW9MxgsX4NA7dBKD0g+gRsqHPzIjgSkwVCfsbkgzzkT7jm/ceHEmkjpInlJNaB0xxkYndqF5js6jrlOAbsBGfj5pH3FjJDEeIT6L8AkxZG0KR7/KF5s1BEtcQNAGEy+s9GaLdTdJIGA0PeR6APbee+08GSG9WJCArQlfNlzB2TzzM7+9MjRzXn/6eV9NYkhtIRxH70R3OsK9yj6p7aY3ndriDmP1dK/hbZn3YoAXyH+rEBI9TwoujDZh/SZ4MuOV0xUM5hVRxkcoH1PzUyq1b0zLKltPZhQC+IGnJkE04pF4e3pe6f0Ha8LmKrIbO5atd5rJ+aIswPBqNcaEigRoN+ekTNpyF3JYxbUoB5WsQIUy19oneogOmA10yHphBjhpn9270+tbxz/VmoYdLNowUgfYseWMaof+2yod5CrxEBUQPrIEzCsoHtkeB9G17N3W0UtqjVvRtPEWhFOkQADSp+AJrlH/CLTT/4THAm/SdRs9SR76aJzUVbKhIL9Bc3ASzhvk7k6PYaKwqCQ+laxYG/zb/5AnHcg6jOszXOVVH4hx/de3C3uZzIrxcOZpPEJ4jejobiCt19UB+XFcbmPDtpVXFKfZ8lLJK7tzas5zvfILJAR1oI8Tas/KA30k+4cRTN21Cc1RJXOPp/1y9k/E/cqJDvNacxtV97I42MStCMsz7b7Q9lxBFvsFc9QLQsCGOWDuSqBlF8VgAdqOd5dbeXikvJony6AdVvWYtO2eOpFgG6OdZ1TKsCuFK8zpDP2Wsyz/XFegcF1H8fy55Cbwy523tsY2bfXUrwnUmbE4fcuyBKHoSH7ss+V7wnmd+qN6dd+BJ5MpPq+LpvGXmWAWjlqZVQxEmflC950hiHHN349o6+0Ncw4SnZHKKuFR9wYPUpj8Uf4j7xaJbil5+V0w+9ifbY2DiFZUFsmqvgixyzyokd0Q68+kY0P+26Xj8KGXUaN+Mwvim+t0nDQwK/ICQnQjH80tz7JwIP+M8IUFFOfK7tPfV4ovaoPhRxJUj1hHh9ottKK/Iq7Q3qSD+PK/Y8xnIkHjbB+TIzoNxrN/ek/Yyj57edqL2EJWooKabTB2UGXby+H0Al8yglkiUAc0c7y5jpTE1OZg7yADcJiwFdwgq0xf6inV4kas6yRXsqexsWTyqzKEJyh930VklRu5YGFLHtW+ofJV0xUKhnXfDCaf6wEZ/vANypJPQzuwQeMxh22/PSUYEFYgUUWe/7h5BPdJ/9QQC2WJVk+M2G7zfaCQu8GFUrRRrM0Upf0pUSx762t+LILrhpYPZa3pUK871rLTwykZQw9a6E3nR/y/Hf1WqpmRHZzwnFX51XotHIfN7J+4q1Ce24vgRNFnzfFUi8PYDKXMctrnmcyrL461ocIFybakZ8bZuTONBjhNXGl3B2oqVRkj0NnTsc+bTyvEvFq3OharAojHT7hcOe6sz5ejqItB6Wol5NMZSvM46J8NIMhLtEJwq7wqnPSoRq8WcaDRpws/0cm4I3NyCfqEoCwf7dtnUaykPzZ1VdVynOOMWYv4skGwNfEWuwz1VWipsReNvL7xBXhMFPVcmytpfP2neCRG2BYbQ/2RAwuz76FOuaZcZH6FfK+9GW4C3Hmx0tcNoyGT9uI8BPOiQKqsxdzb68SJKsvIomuA1vX7Za4NDAPQSNpi302RIHdDkKISz/e0DeA6t1ZhvQN39HjiiCJjVksRhfkbPCCQtKvk00P9Lzw0vy2U/unIXfd3MtkDEE0ucdA9M/XxScg3bmaaE67X4V8BJHKZjgnxiovI/sVqcfrOj5M73bqpZcW34H/NUepU4owVD/HiFiYovcLzC4vxqY27Ui+FIFvzeJpm+ryaP+iHUxniAKxMxqBQTsunptbyWA8Y9xggt1+/o8WYh7adUwyu9B175Cng1NzH+qtKXAqgH0k6/5xd8xyfz1dvpecDT2xvch+kTfFdQXmw6uCccEETb7xPzC49s3CQ5U/jKVZ+wj56ihshU02c/pT6qqM4xtpIhed2ne9CGVzgE1Aivj+8bgEVL9RZVALth+zdb25qm/Ovw85fQa52AkgI3pEBMvrtIAH3PHuYDC2RTih4Rx+QQ3YWZOL+d91BKA8HdPTszp3cZl0hp8maAu+7fD0DMNe9IR4U6gtvYKswKaJhchezAotTxsVKJO+TD9Oik19RKJG50U16JcVBDAz6czzk8MLyoBaTf1H9ZSjaDAB5NpFWSWxKXD/WOE+6Rm2aJhHSpxw5M2mWJYW7C517Q5qqlT9wMOa4hVaaJpVD69vBAxlsxn6KlWVX3ZMn5s7RYpz93zSpO9hqTTCmtGxtd1BbLLgtGs456XMTRVNU8nTRu5xPpA6H6knfI8lKLFM1oAxPjjY1tjyjtwWIbGAqlaV80axrsiZusbSy4fqPgHPth6aHX1fDL/la+wuw7d3ftL9RnczU2qjes9Wb0eB4/scH7m6B8gUFiZVxIwaw/SCVCDhaZ6xJrNrGVXeUlRVQxxanMPJCAGVLMAXSVj+/pKJ5uyafLb0MmHbehNklgvDJbwPdHhw76fQkYCuTGwKmO0P/nTnnr+Fom3mPENV9zQ9mpxExu/+UDbmv7HruW3aZUjZM8Qvu2E8F2ipOsxfQ11+e0LBbjw/BeoUvAdFSkD7RKPBqW5AMegyvlfQBFtRVHZrn+I6K+6Spdv+qaF/oeO9suIqUbT02o8rgzhvf4lROq+Eo6qub41Frt67RcDMRn2aoX6QkNqzmRaHRfWzVEBfQS+55XMWHAjgFsQ7Ac53mb/2LTWfkSrKVc6e6Ku+gj0sVALsZ1FTO7Gvl552n3SNp00T1uOoHDmHlwxWTAMO1G4qX+tiDGstBPlLSaP4uPosFYQY3xZ8o6jETkEAn3i5u3GuQuGfFH1Je92LaWGZKYTpYS0C13uqbhChaCthZbEFw3WQBlCMIpBzrfO6JGZdgqPw14GhB1XOucaDB7mTPQ0S1Di9GrRZAKnPxS7tWbPkfDmoKNVfX5Kk8p8u5JLVv9od/SW0JyFmTPOHGxtj150+oLHxGNpvDeo511P6hscVX9+1gxK07nLEV5dXQVldO4u1PmSL627oHPkBmovFhUjSTN0m/+Sr/9qiNYYLT1Ju/3jOs741EB1u2JaA4Z2ixuBCUa2JT0PhrxgyNVOLlgU9261mXe31VIuT/9s4unDRW4pyxdPO6qt8+MduQGeaGIWA4bp6JGxSJh2KeLn7o11LjPo/ptj1DJ5SNp4hMV5tsuapX+npXxnJov7iFv145vVUdsNjCmjPwd6JrYil3HFseD+dL2lgahOsMu+zaP5P4wIjto+T0/3ACwnRJ2kx37fBsAD9ZXN2gkVh2vp4IQsQd97efrSYwDOSYgK4fTfy+pjp5DDGlt5FG/2ODZosNVSc9M2H7mo+mmNDYMJhxHZ7bTWobjwAWL4/plu9qCwWv914TXmlpIoRCwK1MoWBLSAPyco7k9NRpqPpYrefOl/JufVAbSbce6ypn3P3TnoUUkc8yps0jT5Oj2oPbt5XpSVznuYchcx7BqK2AH3BWPRAYLJlB1qtaKz9m9xLsiBwXHRObDW4yxyt103ABqaEI49jYlcmvIT8fZR0yRj9IVs5BXtpi66ECTUC2yEHZhmHAtuEviXEqlTBHIHzUlwpYS5cIX9W9DC7+OiLvxqyaIgZlxOP9FzY3nPUJX9kwGOLnHa9BRDNnlEMtkY0Xl/Dx6FdQ98PSkrxwOcZ6qb6oV76p7CzIO+BaupLSjwZEWX4NZw/zHOM7pabkwF3UrL1A6nTlnfsYR5KgwWUHINbLxPTzrzaLD0C/E3spIjQ4MvgbSG1kJzE7IfHt61Kxudqs9FfzyFZWSn64f7sXkWo1/k9hcMAGpL7o6ru4PcE1y4HOKDCTEnSYwLmvToUJPThjiw4KFLx34BYgibn628PzC+De1VYF1bXyM4Zq5WZzhDTn3nuZ2UKQ6utjS7GC7RsZrk/vssiPf1EnsbMLSCU2j3THtT0nahkHQEW7tIghlCL2dDCeqrjEOIm+0F83MVUsNyvIM8Ns9EVPGuSeGjKv6wE8YfL/NdF76VsziZP5ni3ld/xkMjx3N6c8ym0Zy+pOrgWqPB+q1aD2sii6FlvkV02deRvk9DG1/Uk1CSfWc2xH1wl5bX+K+Tldhpd0pz4X7hXqppO26jhQjdGUf152rtAk0lz90k5ZEMr11r+H+rVFeTK+mtHQBbBRNDVmy8k86E/Uhga+auZFwozIE2NXdXy8hqn4hsHpRcDpe1VbyOg0hjkImBE7bupyzMokpyKm8HO3Ppm0MUqfRZ9gqhJ+IFx+IcFhpcRau/RA3a383HHs+0/bkHCqe02xBlAIHtwDliIscqHD24Ae4RfAdaziqw+FeF5bvc1OdivSx9hZDKx9T3JFRSSSVK6Oi/6LZTHotcw9fzM18ebnBSSK4agO6V27NzGJojTgjAxBYia5Dkg1CPm8kjRlDfbMgLrLTTRvbJArVzeRZwGHI9h/YF4h5MwN88eERyLIsWKojUXZue6L9Uzwd8ekFfVMU1ABGHB6PexNmT7wqr0hGzs9nUTVDPY6tuamNE8e5MlwcZAiROsT6mBEFP+HQTnVbT8MHsqjf6s4qMciNzFiOl91hFeB43mEnoYudzNqNwTNWycf/uMsWR6N0zmjL+PKk/1YHfO/uHdkcRMgnrO8dm+/lOnENzk3c/MoNdaediLOpdHfHOmt92uH9ioFLiCvch44fse35AF3kQph2MKdwkLXa39i69MOimn4kf1Mplpidw+pmUVelCpELHTPnmzQXKjAZP5NCVc+WI8H632IoKnwMmjSvlGd8O55xNDXrEmbvMf67n+/RDK7ZI7u3z5LQ/DA5T5mSXWq3vnlwAaP8Yak6iPFkF2dHwdseO9pvsMSMvLzlf6PzXWgzMrml7LjkRIJd0zHIoYM7fmKGxd8+D+Jwquvpi1pHdxTuCbMplLvZTmJ2JKiWTt2movP52FxKCgSlZQwJmxqSRT2SbnFx28if0zz7N7SIJ43sTP2AQjNz4AeXbpGbwkOLm07KB4pmJDzqTHDzhrIicgjH0ggnTSBqDZAQwLHD5UPCT+WXyuwxK7HGuCQNqPTkgZ2Pz0OL/KCJyTGNKOZZztLjGofg8nuAVBVz8UkJPs/vxnvLAV40EUDQJ23BL4N9bIojiNRLytZkdknOQzrBiccvdd8ZAzU9L0RpsdkmwDBsZN5FvfXbsTplCMHJxeFwXWfwLD/tDrNx/FwPluMgLtz6MbEWVzMouZSdsTg3EvBSEoIiiYJISUjjkfWmc0iYTscLUEV7K6obhxLkcuY7prAw9vUkODy+if8k3K11DBfRVQKRqEq8S4T6rtyhw92C+kZZliW5PMwC+cXvW1i6rnpjjTJy5uGK7DJR1vzqyxD1BZd0SWCxcNsJZGlbUKbLqRpF+RRx+Hpx4ABimCSh3XldKPpn8C9CmeVV8wWHNnIrfiTYT9EazMRClPAr0cX++7c+i38AySg6xVdwECugTGi3uZm2tgXo9twH+PTKV8PeKXr2lplV/+5YjTivbIxdEHtXHsrZmdNNvis31elVmmt+qJlfNEUs77TNTpvNZokyen2rLDhjDfwRUa7iQErOZmED060tsjjUkp94L2ZLgulM9NUjxNUShMfmG7f78jJ7rvlWqzbHU8/1+T/xgdvt3i6uSlko44AfrhpdcsBj+4Gq+vXVrbI+mW+FJJz1Yh9dpGnbWZ9ZzqYQ/KCAXZSW6iA47GMIx0JQ8ki1cLCkWoVK6RD5YV5sFUJyDEd8lThneg0RcRh2TJQdCsNPdK+mylHghg+xhclq09JgLr32QehNW5EzFeXQFDnK5YIgyjTrnk6Ol0tgGqaYHpAYD/6qo4DU5fZGQix6ms+7z4zPIoZUfC5xH4xqMlBORDxcRrP+VLw4ifxn5gPCors2xwKJ5vZE0xU9ZIHlBC7EEirtyMN4SacC3jn+WQGrN1W2H6OPqBoAPwopt5fZe+PIXFVNCdw78Jr2JNRVj/TYnHrgbE7TFXgfyh8ZIjX/uUQo2/vGK7OBzIboSZ8HUYaryyGMIaKvak7Az0x0WXc93WwM10790I3CkMWvY72dMC6jNp/61crQl+N5B9mU38ZWINtoI3D87u88ksS5JI6IdtYGPKrDfcBaYaNo/lZzk0RAwpYCbb7vxabYJUKMVM8iHdoldl7dugBLBhvohW5DlyGh0RLDIjiWSR1mvErP74PPg0q+NL7i94w0SmmoiYUT1+svjkUrWs/Gm1wOBqVJGS65/hbbfvSJ1F1BUnXdoroVt88ZCzwndPQvXCull6O4P3gGOcd0x/3DETwxehvQyYLh7h8LsJuFLOsJZvgYxClq+JZIOVfg4CLHKhy/SpSB7VHMBf3y474gyBaXSWtgvJqcPgbFGHy/DdzQSIiT/Sc6Ykzru0TkrIYWZZlaoNk+26z+c3SVDRGYGEa6gG9fOUoik1IW8/AsrqN5PRNMPZl77AIaKvm/Z+Na/60zFR4HANcE2lgBKunP6EaNbatLRpYI2vLIiYgdclWqC1GhBleuWML1Jr3fsidjSgsEHW6wOSbzYCWWO8n1bnCSbTg6SrwB7CFbHP5vg1aFzxmuG8YN1lM3w0Xpmz+oY8a3SKKLO7VfTr/PRBe1DOKsBZ+H9KUZJl1uCiQAc2GjEPBCow0vAlqJX3DhEkGj71VQBstfmxLkyK0vNlTrTwHgd9ECVmT8N2RWzfex8gaGAizZoPo/rQoN76W4gp+ceMIl7D+uN8RU4sfDIaWL19GoPKEA1s19bYUS6hMyTp1kucKFjYz6JIrIPNm+S9JZlWksnY+UJJDyN0BTICFtTSoynoNR09W2L8WSZvxq3MXqP5GBP9J9j/hAV6uKHmTc94/QeAVusz8JgTjHDjWVMvG2J8+Lh+pOEaj2hesIXjuH1mRDNY2vE/x9KK2r0e4MK/au3DyY6NIrL0shk9jf+k7fZVCMsoFApuT/LJFb0ia2d5oJ+trcnuS6DaRIPJAg2XiqIyoxPPQ1bz7MCDT7H9YNY4viPkmZ6ijfiVh4MyxY8FvzAGBwfqLuwii70ap6kzWBistokuGvbzzgaedVFEb98Ge2w+lUAXX9+lU7FWnsl14H3Dy2v3QFofuB6ahD960xAaTB3vwknNd9jYjd10YBVBtzeADC3AkHVe4oUWboZdqzSHh26Dq2/r2g8sg98IMV1Tk5YnAwf077T61RfvcflyCjtHz9+gNrFBKIkZYscM+6Np5+aIjHyn+Nxuhr8Fhq/7i3jUzYCEtd+HkiJhM8QFwBBRuXFB+eBYHkdXDupQf/HA+ge9sDhe0I4BniXpiJaiNoFPMUrIXgwReYz/y/P2t6EgL3O/dl57dUPmPvtNs8zquKlOP/y8MN3fIVMRS5owGMyPn2mSCVgatsuT21Hr64YNNOjObwfJm4RYKEhnC4HGPFVMu6X5TD2jG21pc6+oDJz4Ah9eGDnqbgN2hn6A7iA6cy7EH75puuhyY7S7+95uFtLa6cmf4teFAik3IL9rheHgRULR70nE+uPOZoFDaWnjKG2Ml799ZqWO3QIMGiTQ3gUQvGrvbeG5emEVD5Nqv/3FCOZiX1VQ5XXPek1C0W64GW8IFGLUvkvY5pnQfW87d+5sV72ijKQlQiRdmrsRN1p30NSowaPuJHLsdi3luE/0WNpIYVFQ+UH3IWNTJbgZq2wlx8+wiijoOiT8iT9Excbd+W+aK2G61YBE/bKdw8FKyHUM55gfGcaJzsub/QB4azyx3yebyDjE5A6kWhBCV+elQnDl7Nay6RpWydbVFV28uCtk8OctdIxageZVbT9rAcSlxkcmRwdaW/ggehzzMFdGw5sCsgeHdFrEs0wdBooqnQMf+sT97cHyVQ33HfkgDEI60pf4CLKQX8r60xMmqyM75ux521gRGhPy9MZQizv14IMatGAI9SBqPC57S4YC/EnAE347g75LdcIW6FLSt6TUhIbROcxAiU9eadEIXwwPigTIne2l6L6yKkd6cLHgvMS5W9B09A7yPiaOYPbN1qr50K8WivwD8cWiTbjVFFBKQZ0qilRCsgxx58SH5MFYOADtFfuMJmBnjIUbpaDFjbKBi/eaVw9/yUrzYJPYfBTD1K1fEoBT5uHuJX0x2z7OqAynaaZyY+/98dVxCKgiWqpDM1FgQ5bqxvd72c4pX9dZQ786uBJgiIic0MK8vAPsiA/AVccwB7NvwBOnNk19xBK99wsYj0dVfhCvYNU+cwu6gIwBP7Z2dIHmcjnC/IxixdL0997Y/Id32PvVdJPr1EW88i2FM2nek/JFmsuCeSS+q/juRyOP7SrDjQzqYoHP3akHFVnVnG6Ir4sNaet7oT52taTveEHa4Lokpj461Wdaibqbg3B1l0dAIwsRVQEbYQ9BPkN2Fe42NXJibKNqiRD/d7+G+EA5JgyJ9w5Pp23R5rB0hHMSMO8FdAwXN2XOS54hURQm6u0mv0Uo07BwNEkJG5NRTH1WMJws3AfDUW/Dwq/8z5l5M68Nz7s3uNg4i4WbOFlVUA4+qrIse+iFxodSrfT1AOHGvvj/MPOYW2yWfhE6Wxy8t54jDt0G+LUrfSAApGeZrvVSMKVCVLVOavooraNvwg6iAXGBEJ+ahAD4k9xxftmNUXo8qZpVSSBdnqHjX3uIQ4UtFHU96twGXEsdB9KPPzWSbHL0rKzeJzRQxS7QAzSe+44hFKp0F12xt+mVXlvg5ROzhVwzBXTrAd9qiwFRhbYhRtOvJrprwDtSnYU0TU7SqwbMwmkRt+7M8t4iOfDbjkfIhEp6TVygoV424wQyYSdzhvPM6/abZMRwWzV9K4gX5MB/gy/sIgXlN8HhvdcASOiJKj7h+Qw0v/ieKM4y+kwIJZpnWyrWbuDZvsglJGatg94CMZYqyCJIjz52WJ4mFbDHUegZ8XyNq4IstSUx3UySqAcJ6hZrIVnkDwCvtle0YtAXXW6bydsMq+B0QhtfrPw4S4n13TG/7ytC8e0l15SKXYIl1Nq7BJd4Q9rcrweArnPxJ/MmgfpWIvIGGNShorZaMABEoFjBEHMfE05mvnei8l6zypcGUFt/UTwIkimCj6DimKV9yeHc+RBzTHCnYypFYMZaDo6z5kfM7jjYG1bDh32jSQwCY5dAGckiK3v7bjqvfcWsne8f9mBrhp2vDFRWk0JCiiuDBleJ/q7dUnFUwq3ydH4KzRsxOfdKKRHj8/UD54VeRDjp2V6AXAqBudWBnxdvGAPNm7tBMS/qtUne9rY4JAVqQ80EqgnZinV3K0xQEyqo7trJMZeneP5labTK6nfTlMSYsaAP/XYZ2M5qqin6J3ZAwo6GhdzalH6aHTi59oISNyvxncjDU9FMYih4EK3xhNMl7jZx/G9o/38GR/kOJIGEPyNHFHCWCatrciSCYoHitwRuK0ifKOgUasEXvqvw5YLmkaKxCKVvbSiNvnFF/MlWZ9jF31My8IN1ngsrZSFXiTTjasm32kSgILpOPwLyDeqTEJqBokutBIwu0hJuPZONmkmJepnCTwRht/sD4sCYkU7iuTv9jPJPKjasQOJDWElkiEVWOJDk/+PdTSDxzJm8CqIJOdvtcpoQqnG/1TmtW22Tdi+3Oh8uPEa9g43kBL/vac/f9nt3d4B6NHMVGsRpoArHlkRD3HJ6qupKRTeHD1PT9QtbQPo6q7QfynnDbLaZ15S0b2FsJucn8E+7i+41MTFpDphiZ+vXXuu6ihhq+LuEY9YRvhrVAyX6+a2g3/rxTg7RIM6Dx2yXQODYKtU5sTd00ZYxNyVE7fAQHPhHsxOE4u3wVHnRTdtgYG64BM8o/tdqsi7poZm7uyqua+bzmaTl8300ZyGLYG17C+u6HtxtoOTkttGaT+NGQgPM/LxCC+J3sUItrJF8BN86drUkaKSaujfpYfxs0bcJj4MhiWai2LUVD0UINBAjIRb33T9txIOmSFXWhYphbJW89rdshPBVTs89ERVW29xZiQ8FCKM09jUzZIr3veFFheRJ1HHHQvyGvZ4hgYeut5jrhgo0kSzumr0RUxQTxUSzXH3/SfYuNqxmfxaHYNKE3FglSAdxk8zbGDQfmLFxeOpeb/x8BLw/zbPPAkf8rEsasoAOK5C0f9Tjx3Ov7gZycfd97XmqHSHM3sWjCEIiv2y9YfGXCXdTkxj56CUq4of/Cb9fehIvUXchHbyHj0rnzv/ZM645h59/FocyNY6AYd/ClDP0yB1ug5EY/y4GxOg45+hvGTQnHtkITzr7waFRL5hC8Smtc0fpHQsdekULNCHsZzGXZt55Sqp5suHVLPN929UbDB5RXBEP+AmKiM6VCb5Ql0k5/VScjoptsbnreQ1VBVg13eNAyQSuD4EEYsTnc65HLuSYqu/Kw/CwirTRRSW2pmA4GFRjS1lb6MadkCxxtCis5NhLRMOM74uIrWSbr9Iz0Fo6fvrDjgFmDKdBbow5qi++QmUTPuVp/R0kLJAhbYSr0NTVzC8/jkergIYxd5/M4+EwJukZphO32p8cnaBoku3n3qs78xSZQCuRRKNU2QU0TJWtUn1Tt4mK68V95GyI9P2fIpuIy+i0IgF4CjG05pFWcuQBsxRbR49UP9vIXYm4piuVANg/xEoH8/HtMm0YJIpcdaxMAtNNANsbmcs7+VYktcisY9mOQgwHekHXdbXq/9aJhw+/hHdZIBsEBeJkkzxejneHjmfudqki3rIfMLMUaTv0umutoNsYs+KDVou83g4nL4sdJtpODX3oRXXp6K/wnQ0Jko8Wv6Qxx2ZxNNTzauwZdfjWoTGvnUxf8E5QwSrugWKOaqAcTuZ+AltzYqVXkwk5OOlCjVadAhJ9pRSZy9AwYyUIsw7wJQG6IMHUy/PfWwbtVqqbAbY9TEZJ+HqhmtQm9vWJ+mKU6EKtU+NZSDbIvt2ixvg/fySB5o1wU2NSz0UHJK6IkyIDaQ89DyBj2aDLU3sB4snNd1eg8qvQYHIJDh6ek05OwuagcvDTBdU848FmB1yj14swfDkNxpp0USr27rWjvZEodBMCOVT6qEMPmxHL3lhcVIOdNO+nIodwpB8UfJ9MAy35IcGkXqnbdy6GKETG1iYpyX7qNbfoQ0+if3dU3YXZnEZA2P36enYK86BinSfLmZSF+rxFzB/Z4Ewg9taYL/RPY4c4s9ik7Go/t87RWY77W1YmXAZZVY9ERKuU8XbIssGCRyEwnP+wSC+4SXccgLDgtiiJtCLOEku1diy+XD3di4MmMyVmFOBFY04yX1u9mXzuXpf8t20NbHVGrnEVKqeLqDkF8/RLP4YWm6zHgwswoEEbYPPlNp7jMIOI+FrKelB44L64gV9cY1bjVjVpKa4nBpU9zwY+DLri8bCR2nY2ygh9hPeJaxwQD0b1z2MPIpxgtAjTFRHuf0Qwq8EJEfTRsubl19tyX+pA7slFwuZp6ypWcGR+ikCDpJeezCRTmimXxy7gX9pzgOD1kkSslFdlHthZNTb/U8P7NzB0N5ti/fHFFYjSj2LMc5MeUcA+kwauH2idJgglrd3oj1lrJsSvf6qlB3GW1/PgQw5btCLeiBMhoSN+hryPcGpvUbJMZjaFpiI/qY5G5nXGSdEGS9CAzUkmXoQwhxpihn/wWkFcJRnzq/s7j7OuhXdjJtY8MfWoN/wRPl9LDQbBv2USodAsVhU/kpOW2q/wQEVGFbHY2DNE9WQt27ZaG9gkbXadpqfA7Vrb6n2FT6qSWJQ0LPtQ2h/thqdHHZaAZnyc5tuYTxJROuOv9WJeHL6NbtnfUUPU9DgNohISmt1Wjc7KvcZ5oeDrahuhLf7KT86BK5G6RzByTlavF58O12+wcpOSYiLyND1NvHxP7AhIgKWyMZeHegNiOybhm2IauhV77+fUvytJAhj8DxuXUK+2XyuYpyjqdU1b0rU2DMmbyBtG0mx8tw5Bb3XoittpInCxHNTNiEWg0IXFsJziN6SLWi/bHI0d6+JbflSkqRGFtik/LJ4A6S4296zzcMh0WGyBw66u2jpGsHCC8SRDaazTNX8u5OCMcZeI+f/mgAv0jcKyw51tTemJNOvpmaAB7t7DiTx+UPHQvob9ZUOEuct7TuOrZq/Y5CZUGnYWh1NRggyxDvt8PxGwpUK6TUhA91wNV/vvRbuH4wMl0z+WnT/oyu+k6jdOlcd6jKCq5EQsuxW1r/wgn/klrn1U+S7/OFTUf7hIYTiGhq/g8A6JJ8UlFeWYe3C1kUaI3VyKWnOT4P2B5irdSrIk5aTNEOj9ZbIWsWql7YChf6aFuZYkS77thGB7hw4E649vDxFUeuOzMoWTJjd7P4x1JCl66C8kzyRsCWW7Q6QK2xOo2zX3tLkA9Tba2Rze55SzcPBaslN6BKYpksq1Sb6yaKyWRYL/LEHzIC+pu4a7Nt8l/9Y0IzOh0+g1Ew0dqShdGjaoYpa80useO3oCwjVFJLr7Uq/maHissRroWKaVgHBPbsRQakHa77J3bVNSV6F8Zm1hMLHstvbnRXVBe4D0GRqczXGV3bMZAiDcCkYTs6BMEXDMnmr2Vir/5kR8IRIkrAaabeQ8M/QrewaTemkheOonEZRQ/wjsQ3NGbmwM3RmW6w21ox186TYipX6XAFhKRPMXiFrizmZyNugZTxHLTfEjgoGD0WhGMgeLmDomIb7Qx3hYZXg81Byy67KcKD5xYP22ucmy5NfFpXHJZ8H8Hw3+WQ4ECODloseutgP1GiIUpvMnn6TBDwBbBCezWQ2y6qVW5VAA1DtNySm0c2ocp+QweRSZ309HRyvqrnXH9OKAm3QjYiG35Q8KgwYYnOjC9Zb28Mskcra9ssh3mhteIM6Dgp80WT6YerRujclNY/nnkACGrw/u/O8Kyb/y3flR+WLe7nKiv0XMizv5hHWUXOipPz6GZ7oEWzWb9I1X7Mhy2RurtY83YoexVSXcsXhRqtatcOPyRdwVq6ZMb5QyN/S9aeK7MwK7019+KjUKvLnnhRD3g3osEuh6r7QAWEX2Fqew3TKc0kxIUbCdSJyvYQGaU/rw+Q2Qk3xBXUlAAVtd2oATiMW/ho/EmtwWnb+E+2F+Icrs83Z42xqmuwRN7cwmJVUaw06qUAldniONtdqFPUGQYXWgaGmxzlQGJRAfcRwjyx+/CQ5sjQGcBGTEDyA3Jnl3VH4g/f6leWc67KeoIGUqz3xhn2PJZ1HzF8iqsrPSx3BMHCzMGsYPk16uZHMVy+L1aIvAUnSo9YdMXyVwm0gjlTcdSMtnuZzA5qGX2vZOptk2TsqRvrZsSAE2lmsk677sHJF4BwMNZblrJdGw4QPCeMxzZuAOXmtjo1uI3NGhkSf5mr/Qq6KCkmiVSFFXfANkUcwphg/fS63HFJlX79dZqP7njB6yRgbjM6a1Ta4YmTplLqRk3KQGj2MDGMQOXiTtO5v6f1V9SC1aWW9d1kYbVfUkH5wBj6UNHhrK9hhQtV3M7Zq5GQ5qzvLLkqNQTJz6S/3WgreCti5fN9L3IDGpMZfCrEcFT+g9BVEKJrtbF+dJVLfrSsAHxvZMpYviecN7Q2Eptn3BoSeEoNt3jNDuaqQLe8AeGDyomVPTV4NkymdQYxxZXja/xY6+BvO8s8N90IVGD0LTCi5VXBdgHcMGVpdHXCVDfi8N0traurosqvl9lsK3LRnWLSYgRfyjh9lfKs/Ep3OjnKV7FLNXWHx4jchDdGeXcNV3QIApdoKOu4c0s+JB3DVTB1CX4O/FNYqV3/uw7lN0EN3r6WP57qcNm9qq/1NN/toSQ2O4eDJvMG4SzqN3Rq007DKA3rXqIo/KdxSzyFeYdBYHLfbfb6dB1U/t57xcmd0Y4H0A1mkDKLwh7xtTmqz/j600bjnL+TF5z2kquybHRftimy1Y2w75E462/4q+85Fn593qrSB8B/dOtwpe2lt1l7uC/DWxoN6f1O/+DRQFz9eYjSdAOzF5Jp3ueTFgquXRzVOVTT8eKaEPb7dvIM9/ajWcHkEqlVrCbwP+RH+j87ch4TYnf8az2GN4POqZd8krmTbvuEfC8JcroPWQwOEIbT+SLloqsUhKWqTT2Cpv+hh/kH61Cu6f5+C7+i0GsqcYeZXrgtgv2t5d2oJPrW2iz8q/QXiwUfnABPuBBDJcMr9nQuvxfvfqfGd/pDPd1iWztEPp1iesRQgla0xbQHVP6zbe4LyLgt52PakBQDUo4mZkFR3iHN7yKJL3rhAuNuXe3jCzmh8Esl5/2bOcbyB/zmU8hcqcB+oA+zfgo0R/K7t5SiPweNb1cfaZ5+7TGn4MQxhnpOCu6SVuaqIUBNI0hzUgqrmQ7EnVmQA4WUBBIjokmeYvJfoMyDlgNJAeiv7LCgWeTdQdfzG62X2Njm5UW9++DxcjX7IKkUbRf2EUECHX0LziXbvIbHAteuHk86A4D4/SVVKdHysqhVOE577gn7EX/wz1GKcmPMvXGiR+yBYfh5s4VJLM9tMA6YcIPXKFsayfq5KLbSdaED66dTJ0SRW4EvGUqvCY1IoK5xQqqSHd5vAaBIfMpgcLFPJ1OTfVsc5jabUZ/9vOnElrUMxPrwnmkOobqntNXax8mpq2/fEKU6AZjp4lfDJRpWqVqmWdA93MsrmA8mB4YWvKm3iWGYDwEz0goTUPGmATAvT15YYNeJLrt9Srj+NnckHmz4dINRoZEoaD6p1OraA0vOcXaywKvhmApeGXqAeyuzjrI6hzIlmZ/eS21Gw3YFMsFMmQVMr74CQtSfBndZSqzIJvCHzEVG1m3AdeakYg6fBlGFgbCCpG0SCfSWGxtozuunsZchjjXOADUq8VFzyY+jqN/ZzkYZhbH2DXOUxnwzXzK75ggTe/IoZMd37nj3/DMPCvK/kjLCgBafGMBiIm4cIh6WodCT/KX9+GmBPDMIxVZRidoGwxfPuTgNl+yhx9u9ZW6qnFdzJyjH+6rPfAy+XvE3EpQhIRrfZXwRLg221/AaweIM9HtMaTKqUEm6ipW9Y9M6M555lk+3LKWl62lqcC7eNODCaA4lVcQmZal6ItKRZ7y0R0h9o5gyDfYmIIDGk4RTwFm1+p339HsMfhPk2FMn1Hr6GHpV38FpzXkUP3i8U/WlS9Dyq3DmWg0dKYCPSZCoFOD2N9xavQsRNtQpmb1g6TMHUTOl/hy2myu3s9cMW5hFhalWlm1zOHA2wGGefViXOfe2qMEYlEgqdMLq3oqoaY3BMaXGjfaK5GYJ0VZJGBVV9oqR2IID5vhGRFGVPZz3AoKNrmAB2tSmN3VHEhOkrM8wrzi20IxoeTmKedgUC1DTH0YV7nWngYoD9ikMYomazbGQQRMaYgj8FWiBG1+Fxuf0/5XVH7keVFm4tQ56Jw+bVoDFjQP0/1CTKk8FWlgnzVhkh/lCPeF2p5MGzfLJyJSeGeQHFdeZLf1pXxGXZoYvbXOe5G8jR0m998p6OLuJDVAL58bXILlzx99MpcmKyp6+8sA2LLMvcf8AkzYjk6e6PvTaIY+TgS/I91XqS/hw3d0Nr1cjMiH4OWTk74Xor1IAVTXXxFx3YCKg9eFM59OWud2CtBmY46D7cbw1v57vdw4h6sUZTyCWvt26c8RkZ06YGNZeXbj8EypgB24j18+Q6CT8uK5DjZF9YC2syq8AggZ86zAzBMany4WugIHgtzyEsMPp+10xynqr/wO6DWH1nei8bF62ufnWb1QQIUxXFnLtLpUWmlom1fSAfUOMMvTL9Hg9dJsOLv6uQRvVZ1GuyEfD8uYPX96yc4zYtFKs9L8p3tbWWmwtvu6VCefVPdUqdN1XdEsljAd5hfe9zJy54sYX3juCE2KIWmsUxlM7gBtRwp9LhxR/XVD/2CTSDazxzZ6KW9CcqlAQTF5LzcwlVvpRDBg0tTyYB5k8Q3b3DfL2gVw/wJm/4HEKh7quq/QmpmKIrSJEJGfmPyKov9S0yPpRYnJ4jaPSk3v1d9e6Zqvw+wgqWk7oc0uGvkcZCpHge6+7su6ZdWRX/aXWEooOtVWafRI8VUxXazX9xdlZGOn/dJHNy46SMmAfMYA9URJcIH9q8vyG+KdHrVC+fSbJ00DAiGJOF7gkTBxB+nUD72W+gHY2glVx5VXxRfKvLES4MWCvGZbi5jnGQ1oMdJ3csNdlTPXEZDfTIzxf8VwDRqRvFlVbiY616BJ1R+aYjgcMYqjDc2j2cwtDd0uRTLq7lYdLZQDnM8+6DNAHmPpABvJcuu2COhIVfJGtxF2afBxe8iiRT2qTjLTiOeO8TIOYW9R1M9pckDT0F5n+19JzfKAMQVb6AQftlLPySfuboLrclhn42ShD/5/cyBAcYtUq7A31WCyoVkXm6mrJSwv4WcmNGs5of3xvwStNtmGUGpTa06Kc9kJfnLXfWUAaMkW/gLUtZirL4mczOe8u5hlpDjfZ637GQxHjDY65Yh5CR6McXjzUL23S5483TTOjXLxCSKnq/PvEEzcQJNfEocLhNnfZEsaT5QAS57JF10cHuBSGXPdbiRfyNTJn5mV9Eqw0CjEzF4rRBcm4gAG1j54xx4UvItM7drLUvnADxYV/Ee/mVrco4U5rRsz57iOoyEw8KMa6eFsHYZ1zVtoG2vvI6L/Jrwcq1zJuXbrcxPZaWwlpE67obHRaOUpgtYNomqQh0OEhhMO5zgkk4kykIYkDx02O1FpBJqF2KHfDSgGhIzhOuT0Tv9p9i8vYUgCvaI4H5h+/JRCzdVCbR5utsj8jz56kHS5nAnfcbe+3RiqSmpVr1DgK2Idco+sxJS/8taw83piQrBxkgSfCq89vDSetEz5Uw++JpSlgiXVD8SClGiP0oLS/41MwqZGF/Rjew1gWj8pKKxs49vTn6uUQrogcAW5RSApG7Y0LYS9xT97jrzuqwQeMvqqgN83M0J5/Mdaut+I3zm4g9DYkyfrQN45p5BK6lH8xRnKkDpkAwv61YHAPe1Im4vJ79NWUq/7Qx7SpzEFMTHjrqEp7AXalgwo1rtei0dEHuohP+ylYTSMpbTlvlrpHQyG6NknJv7veV0fKIgPaVPeBAIuaduy1whth/AiMVZhOS/NhAbFCCK0wO56JgGxrkENeA4YL2bDEyHFZ+YTLPFO9oDMVHSw/ThkAFhQTymPAYReN0zxSs/cI6AGQy5y7PHbOMzENwoSoR/7X2sxRcYcZzVa36HsrRKDAx1HSWU9Lpm4AlLBgA2SnG3nWkhQQCicZageFb/U7EU5uicLmp8Gbu7dEejb7fGn7fiUAwa6ib+yuxSY3cUpSPoKhse1mNeXcJVrjPptQ06QoK9RhaqnIQ237c3xsgsnumCyadGYxo2+mC3TjuMM+GQZFn5rZgeM7BqrV7KNMCa6ZsLl4schsyyeSZiyFPvIFE0GpX3o73DO310vQW3SxX557J2aNxD3a10B2F3OJEEQ17yxzXIAv8B4pyfCM52mn+q9WJmNKI8Z9+vu+LyYLjYsANkxm3gFG7RLirmLrZ3Dcl9Pelef38PyiKpBrDWj3prmauTyw9Slg6xsQ4LxFa6ZUVQhA/hOZtRAuJowu25KLaoJGvcHUtAkwmCNRXYGtt/alEqAaElEPiaWalCOjl1el+HFn77tu8M7tvDGu/nLC+7vu7OxLO22JjtmLieHcjXFzNgCdPgF5+fV7U6FoXYo9dkOfXa8GC62FOwOB0hzssyKz7bSV5W+ia/NenYYO8GfEZKrhV25xcL8sIlO5uOuXHcvwPDnXcA+dsx5YvlhS2A442g2Bixa+cPpCApqKjEZIINpDvzWtrfcHX7LxYqKeEOMJKSc+HfUx8+4ey1ZM2cGvN9MvU3kKDuJt77edLDjYokGjXs+f8M72bbb1rKBpEaKqqv6xILXqQnjCJQ+B1Zu9M6uOC6WPLdjuhVJXe5o/IWIvsHDUUfCWRpJ4Sg/Fi64fyUf25pe9WDE/Cv/jS5AYwbjyZsidjAlEwE5rB9pHOGngeCyfq1rUKAIPLKUYbFIErEvu2XWH/I5IPbP8KON/FCDfWE1DTHy7HNAf9L4gEVCblLM0QqIv8Q49ETMRdfxa03XCREHyhh85XxMvVMkEo8CoKEaICQDmHOM0ouZGddHD8yDI9TK4yjA8gCfwo7boQvcqQHolptuwKUi+KVBIIFlplHKRnbRQjO2uS/BGt3Pk2fj76XRGE9YdGPcrXk9C9+WA3ZJcvBS0Mdu/55Wcd/7/UJ3gceqFL5e9QGLZ1crsrFF/XKjYzDfql23zPdEqPkN+a66mgyJhXmFsJCLiDxaK8PIFPV2IrTsezNoXk0n8T3J4pIBB1eXDiAnfxQRSBHrSxOK4h8mxYqr13jmYcFsLsSUrJvunoAzi+tLf49gvOc7W/dMLN0URxen37yIwadHpYd2HBAs+ohpo5dh8xIy9HrotolKk9Mvf78ro04Lj3M1nA6nU/xAWSSktrSDRYkLWrzwdVU5AL2AIThS+LtuOzUtDlJc8d+hlT9ObmWGajAfxErkkwsv68jG/lMl5i9mrWctUEhaEkrlj0g+peoceuO1TqKBph1r413nlfxB++EWSeDuIQHvdlIbVjhC47YJwd8Wdd4FaV3+/eJ5N8sam0bDVRrlBBIgiOmrOM12GHD+O4fRezIKhQEqr3zZydXQ/TUMkE356JDoSthH4AFxAPFMcwdEk6COmTOW71NjaQ0/1kouYzrhWuWMSyyyUsQWkA1Nv/zb9CSmMUltzeYohIfHIAi05MCHfHUjwK9gOfvYSw1aeIM/JLiVLAxbD5aYRpZAWc7HezjhEWwp1LtDU6wx8LpKfknhtgytZPGhp0HdMJbN8TKm6pt2cuGpQsUbgyzFCpK+vY5lOXQaS/GxvjF1pm3f/KXBLW1d02wgglE7NMKgyMxXNIVq525F1KO8lNsKP5t2aWkJ+xDEDQD+7i+G0llX6gL2YsMUwEYmevq3O5DFGl54nKloq2sstx5oU39gE0byH3b9rrzciy0JVkItjG1VMdU6OTRgR0lz1gR0K1ENDatF4DYEyAFttbv/6De07AjBRCQKmeu4tcDVJjQVIFQkXMaKCHgQNwR9025upt6stgmrXl/pJAIQIDZKvOejAbipfbFMq1IApYBV26u3OZS6/WzvljyVk+bSUZ5xEHvIq6bAV3aSNHMjZqQOBC3vERZqQiWninzg59b1O8iliqcUY/xeEdPEUoV/E7lrNeiFOQEmjfQe05u9A3RcTBeq0VAodnaPQLA8v+5Y3MqTItYil+w7Y8cxf0fU1uBK/fZDSUvXcWXzURFpSqVHL6jEx/qAvF9QX/1c29x6vG2WOoa5RCS2Ba/SGzNmmwm3QrA+pAPfTWvvhkI6E0pbwgtQmXk3Qi5ok3x+eC0/i2OWcGFoyhFGmAUgPa2xrLIgr1fGt+YaLCUjBG0wF3/8FNHsrOKSpgJ7Zx3OvbDVDhVLPMwVgmAvKJ1LmRbxO2Y0mnHoiiPZgXFKPTBEvk/wSPZczFTlpdeyssxq7s7YWVidtpUD3SllDKAgiNE/xgB4ZtmxScrLx0ze5aGlR84ox2gdA71/uvO/YtVHYL0a3dXBcAJ+G35Hi/NYRjlfyNaqAGhh4KLLEXi+GtG5UCUoFbuEX9i8+HZIBwfkC1EdpEGfEXIsTR63c7oYymFviCTdlVK7ALNXQn9xpKzrJBa7+9SZAG4wdkxzk3sPJWXJYTn7uDWVOlJirmH+5cTyHckf3/5lUUTwNpmJCy77b8YmEIwRuALRRDD/FWyR2MuxWcKePMc2s/PEewdqomxXbGFJS6R3YzeYqjnzcfSQ8mpdG0j0jjc6Ey3ix4wWAapdxAifNFIgHpSEMlDgipZnWECDZ4BtOiqOsw9SaPd18iaFZGnFuLAgKlayUxojVPR21lniI3fFXKWR7R5rjV7DrNN991bg042SuuuLAtsjq7atLdbKsRAhoOwPY65AsSKhVfaVBsbhZ+aznqAYP4I3bf18xFkAGhZsT14djDIXJYUFixrfXh6v479HXs8lELDK5Alf43itawFLSu8HboD1zKmd4U1WBNV4GcFDn5TA5O55+Arislure/9DQ0+XGnG/e4v9AtYKwFVk6k9kAfSeWW4fIAWQZkFfEQUWMpj221HetKtwkzy61iKsQ2vsH/wQrOWBA8Ad8Q2G+HSLMTyj+xjXcbePZAregsPom0vJDA0Tvzjhe0F2VXsy5ChRlo+MKNj3IwjZo8giOlnEgiSd13sgbO31XzexHoC80YtzaI2lzjlLiuwibhqzsT8Jge0kZtPqTzC2fWQxCSw9l+rgDymt2NMoZ9+SZY/XPV18lkbh6is/Z6R4bF7VDllKIewycZwL9k1Sjt0adCQxWQQFAdLH3dX6BJJ2EqEdk3bEgxFVpbZAZSb6aLnORD+yoL2Ld2RIdOV0UY+G/rYDRFpkkw9Mb3S9ShIzKgb+Jnqs8lgtCnhXCUGPiHvp5ltVe1qKrtL18ixFfRG/ZI0x5OOi9e6XY4e5sqOadwvoiUoftcwPtXMbIfkiCdJ0OyVSY+XAYmAhLQB4mXALFt9He54A0I6Azm1OrTNgzJb6+scMhpad+oUznF3GuI6kwJ4y5aRMEz0cTiM20iu+4Y9/vCl/REWyFCyuJW3AQ/rlgV0MNgr7iuO1w76EuST3QBWSiiWQ/dWy1r11Otipcs7AyioPoMOJxLxuzVRHXk6kgbKWSOV1V0ELYVukeeuaiJ1I0NXbHi1lmWpum1wEsUbJs++aYFooj/nJbgO/dzsZ9s60V1OSyz2DBHyMkX4T0WyRf6qBmigq5YpGFAS4OF++2QOzDhZaegPoD26lUUphAFKkHCt6cvY7VZ5HnnffO332qeQQr8J7jeoHBShvvgo2IlB/nkr/c6w93LeW0OItITq1RpG6mxSdKXShbzzuNVQ6taZIBhGatJxfB4OQrjY+nEfwHUPDeNfDRIJmmpXUiJwXsFeWR9Ih3p4VkDJ3PuJsj+Q926JfigjlJO+W13lMOyJWXaXH+/TZgIxGHnXZbCtjRVqjs3fjDuvzVQ43tA8UQhlkZaiqcUVEIpv3QeG4hytRKSNpW1vWi4iqVix4qB8qW0TsZKeEsKm0I5LWhgzFviZ0VmB09iT6i/bY2a6JWLR/NzBq4uttZ6VWZN199IZxwEnn3DF7ZB3GNBO0ghM12Fmn39Ef5hw+sW/2aPE66+ZybQVWlpjrAUh+8Jfdb60EWugmYFpdhT5Pgkpvc08t8+JoNc1XIMwZsgaPdzp+0hWMZ47Letdqf+tK735IdUfdEiCeKsXDEgWtn4cfUVTqS9LPo95noTm4uBeTo3+KUmbLC5gGY6gIXxojAyJjrThmnUr3fIAvCVNLACvNuV+FDIIwOcBES0plb+2nc5K4w8/YCPiBtPBz1QMarylhx/0MHj6JcUBsym1JJcOJzV2GiWRdeIYGjbwa73S5jim4gPFuG+SHpdst2qmosKClFfWo26kTQMT6ylx/LNIi2cO/CrSox1C6xXN5mjLSaWKrUtzeKYn2W+2pvInmId/z/UR+GJzyhbWRZXpPxoxhA8Z7vlTVhaTrXaDq5dTZaCXQUpkH8zteulipU+efUBzoMuNNbh6wQH5MCPtZZsFH3UwZ5fmD2IidNUngAWqHb5dsOhgWzOTJMp5dayAqg5JbwaC8svjTcOUDnIrWeNe0VKKRD4FOi8l1MUWqEAeHA4wYbDjrqC8YAt61zYd+zFJWUywXOCbytaihjKWJCX/33EO32NtoqgQV+GSJqOZmkEHSXZIbq5F5qPTgorPNejJueA0zZr3Jdz6zv1xlYYBIUaTyrCbgWqAIBMQoeehK9E6dKuh6vu1QZNy4ww7MSJE9QcGOmB3xBkCX0sig0ZBvhmUi8xgh2XWFaaltZnvhiRsuxWRZCh0hB+UD0N2vwtihY56uhMrTEV892SocW4pSHdRB8oYk0KOgsHn1hqfXlRES3xeZa6UvkKPmrjWdvbBz/3TMls0eIWkBvaFDwxLoB80gMhOemXpV0m1b/X7OWMyVF1ftwF9SpMZhf3Nkz6hXlElwXeKV7ZNAGtabpkDWjBUj7rOumjUOOWfilarLnN2FVT0uCdxsLGyB+V4flm7AB0IhhBwb/SwKZUNqHP6QdxOqUfEVDWfAO7DOluCVv5rPqfw5SmX2UUnXY6TMRLb5k2RqTpoBDjPGAUmO4GalybrvtMSyFqmfh0JvYIkymhMcYAtrJhiPzFm9DgMIjSAG+G3tZEU+cyqcklfKp7SNfWPxNKbMzVBNlUhK/z6zHRIwq8QxcxO3BLxr/AGUehAuRd7LQX7TQP50YFh4dwVwn+XXHfk4W0Duvm4gDb+v7xR6fU+QJGVNvRszoZQGzFq7sgPai0pIAEIShg6zeOhlnSJh2/ZCAn+Ki6MlWOsK24gP+3Qj7yXjLEmEcF44CYATj7Hu5T6naKBMqp03VBpop8tDTLWZltlNLU8vWxeiNIqdZhv66H/PXNxfQHp7BAgWH/tt1yOXZMpm4aCro9TZHRCWDGVQUPOj0o7j6jrfFyrcBZOWNAP8cXnXc8gTvYdPQwvt7SMe0AiGaWybUmdInrtMDdbwMkfd+F7CaZQECAhmR8SG5Dbh54F4krFgc9074JBdBB54i+5AoNHb54AlPCHcL0pHCXOo3TPIukUjBqCCnBxNqFcuP+5Qk8cbSuOTM6CqiB9sy96ax5TojmhgGv0LyKjeHW3lXtgw3XE9A0NUd4QPtSJW1muBKt1+hsLRaqiB7NiprXzaLAf1tXmXcMjC7Ho3EIJWjuYUegBuE+7TG9mhjflSk5TpLg9Z22VCPj/nfShId7I2i2r9xgZ++Ijt2cetiSonm7kV2d6/qet5V0GjCDQ0HWwPzr/HnI1YiTJ2VWja1m+z2I1cvABnmMRQN6lAklP4D2XamrSW1dOOKuKY36Bi+jPkMnzAwCvD91O/H/L0uFYW/A3S1E9LEifoTUw7zoHp8F93Q72hr46We1XJeVu+qDPFc/nvHp2gPh2s/MVpXCn7wTMX4g2qHd9jpBa7IoD0BWWWhZv6UnVd8TtLQQBD1m4vqf+do1hs6ZLJvQI/Ur7aM4SR2JEi7WG+Wg06rKgquL3o7w+ePiVeH4i/rRwSv547FrAJf6FUUjx4izPuZIenyFS4T+BFL8KSUypxhmQsT0x96IH0E7xeH2l/9y1c0t/Gb2Os+3p72hpQTb1XumcA5otjCV+t7CBoD5yH3aj7865MsVTEEcdTvoBTDJ8xy6zswfYgZlgzglIj5xF5pyW/cnzKHg6JviYkeK1zbys7j4KfcRQxtiWp98/bz2OaW4LK76f0ETmrpiKpgPNZmpDIVDZXAoyiw/8UD7W5mpca6O+JddA2C09jMprzyO+r5ctGmYXRjEOUV2iMlGyjbf02IDqLZX343ZpKm8iKlBCPOfOQeaN/kdEGv2s2hEGVnlhhRHMdgZ3qxJ+Ox3pvg5bhbNJuGArWsQ/8I7oargqT+iZ1zcrYmFYACsUqrr/Jcj9ooN2pRknU35LKPWoN09DY0xNXZ5COObQzXF8afD8CoU+IenZAp6F7REOf82eWliUq5/xiZv1aFve4LN/vgLTcVXKCUSIQovUWF38Zs56a88V+sKJhhZc579deG+6GL3o3oZJN59aCbhJS0HdYnSC1XfXVoL0crU8SiRfboLtMAakWjeNvhAoOgxxWJ26sT2PfME5705xS262xrbbm+jTUS82imb1KjXsK1R5oCLVll7g9+Bgo6BpDtmVKQFcjC4MN0Udmn+hy4RBSYrVUyaH10m4UECbdzyTpINoyTu//Ear53Vuj9FiKpuK04ibYTzFOU2JuII7Dwo+6Io0C07A5qcDgF+wNyxkdroZq0UABXScS1C8gHjzw27mHqeS3CGuUmMvxN8smoU35Q69+HlsW3q6HovTOyw2CZLEgTVxmBafSQ4G3ptDaHv0XDO7Redj3Vuz1Joxy7mPocp19TS0gTGgIJhm6Oo/8BYUvAGoua09GmQ5bCF7LgjqggNIE6BUIP/pWluEetsf2Lo/Fj0sI4CGuIIjIs5PdgoDl9PccY42D+uC5BCt35hpaC4HmVItnZwl1PY8ztmlM4R+8nTh8+rghUv8HMRA1zFKTJjLb/uuvyj8ESPRTdwEnZ2IhlxIUycWXUUDrsr4Vsdb63jj7FOeZETWu4yxXAAQcR2wiegFjCgfx00KiqfbzaLtjxFM+2sjV/C9G5XNR+Vz6qdiI6562U2RiQbtAqODdSKRRT0eWN8yBf7R5aVoyVwLVT55n6SkigufcJV18rBzI2DXSMZfqt7lvaHYEf3M/zLWQ9Zo49V45yEUsZ83eaeUJNlG3RhEaYnqbdSUQOuEy3bMWjOd+s6XhSHP+kusUb0KB1ZLbYW5pc3hCn5254zh0EDEmRir8kVbvHGdm3jrhfGpYKQNQTaHucDWcsHD0mMKUD5EaBbKJBUC4mQ7Ut2BkBHRLd0cg1EKb99GD0dS5cghNTBzZGjvFMvaebDJQaum+HZaz726rxd3Y0ny9mJrDaEn/STFQlDyuQciljXGzwL1cy/hSXxNkGYvlFUbj7sqSHCKqiHC/Ef9rv0RTlblkrSpS6WDRLoi/Ur9Xqpq+sW1QNs83FdiL3YU9LwJZOhAPseaX96/YBR9j/u0ZCeP1E9QP65/caQP84fy8akjkOr1zYE2aKIVASMik7Jb4dmGERBkFNL6NGy9wyB5ALXACujldq8JWYN6vSTC6poHOrAIZFb9d2CFEuJLcwevT9rt4fLYm9qLJkjuBQxAdXSx5B/QCEIhZ57p2f1rJWyojlMa3IAAKCpaCLLsRIRuK3WIvFdmoSqKNgGETSjC7ltXs7As4N1hq3RV+d11pQ4gHJvCat1qXvJxdP+aVi6wHdYG3O72+Qj+m20EacOLDfWrYEgv5F9EAsR9QHsznfdzftjsKU/2SCSyU+QldiwaPtCqo1YhsNjozDE7a65lAms+eOY5REd/K08sHpjKF66YvZMBNh+Mc/pFKANI/B+CEifmy8+Em5Uqfz35DG8xzcA7P7TODQaIyk1RhaBVuP6A5ulGdXvzImGwRYaGzkzEFAF+OJ/j4L/Yh24IR36cGhriteA8jcdy/nvlgRyVADbbn9zuv9Upxcvj2wV2BPJwmJtMedEUzvE54Qkjy8cSb/3jwxnn1n4d7YvP4xkuyEG/a4C6KUwPW57bAoFPeYKc6k5pnNNzM72iQchEnwcd+I9HP7B4MXsG2sdlnYq2JR3vosBfH7rM2Y+jJ4JCIVfAmYDixmHNDRCGiiIiC8PDxizW9BCajVmkoguf26uCYiKM8jdWcZiZnZck0FEaErFfDYkJJ4VaMwpvbbkyJ9s1wURmtYtJfmOCKgby2aesrpnwNoD2xqPUU3QISdRMB8HcQwHeEPO+1P9VHirNEX4KXM/zUfXXGq+srhqYUfinLJ46+tywKicbaA9kY4K3TXobKQ8UKSEwgoNPLqIQYRgrL94sjrEdEozKuSLUyljP4zn56q1BLQvK9loNmxaRcJSJk0tMbWEpLKCCYa1y7dGuK1IRHQ2rbXpZo2zPQ9Fbt+Qp2woGUQ5DAWHpNvIZK9j03W3wjGDQstLb3gWLEI1DZEIPUgg+uXjv7GIfXegxso8iTjOKPopVYr0Ciw5gMDOMztO78K3QnPPpsMMM2OYzwP2/16swqjffv/xI3bAlNcEIkkkhOi39098erI2pvvxAAXZ8mJQS3XSM9rdLuf3/LX8a8ZhtFQaQMgIg0k8sdp8R3T+R9WiEljo+YB+gnPJ9q9v+cJzLKlwWtqLaB4XzptzotPfW454CRtiGjP0X6lhBxyPXSKzXG8xtfq/Ysx2+SAJhRSyILqhbgxu5ynopRFb+rmiMEEtakF5UvALSorOaWw9HjhahSbsfrWp1zzbj7yi6i2V/ldeg8IcaF83tAqoMayICQLvd0RN0m+AQWLK4g/FYzu9j63HRaJyCmu0SZHwdPLFSyUYTGkRCqpbQNWm5tRcNGusF9tVXbeD2LmrrHgEvcP7ncmhrsV9ibAbLRxs2uNjGkyqL5cFS+g54YaKuF9LbplVrQmim/ZLg2oIY8j901jdREFNbJf+egiy1iR7aLufWCNnO8YyaXXC+BYsJzZzLWyEoQXJi5bnrx3gpz+Hj1ZU8xU224T6YNhn4Im38IcAZO4iZMyTZ1tlNIK8fqYdEToyY8bPkmkcIpM1+usNYbG28tAwAh6tlMQhs114KQ51uEYOtxgv/Hctwv1xTp1WRdRt2ZBd3zj7TkFzC7v8YHDUTmB59M1PtUErC8EEy51rZURwYZGtU0C24DLkzg0+Bx1MdO7+7ymzMUOFEiaUXzdQd3CMoOjW0RbgWycy0oIHCzYIuJqNlF5n90yUySD6Xn/2+GPLtnQAA9cqf3QALTmrfVE38YJy1sfOZEo3TabUsibjUOiwY4l25oFtNwV5Q5Wry9FMOj0XpdHtaJmQo8DutZMIkHkfsuZxccyWmbhg3YGnVChW2vQjU++A1xzysId2B7YYy0Cmb2ySYvVUVFR2of6bN/38gZ8/Ld86URKsrzDJsFs+1ZavJ9Gr3lGISDZxdklt/7bGSRRF677vYyxyUp3Z9IskR+v3cqS94BbSQJ80NGe4ycAx/1asAUGTGr2dterUkgmLH6c6Jbn2wGBVmDjX8Z0AKi7jojKO0nYZtdVQuO8PD5S41gCop6203zDugF1MZyG5GTvdbKADrdcipg+kU25xRE82bsVqyl+/kuFYb+fbLp0Jl+A5GBdKgc54Aw20TlDdytFlHtCcOb0pvXZXyT+wRN3FK5bPeDSUsSNzMew26YOmjlJRcfjiseS50pxiaYMCf0RugFuy/XaHYDxW/ixLhOn9siiyL/Cc18oAebFcHK8mN2a2ks9Au01u6PqUdQ1Fwht84iMrCAUBnzuwZI/8ZL4IMLQdlr4FKdtx5u5ZKioGCr7mLWYDAJuIpERh6lMhRrJEdqmgjXsm6ZNauHCqdRAv3EFVTpljcC0Ics5HyFpueN5Rt+HmVeW3JGrYuq/zfmdDn2guEBGYtorPaCo4Nogb++vc5bMnuP5EXwTVfDcz/wovUf39WjDmI47v00XldLCezKeAMe+HizxCUxB3i91o2Zd0h4boOHd+nPFSpcsJHaXW34TWPNtykmkkygwd4Gn0jAvnCLwtj8DUUJOHY5PuugPgPpKnoJ6uxINoENaA0Kj56/GlmYBmoaNKyj5GxWLETHNtd7h1uAYuYba0fVXPUq7AAJpmMpQNLGvksNcJzgRou9RzohLkDbCH3sKjZjK2549djorJFIaEx2ck/KuBcXep70MhmNtcg5CGjrcBxCKoJW4HU7YkoBAEquCqM9ANixygP2y4ettORRd0/T7o7z5sJN4dsU+hv6c3Pa6PHc8cR8nmSBMf5FA+41hHiIVaRSSfSTSGQd6TYhkWlvGrIyaxz0HzX8fsaI2xgvzydvxDqlTPmX3WF8YGP7Oifx5ncNBuBaihgOTPEeGQNthLJZjYe7+MeDiwzmlNcDwtvMy721xY3d9Iif4TE288qQM2IsQlFM4Yax2oSUV0EVTV3LcAoEgiFTJn7+k3NnOZ30GV6BnbCYDkQSWOizVAls2d0n7Th8viBa81QvYxurgfxYoWo8eR4AW6c9fGSK3L8VRNjtv3RwUSCwXrSbQa/DHOb21Pa0KjzsPLEKpwpG7fWfEOHS0R6Qab66bJDYIF6hl46E9nnC5kAlcqRKJvVG0E08p+WIskpvb37fSn8ac2jSuIESojR7LOFRe9yJtJee3exevovoz5zG72r9sRVohlauZ38O7mf9t8kMe9NiGrLw4qLwUW66qdBtHnA3e2HoOPdbLrA0gsAXMOKixKcdNsX+IeoSTfC3cWN6fwOuFBZ31jI6InWdpRbemWZ5xjwCd67sJWHKPecEkdduRQb65qYLaLBbg2bDe13cJpEpN6VJICWWPq4Xza48S9pO67nwVdXo7nZlz+rgta2PUY5y4JTN1eJgPNSkucngGo9fa5no3UJrRLEj6N/iU3M/2+m783YF0ju8jLXBRHAL1xaeGpA/7o5T8n0cnAdVe5hRhuZSzPFAkTSWI+8pLCNAJlXxlw5LX+ZO3wQGfjTuNiVN1TZ18iJ365lDQTL3IIXswdBpDQx/jHhUI9TJrz+vYzRYqBk7KTHJdCwOUtwDEVcZHF5ekaxAOQvyC4uquL5cPgFl75b9A7DI/WJng7Mdtp1QTmjWLpNczyjZyR14kS+aohawLY/+zypMdNrblHOOpCkVfM9BfuE/fFcOUZXS35o5lvRq5HcWgKkxbLjCxf2rwIDlzbUmTuq1K+sQpM9E+QPBxoZuLuGp4VcRp663Kstqsy9S7TTtH9Wx38I4UAY+zmDp5W1I+O/xJKG2H7MqvOiLTKmoEm32ch6cDv5DGS5nVfmEW7Vd3YCNVL9lHAGZIlKztJ4sGi9RqMh3uyOkinoaYORM4fls6fsypJYbfGtHXbPmWoOaiyew/9SY+6Huy8RewSaqlkDIdz8eSK8L8u/MY2w4PxyarkQgAtGJeqt7Clhto/KqmKzpMRUfFuq7h7azh2GoPHMnhOVWAcr4fHvYrLGHzkr9DV1voriqdck1WyNEfTdNrBB0jVZllIkun89jG29dhdwdLV6gL81SMsJw+1/VWbrdRPq/eq+QqkBhjuRSkXmlYd6BzVli6cRIQO1OpkytT6tTyXXUZQjTx4diCnkLY81BFTs104KALE9oYR8UZkn295mCQo+lm47R+Het1FknZtuGkpwl418d+PwzJzNh9gBF9PFh5054TzxMinQtDfMJMKcnn+tGdNcVN7TKHQQXkcRWKLBTJwsIyrqaX6xZApW84PmCOoF4qZPC2vee1q9i/Pj/rkYjQtC07bl3xhnCe3fZRyAVeP9r7UIhADM65xhdTGXm3IGPc+nkipkKPkw94hVmdA7GuUXSsaTFFBmrnvXrr5rzVUjGWpYbANjJ3/BkQkI1dDIlV32xnSh2mcFyC0sNxOqZgrShDUX9kPtR+13K6B4KN6SD8UngdsLCxZZ1KLTlTqwiAt7BOqQDfLugYCldhrMD27wX9uuZfb6MFxidgWwqpeEjFygIyNtWvEbf+7uatb7y+XYzq4QoE8sgbMqlft5m6CSttnGgLrMsn+SfbXp/JkEnse8RlvdWlXKIFk8igcujpIXa8+8nv+hYIIG89Qev6XkJwrQ1szQkKFWZaxXY4FBY6yAqAzPjOinTWi3HWAxJUKLwbBYkBG0GaXMynLsrpS+Sjh5LE1PmSXtiUcNbaaPShNccuaLUa/ucNj0cpetZumyyl7OyXEGZdbEDkABtLggZrOH5RNKRBVg7Ag4vvpBwBml8ivwc2Atbp0OPr36FvO5gY2jHBZ5FuPVth9Cy8J84SdRe5rgBgQky0g7is3Z39jwZhfR71S6MTXomd1AzKqvdFMvLHXbmBbbFEGSxMAIITUPPkYFvWCDSLpw6vgSQ6ZwkWtvplE7RooL6IAuIZjvXsI+2P6fxyK/DVAJp0jV9xcujZ80wdOYRMpDemUMHsRjY796nHUJwAinOeUO6WRWjz1gUmsxNrELY/vLFjk39xPqvZqrjdjg6/J/+d7KSM+M2epAcg1i8CsVUDyFqKnHcBkIrGYQglRWIQlEHtF4QMmEvTvEWFUPyg2khhljQ0yLHi1CDivCxOyz5U3OixF8Z1sj/vIO1Uq1DKRWhu+xpcNcKL3c5S09h0J/xSCtRiqdgCUDWSN2+08lrpTn2dchyJsAXDMRYRJY0BFAPmcCwqrimoQvkaj2gkoWVcHDlpm+9Uk2gnAbCDNGZJvuwRkNZKM6aw8X+u+lRxIY16xTBmf43R/L0t/4/qkzW2+ItFzLDIDai44ucUF7fHWfNH83zkGuEdOIrMDLRIC50lz2IiOc2kzVjUBkhgvlOrsLi8NZhmuC2fz8S2VLLIYXE5DCDCoTBg5uwHvLCfvTqE6ajDOKJ227j1k/LcxFZVgetfTEolYVXGamYegSBbWlIAcKPuDyLNI1RQk3yRtwE5EwfD1oFDB48wmBdh4xMerTiZU5XQlArIPIxeWhUmQD4G/V49+A+C3sJGKARrVwTLbLvXY7YorzVBIp2Xcp9XSLHMmO/Xz4mXK0TGCy8ggiB9600s3Vym7plVIcoKvuYz2Gz5XLINglFSEb70vBIu0EpgnUVTqlvPo7W6yeaPoXGlxQ6gPEEP7Fnw37sYYem2R7/lky3ieymXDTBByjbSUecwKSV363uw+n5nE0k2oxJxOuVKgdVuC1jcMKK1Z7KpRTgnjQ2ha/HBL0T8gLOW86HSTZlobTBnGBpPQ99GlobEGAalOGesGNi/JWY75j0+5BLxSuduvO81rY7DO1azaU5vONMI3cMAjBL+FgEHQqHq9TAc2PgO4O+8RyXG2v/wzj/mlZPBG/ikhRbrj/DH+hrCExc7i73rvbO9n/VAjOTyb4QTPV6BMPCtUKuNX4ypES1edxOZ/enubygkclh/R9xTXn2LgVaneRzsZk/PWVKeZmnbavse2+ILTHI4O9YNaewiGvtukDWRSpFQ+frvFiuzxywxaYP7Sg/uuN6XjQW/YuxrQLjXum7LdSiARBiMscwI/FYkraJkcUW634+uSmQgxIbJJruFqyLTRQl7mK+NiUfvArFoOaEbc8NbSs3gc9pjsflwVYMTltvIajJ5oFuRsaSBtcEBWKxzlKAafI3AP2Id5GavSN335ZdEn6qkA87ybdK82brR/oJR/zOUe0H4sm0lVDwQP3S9OrWFO5iEjBgVHCEX15qniGHWpTpBeKzkGYwkEFJo8EdMN5AqTTKgudU+TO6JYvjS0HkrzVeaYz47ADYqdmTqVyA/nmq0E+1pYtvXGI0dd2BWqsslA8ZTQsQCPnzdbtK3/heAUs7INGaccUqbXiGcmGl2gYn5ci25+pz2sjQkoscQV6Iufe2dprhwbCXr2ZvexFT6CvK276pZ4jmt1qZK0GXhE3cIRy7wQKyK1r65Qw64BzVK510hpvB3IfnteY/pKA3sCl3+HNlupXaQWN+CUSfkikh0xP+HFKt3AU+/RQxrKAgHkn+YMsyMW3JdA0OKalIWSOoupvrffFP7CZrTZ0MupCj/wIM+Fugog7B4WZwz5NAot5Crh//tCyksC0qeK8YyxqRUsHofpRsmv7AdxqA4/JQy8gmNFmBH2JR7f4zSiI/1Y4N/b6uxpa/IouseVJqL0gRCyA1vMZY+YYC4f9utemvKjm7/6iPpuaUyLxmLlkJ6CunD9CEG3ymXMQ5mPe5XCE4ve/UwNpQtSMsUrtZrH7xUdWrIX0nr6MYODvjdUoLypI2Mvk6YYjdlGhieSONs69EWrFsqc2Lnig2cuL2gJDwii0vq84f1CgbV2B3JBF/oExirTNPVyv2/k0hZOE1gEnPgbhmC/C9sr3bkMeVgecU4xJMGM2nju7qVRQWS61YhWBqInHhP4H49wczBG52jy2iAlwKE992cDM1ItggS+vla9ZJEOpSS3/8A7JnQ+JUlsabv+mbP+gSoC0bEAoYDW/kbUUDh9a1itc4Gk++cvShNM2BYpZEzXNcsY5Hi71DBl9yFCp/vdgEIyDy84MCgltqBz4d2CfjcvPKvoLkFau2DmBTdZygqZGlbrgm5WCxX11mB5oFrfJuMbbrKoUsFWiC0Ha3R+LKgG2CVUG2oIVy00D88ZvwedVNq3/7Zcv0doqgf0mDybQHggd8R7SuDMTMKVmfavBpaDSEXKwuWHt9Iq9kcCyWg/RjKO0wfyw2GI7GFenIpCl1aaOCcypfAi/HExTVN0Ru66mBRFbNejI4F9SgocLMXpSMx/6oH61gP6TSUyjat2s6Y2UWr00x7wvYsSuUvODM39yQ9Eg8fgUuwqH6y/esvCzobQUyKr2MzjhDlCCM7Gr52VM4R/7POGFEQQvg5WmUqtN+Cw9DnZvAM8BewB+GWnoGCYM7KzVCLwJJ3qKFTIoFi2kyIAXkjU6zLvPWIiMZQI+Gm6pV4nh57OduKQ0f52fJSumfEXwBw3RGwPH4DGYsrLmpVr6djJbNundw1Gc5+/hxe3/fFF/kjpW5i62xUtdlAFbOhz18Zst/yZV74wxdW93IZS3zsNiExNlL+KxiavJde3LCEM+v2Yq9vyYsBBdpA3P8X9jm8xmzc7a2tAtJe5xPA9QxQRvskbADFzh8lfr1KOU7qe3NmY1YhhBP5hAQuLS2QAlJbiTjNzQhTKUhpju7wpPRqBW88bopQ5VqK4LwjPJsU0ArPe2onHY81hb5Iu4PgABahoFdwjEka5otVmkLVCUaaysXg6zV9pCV/BlKUg4qvMYGIsRHhTs428KbigqYv0Z33C/z0GEnAMuEpafh8rGBTxdzpvOTTM1TEE/b+qmtYXEz8sFGqMgSTdrfk4e3NqdFNdpdT6gh6euP/t9JkHSpiIJ6/nFD07Cv0eQuy4SfziId84TFonod1Y1cJGSU2/hVVO8MVUJCCAKK9ygb/Erznvo1n+cfH2sFQhKMLJXSZlZLCRZmZh4FO8kRSiqQcitJHgNqdn/tWTo6vUoWWq2SWau/rRbgtP83ku50xHz/cnx+7BTs3+TIaBi+kvAfTX0H7x5pPjEnKHgYj13OsNQpHgYWADHmY7hDF9rtoflobnBTdrrVcb+Pzi5TlNagaitB3hO6dSfquoiB7PoGnuVh1WPWloPjOCtv2Hs7OHi2Jfzf3IOldjy0exuRwA0unVS5fq8hQN3Zl1zXzDlr9zQM0Purk7QYM0xrlpCRQc8Ngl7rtC8nZEXHFPoPgCjhu0YMTkyMPHjOOLutZd/OxqgFwEmMyAHwLXbg3R+glq4I6264sIcScWeXi1+WAYsGBIAMPTFQo4Cz6KDS6yoQR6mfcWdRGxLL4KmW40YJCQ3IJpJeIbzbbPu+k1Ah+vTIIjM+1YUcn9FspdVdI6uT0DABGXq6ELz8X9H4k7ngD51I35rScBUAHlNEKKKZN78JLRGVeA+fBF1XsuSslob1MhffWdA5mocSQ9NMQKkeUmlHEHUG3OJ4FYtpX2+xWl4OVa8Z0tcJkk0F2u5FVwYUrcPtvuJGe+i0UHFJ7n5AY0A7/PDy7vyVf3thfO0UfPge4NR2bPUlahacFVBmJ6uH4/vSBt6Mzp/UZKj9atykZ1vQVrlJZApVSrn1RZCy3cgHAwZvNOHc5kKI3QTWV8CEjNO5wg4hzN10aGOOKVxCkDep7sjvY6SEcZGwBPC5vv9BJNFrsd+8qYpue0/mC6zVsx68GJ/tp4qlN6Sd2WykCBcaigXNAjOuQ8Sw8wtqpxOPnffUCwKuGlcUWyABZ5t8+puPq0u9Hbsl1HRzRT2j/7E7GhF2W2CSVuywgLQj0ABx8D/OJA1Xy5BNlhgHtXwVn2HWWEmOsr1MbvKdyBX2S2T8FOL/XyZQUexhl1U+bcZ8Ui4Bss37ZbkH2nAtquaxBdlKd0KtTvB46FVzomwGvoIBuD7Bmbo1wwn7Sj3Zw9Z9DxHPyISFOiA7gSbLdhJDRVfNGzve9nokJ3e7AaCN0SGluEhvxdODtkyZ/R0HTJ0bca0XCHMlO7OkOB2hXoDbtFWK1jR6p/yq2kW8mbbVPiTTgkSK+ucjp+Oe/Bhx+lM2VeVmc6SdRpf69mDiRLW5mcJ3AI6uiVwC2pwX9C/fvHLbcg8rFDvgc6jo58unR16Bt9R8D/qkfYvxjbFdGWYcBNmCw3Zk8SjdUIy4q7hjGphBbhZizsRkFFFXPsejqkZ5ZkKU6XDdkU0NoA/xVRViE6+RNS8LiBEV9hhXW3y3IQgZr0GwtnPzvTFv3STL+UypgEcxoBPDodJNBgfvTnClttNokwp24uVst+nBzsjjKGAi88Z9/UhXFkZEehy+X1w5ahhKgexmHw8fFAIYKFe4a2AmRltRyRIVJ6+l4+BWliQQHBtFKC1ThL7SwRCxWQw1zIQ6AMA9VMg+4Gd4UImz3eUMF+ZZrA5pDPJPY6snxma061X9R8oFNyOdT2zy6v4hzlMqHhFvHOfE5YOhGJtYsHPnSbX89iHgwZJXFJUn6gDia+6K3YAbWEY6xI/lhm6iG1hc7Aopd94I/gd6mHk8xcHe+aEfKME9bsKYqGeu4I9P/Xey44Kiu/hUAFq9ca/Qog/8N94nBT25tyfTI2Hyrl8wIbhIdNWrLbd0i8Pf9Bpw/Xhd/rzXLuRmblflH7vXZoeWW9DyqNyDLspl+zs72bIhyh/UFNktoyrFY1I44PNrYXqimj/ondGwcCCZl/pDG8H1VdO3Wotvp26or+acybpDc2opOgxqfHop4B2tVa0qr3WK1b7xsq20GwzezRqV0bok/U+7Y8LhC0gg4lCu5ShlnRst4Fu4zfbPUztCa8rmyH9MXpwphME41N6nr1ze3bXCrNJrbZek+UgS3PaCTwJOWwCogfKuNjnqqR9l130EVQ6YUs4JARGB3L2u8qQApQaCN5y/aoMVI9wPVDRicnZplQb2V29yaEVGk7WVPY0Dbh/iLiBIpbF6ONEVx7D7r8n+RPf1UaeqDd9XCj7saO0a71mKDLkgI70ScoBZpUs8FDfvLnPbGNMvmCSaTxGj/jUfoGGorzFmA+LsCj0x5w5Ht6TEYgLvqXP3cEy8QhIFejtn4mDUSbCpL7l/zzcut+6dl+dc5cIgnSc/3lZfkMpJErPgwv3m4G64+rh69zy//o3gzhsQXuIcqQpnoROy9Gb8m0FWdnsx+R+AjUciM3mGTQvc5heaafyEbRhSX1qySp2klIWenM+7MBBGxVLH3iaUwTa1noRcQAlF0MtLJyfKutSdKlKBxgaPlP70bPdQo23wo5xQ0r0xVHBpbnjkH7ngJ811UPbL9L4Kk7sstNFRWQmZTITrCdU/yGI2uFFiK31fUf05TkTqrlUfzYSlkCPxE2GJu65yj8kJ6B4Ab4m88Uelmk9qeJPzlD/lv6dkjRTpc+JM0thIA4hruubUXFrq7WLwV9uSrEIgi+ZxWEwjA/okm0IuKTapnqIqTh16lccW3I+h/QUevVE+QiFsdV2qyRtk6Dcy99gKwE7kkPwZXhd7LVWaidQIdeTxov+QaA6+f/H5eouXH1lRejVRSYs8Vk+nq16RnOfOIsYCsJ09gJ1b1LyCUmUYYpc7Y1ODZNB/rNzJHRY6Hu7HBI8TkGtZAs9tbzCC3MrM8WD/eULxWtQlZaJjQTQ0lM37PyI0EqU69TFPZ8OQ7CRjPvms+abw2f7ZgucYvCQGhGp1lytWvkRBOXhQ64wH+fcACbtu1gOtlUMT4mVBKe7QyRSZPOlNGv+Iz4S+F4rPYRtVJQ61giG6MH/98Dt78ipOPaRXTC8UhM/Odp0VENsOhKTrXQREUdwnt1JF2xXUPqU7tZOweR3yrZH1hPUqAyF0gC0L7x6p7VtEEO831fT7pn/dxZIGLbtqV5YRn/Hjkm6PhEj8jNbn99ts8awjdfBn+wQDXZT8YOpjV9s2ZxOvi4df91O3etoZ+d+/J4lD3gAG9dzDjilvG2bTxQX0fAxwUvbhG0zz+dbtUGAmNz1mFP9V7W+xQwzlhs+5ccoDYFDnJDYVmPhRMvhOjim8bkQ5qoZ0AfR7bDvkLOIhMYxL1jLqx6rzWxDKRf9BKYwjwqKAVhdV8ADt3KF+SSUMCN5Oy/uEiQqINE8Lc1U2oru8NsTDbHRJlKnpry/ivGURDAYHtaVkCWRFID5ign8VqjMXk3f2YWeKwWugUaxwZp9OqhFce8C8wsOYvNSesw8mbo6njIfPOpf2RUOy5JMEMdA7WXwUCn5xpE0oCQzFAwHNK9EGJ0dQwcucjtYnYxpQfSc2jBUbv2+pWMVw1LCY3rm6Mlpm43C+dZdZyzwSXLei2+taePo22eDc0Zw2kpJR9Uac+xkUcdljrWGWaNngoTBWzlbyZAnIziPYhHsUSMaFTfvYrxi5SrveV5mMw1mu9NozZFlskOf5YhENEJO7Xml2JGNFxS5rq2k8if56GnOtw0KzSWCHF7hgUIvIX8fFaziqosFaOZ+0SHH8z2VmeCD1W7UVxGbwqB1cx8hpkUEGx69p7IFj6auv6PedGPteqxzyLb5tzQZ00qxtYL71VfyL6W3dOH4Lbg7BT8CTKtTD3W4lJRDnaFM3/SHmhIONZkDPES8euXCshhc4VFmRT+s1moddoy135JuJax1B0SAW3DzYBA132C4ife/egs0tEFN/N/qWjkHizKG9eaSrptNM4Y5nv3j5GQMWskcgeb/GnnIoly4yRCoNXMh+thZ2bmz3uO94stv0A0QW80Svor+3vz4TOgjpH78hXLibflADr2Xegse1UG7uWuugI40Ccuyy6r87BnU5FAFPwxojcC1Ciw/xuqU4dMsUrK57+2gVrvmuQDMfKcUf3ceIlKmJy6rDNZM11vZQ1ua8YsO0yh6cw9jHaPC9szpxpxjlejpn2Pty8imHOIrZal+Zk5KUmM+CfZ6CUsqvRkDWzTLw3UDyO/Iq9sEykgG2beJSkutkvS9lYk55HeqxUqjicbUexlG4YNsckScZIX/Pm5N5pcJzKLIumgyCJjQaYFa0HMgEGtp2rapwGIbYEAWoKSJvNTGHaQWo69kpqTjQyFm2X7jppl9AdGagpJCtKPS0Y+yQOw04R0f1l3TGhIJsR+X4XlPfaLr2E5Qn+HFLR1Z8S+GdijWc2KZDJnzNlcoKzR666IZ37DXAgqZrCdEeCNORdm1fcO3c8EV4YbUzrBYaqIKoZBdg9G3by3YkgTtQIIKDBkGF3jAS5mU4Udoe8UmEjniHTqmul57+J0YlizV0lVm+BdNfJt2PDhDui/TwEyV+3Lj+WUFRsXXsXUkvaDDmENwI5PHdW3BKQzSSl22NwKPRVQndxpRFOXOMNF1rZnI25o08ohGDTflJPY3Or+adUYDAKisPXd/tIzddV7IZJkS0ZkuCxJBnmpWHdHAuGLPRQJSysw9X281NjTmjFxnGLC2eQwCSIxHlJqwJeCMXS96mseFOBQapkmVdJDT6n77K6tu8zRjksiH8DXe9NxDngc/jM7sflqFdiAgnq4VKQUAo6k6vcPOrKkzAHAOzURwwKGFkYbPaOhbLCsWmJGC41O80XXq8D7sBWF90KO9tyyBpmj9zc2YjiwBjv3/e4xBTGbXVNsmmio2VE5IOyOSyo2M6hgFQV20O+QrwyGi3WIxd1tzBWIht9NftQVqgsGS0+XrGkIXbDBJSLybgp8ZvntCbYSh2Xz9D1280bRiYU9MLv/NhOFNrB9uLO5K7OU73hduGKOs5innKi49lgZOADvrNf065GrV4nG3xnENhMqZ5JgZrpbz9cauClhiwmfNRzXLbGf9BL5cilSDc1iaf0ct4E3CulbhlWiZbCGnkkEOjJp18HeWmKbWsgX6H3uNjkdVkFP591ctr/HmWeCctfChe3HWU37h8+XXrhbRAhaPM24B1YDJ0/wEjSnCYjHew3XbEkpsbns7QVmVhF5Os/LvMVaaeKBGyy6Lj/5oIW3c6JDvSJvhx1zKNvrfMgQzVdgGD0dSLbMDC+Ae1WY6iEiZ994VVQJzTvH2HUU+Rc174yE78bFDZJKvB1nlbPcqscqq4E8si9kQ1k1XWz/mi37NSQ5uTwINomv2J0UyIbucA2/FNlXzSU1haD7SluL0DdL37ZJCZ13metR9PMfUfoI/eRmaD+tEV5oIbhd8mTzAW/aHybt2q2QtRc97Nzcb8mzSiZ8KWBoxZNqMuun5DjHAVfk4skgpM3Oe9PCw0zjZ+jGp1rkwQBajalbl4hoGyQ2/VxX/PAySrImQeG0sHvxgKDOKI7KK7FKbjgxw3M4fhsxEuUkrYiDDf3CEZWSYcJs4OjNOdgunfsbRCf2u+liZ9CFpq5qWgms0tMOh4j5dsMqtUYjKAt8KR/SnTC5VpO5NaNWBvlAbgUV0Zi8ea4yh3a02pPufOfs0+grYXI0VqIS6Gk2E95qMVq4WqFpRfTpmf+ML291DITK4t/CbwAQrbDFzSo9hAmRI+RJuObHOM8vAA/UqLtonLdRPvzos4CaTr1VL53TMG9OsMHXfKZGMylrKFaeAs1Wjc0MI+OuynXegAQhcggnBu/+YZY8f75ZnTw569cFDvacyVnD/BXK6MhbyyXGiI/Dl7DZqeeGZZDbBwby3LtpZ3P6rikZfx2Tl5ZZnUUjcH4EjFjLSmzK7Ra4zW8+XSg1vb7NJJXR28suh0Ss8sA3Ua5UTqk+ZKYdkIhPhLno8Yw4qkPG/Y65JQaajVE5kL+X+ai2741em+61XoX+1c9pilWrlH4X40iqsys9Pkrd5+aKeTi30rr/X12mWFzHoEO8Pgt9SNQCAbwfDXAJP/jCAev4HfHhGluweCJczUa1OZnDEDFKvaSA+zgGeLM21kL/AE4038wPrJth6iLHLxEvfXWVCFvi5MZ0zIcQI3ZXOtknmyGtK09sPZRvFhfUnNNneUSvj2lHyGs3emm2SUj1SaVDF74NB2/NA161AvuATYescM/zujZBgFf1d1bkmv31RAjNuCWIop14f8d6Qy0OTa8CDzldoKPKeKf2nLDI85cLBIZNNwqo127EVHNEF1bHonzynLFmm/y2B5THkoO5pLyraD1+3EOXWv0dDp1CzI+vG7uW27gEjm5b775zt6L+wyOecFkfOSM83taBLAkQ5qeH8gw6PxtCzDFcbsrjfVK4CM1mJLFHCYkBWyM2hStP/uTTjlq0S9f7PRXFbmt+G0jWNMjvAk7PputGmrTaVqyFYX8X8tYTywTjUK14Y9xOfsvhC7ucjBpymHZuA7AYobijYDfJYp2JlNie9W0Oqggk9th8ttYdp39bzE/bZhKn/tYHtrPSwCkSytAqT8KS5sbreQ6ODuMsdAGDDaTJ8/f4/UiiUme9SxeVWlGMZxTC2MPNKX5hmSBQPIASRAJkHUPkTyIEPrrGf9+cH3CAg6qlhETSn5lzpoK60TgxjXiZETj/eZnBKKSZN72j70yVJKJJ5pSYez0g+tvUappmbUZ9ducYs3zx1G2Z1hTWKjw6KMrCKehKu/gOjqnLe6UHPxwFRtJd4c+P6t9lcqDer7j9rw0EXI4PeA4ab/VvwdioE8+j2odgBVaQkpq7yXcamqvecogaURiFSw4xNcgK6KwRU9h4joKDuh+FRvZmQdIBJQLF+5n8PtIJ5qzenx5NkwOTOgMnidJFt3xbJ4K9WIt3e3KsSt3+Gr1tvP3OQbOtmw76iyiMKvJWZwm0YrnGOl5CkflGA49c45YtDw/hoBFiWAFBNihC16lq1XygSNjlpFunnr9PSsYIfoW5TNO/0K6zZFtswC0IasRU+kiHppqwHAYqMuTHt6iVjRJchbHFquxI2NA8UE5CfgR6uVfI+REsKae2wncEzi8TAnahFRrvj7++S7b49GHPxMbLP+rqyIQK8OKMun75mUfGVwZfpjML9oFqvoWY3zKNdXdU4e+dFbFWyAsJmab9WR9F1Z+EdIBkKmSwgTg77F33srWGMFo2EbH3CRKKkHvJKB/jwYFtncd8ciToJCaWnKyUCl5GytmfLb3Dnvv7NsSRTZDdUBhxWiTPog+5zfLTQlz9DtrMdX2Iw91K69IXjZXgz5+YMF+Owa7C4Nl5cFOBNeIqxJYC7pShi3kWFsI/NkCiJr5RG9qFosbkA4MJrn1O3iGz2fYkeiHYU5xGSrA4uIY3elTvyKADWl05B9hwOi9zu982awD2FJEPWktQJlF3pqGpekF67uxm3PT2ZnnFuS54NTzDaoVMxTHPiMkvYothvdjnR4eo1hY1vXPEd30xpStU24buFKoFVzu+GjfrSipkDFva3+QbF8VECH0oDiIUKjkLpxXJATWN7iKeWrYkx5JSQkLzr18OGogsvbF51sHBrphzytvFnE9+L/zrcIY1hyfUoTpDkz3lnELfknito0Cyk9JfztB/3vQILdxa6Pfy/pv/rM+pK+bk77+WTB7L2FMs4C5kCZFErAFCo0lT2eTC8f6RRXVGbAEFZj3nVVBsD0fkdYgDwkAKEZNZqA7ViUmAibRlzPL0+dQeWxVKbkBN5fwINRhtfylWX3oPjws2rUP4ClrMUNtv6dWNrFMaUVfriDHqUrJ09DdVv8P4mIM1l2BDtpyaPt6cd8AY4BdseGF6rQ24fUjAWmE+T0W9O0WqsPx0FaamlM3B2gtZnkTTPou3iwFWAoxrK9yS3kz6z9x0OS4DPgNGsSlr8PzSkgtY07xiepaS2gyQSTI9igeoDZAoTcEw35wQD6vjSZHjw1/j4OhZvR5eEIb+gWzL9rcNBgDSUjh8ePMgN867DDMJq0YA7qJ8Yk8Aw0txr0QZ4FTLw915wvN+BpoHyiL7uAD+Z1WVUUmXfjHSLWUqHiFTzESw0ssdj61VL9sn3toiDfAMdeEeuYCa3Jjp97nRttMaxPciRoKQgq3WzwNP87awKv2yfr5FuIOQ9rNexkspz4EC96l++iwmdbdGo8o1CtkInOt3Z5t5qXX0x9Fny8GpWbsSx1uhwV+togJrwjiMCgigosYxDeklcfDq+JFz+3HbZPIMmpZVr47bfUlSky+/NsA3fQYibzZGl/cItxaDd/SiUcsRL9MAPCvjc0aPA0Nv7iytGJ+kMaPVinGBzTmVQw3NDg3j2z+UbDD2VIFz43ct8hBkmrXZZyTnQ4UICdLf2G2OO8RYcV21nHsDvww3q2Ww1oSKbuBAMjSJSHpqqbVRx+n5NvyT17fyPSwFIeRk2+IJjrxS83YYZ5y7HNUXBAR++PqGavt5PLBRwpSAMiEfKWfrtwNvkJjLqCAnPKPvMzHyunZjaNGAyyFIUPfnAo8zg96iNnmvnfMPocK6xunAoGpBAK4453HCzbF8JCxzCP74Qpeg9FUgQFAAGFi2Rmy9lrJNteqVr53RliIuiJvw3QFeX0zxc8I1KK+b15Oam/Reln7Falv3lT9joYc2McURNNpkGYgZ7+Dh2e9GNiJSGMFvWHze4ulS8+fQh7O87o8yQhUwqvedYUocsrX9FvOSyi+K/KqPxeFvK6zF7e8tUPWtHAbnH7IlUIKhZmr/k0oWaIgOXBrrkVLOzSNM9XgaH/6Cbb9+QGyUPyjbTHgvFyWoPVdIuKjQ1N8ybHkLz78bWTNRdPiS1p8Ay03e5kCKrU0dqaMdcZ8xLDmn67jBEMHDz96zNA811Fm3OU08OHbjfuPc0dT6XLijHu89TkZAygvJMiv++MAMlZpq9u3wYTMOvEE7iCwm0jw5/mYW0Fst5zrm27WaZBO7pNBYft9rnRq20ZO3yipMhQVag0+s1TYp/eVbTE8CqicrRsYiEDkHBLwfeYf/3WPzvK8o/+j89ufETJAfFJjOXz+cnpXyfbZVPFw4UhgxKiKU8xIg95oK6wKNm6c2ruYf/AWzhTbRB8pjy19MKp4mnKvS3sGCyuxjyxU4Gy0vUAxU0eSXMLhDbA20iTkofGYZuojDXlaeZY3g2D/N0Tnz/Nw5qxXTq/bSdY2zMCzAHz78Qf4moHHO4FYJxAu2kEfIMwaiGQc0uXB7HX4mPdkz8lG1Lvb44rENPgkYDLgoWBGu269zvAco3yhIRoWCQ9649fa4VipTXjVfX6Vf1C5boFe2+doPpU13VzFnoTRpEU4fDgILCdWbL+dLADmCsxpikcaM3VSrKZ5I1It4WjE6zCgraNDNsJPtIWzeGETGGgYuHdyrSEeMXPNnMJsAQ+/9opMZXW0a+sKlVKEhfDBNBmsjwuhcd3efOATCyymjdrxWfK0fzpjAGJJtaSmZ6VkHoqcIMzvo1ELQkkY0R2iR9/SlhyDn81mMvcaeEB3cfxl8fN7PdujNGa9KdTJziVaHgxjiDEWtO1xvcFycy5KNUZynsmyLiJ/bHvMmDRpC9AvpFLL0foopAzAQjk2wbdgsYc5E4nGC0Qbsw+/jukUf/rko6dJmJB0lwZBLU+XYFCuhtZLIzozA843/mI36K4R0HOnB1KQurZLpAp4uSaiA5ugqQ9fWFblrz0BS76h11CkNTKTujsRJ1lqH7Ab9Bra1yELTqg0otMLCBT2DuAAVw9l6DBqACDrPfg6lJRv3/804KTQ1s9lYgkBj3XgYDMFWVyFDMqGYpxvsG4pkWF38MJUmTaRKWUt5s6ywhKuVUnSoQ//SCAAAMPQxVYyVns2aKuVylzZW4uDZuMDVWXDuJ3mKNb4heuLePgTKqe/P/Wuj8OB493K63X6vrBfpyWOFWqdNw7VxyFB9NV0T1rNnuJ4pEgD5A3ALuYNeOTKSCuaGe/jOdcXLyjqJCFdxiQNSb6l2HlbQKi2SDARYQ9tkqwKH3EY1US7dOD7jpbaY62+U6NrVf86FbC1y4hRpzdueXLNzx+BO1oA/kpaw0lhDXQGKefYWPOyTruhlEVemYn6ZcT2jFkrP1KgUMpIhp/NJgHfIN7nwgQStZfvVjYDjSbxef0Men81ZsPZHMDTFj62qiv6O6ScMizdFftAtI8cCEdeww0xJnbZJlOzOcHOCJREpkwYmgdyERD/MJYJD6Wvr5p/q6Bh25CZNo8XSTnd/qF5ApGW377PEmDuQYNmtdO0WOAlXfysfUILUcPbwzqN8nItjZT6lnYWVVdH3BA7DcgoHG7KMB25SYCZl/JEJbaEOaNqSs6Ab5aerovGXkVI1JizobaFO/vWCqKdtWOoiQbTDDuWmDBcrAKzGOWwENOBYVn1jW0c+M0OZ2PjGmITCGWbjruboZ8hI+ArO5qvb9AFKF6frQ7eFmJqmWkHnLPgItT7ulRDzYXkUV46PLnbnFV9itLsIbmFXPwkaRBOTK5U03qnkE9bc8qC1/XfcErd/eil23XlHtsxVNibZgs16xHjfIbF/cWOi7thwnyhW0o1plKI7IM95JDtYxtueOVvSlU2VMErgOEfD4bVv9mcbvZJxPh9IG7edcmceMc1NEcqgFsqLHDtuPdP4Z/Gy56j3tUHxa7oZJ6+oJUl0fh63hnnpdCOURFzuqKoHyJ5pfJAIcOom5lAKDeA69pUngiX4eNK2gUEhQ/1uOU689/OxxJLIhv3YgFHnrTKjKkLdwKPMYMiNemtL+edF7vPx0zSMiuxjnt7RXEFRkUXuIjKSonxY7kQF/Gr7XTxnENx/x5+zQlBPiRpgKUYERgNMH6BKHVMXf5TqsXSjfS+lY8ROJa2KuVLTzk5A/kiFQgBmhiwN5LJ3Og++TTwdrMvNisHg6InFJZzJMnzTkEZUh2WW9b2xHJO6ctf8d71d9gp5xmQJx4TEzSHqEehe8OsK28OprvRa4UzIY/HvzoOLKjkOrNDJcaVbKfAPD2K1RS28vET8dXvVFVf9S2E0WltyAA4R+ogZqVxj6KDbUYQkAtVhx1neEOMo3pKexaIOvsaH7ufOeoiRZDIbTGG20/8mpEaLDTuxJIn3gTe1LT7wRpOWjedqkp6MSZFmktAlpnV6wqDCVjQr+mzOyX0lwRzHpLrOsz5uLO8+AwjRGkCdtjJ44SbLJ3b8u9SVqiHQDH+UkEXqwDt/oK/ptfAA0yFngQF7cL3JUBWtEaMaZaujIQgo0WFfqzMz+QLXWXKf3LqWpxYWnd2hMQWSZC2gHLA7UWekdm1zZCau2jiwHFI5WJyOk/yqXhJS93vpjO5KahQQGavmpeSM4H0FGbED1wSA4nxCJIf3kJ23hjn8XVs7s4TzzfX24L1/WsAoj7RVsjXynacLkLUyNxcLiqhMHMmyO2Es2MkHMPUIvoEje03hVxzezyWXFFloqjmyJ3ssI7i7wM9HHoltDI3SXndqm7xKBhu8xNAN3L1cE7iqJPp8LvTkrrfsQoFWCR4seiEWJz9Sf+6Adln8uAznDQtFJ29rdfWiQiRPMbglPWuOr7Xt9JgpeiCtyGT0ZCnRgej/4mvpzjmTknqvm1FjCWV1pMpeQUDW/zrQd6VQiMufrqoKS/K9zbaigpTOf/a/oxV4J6FUysYrax+hc+yZ4ygWbW55g3e0zpW70J9UgbgVXQgPXwndZde2cEGVEKxOpeChyYZmQ9cZHV0TxJfPnBHygNiyU+dpgK+/oaztXceIFKAZu4jjg3kC/UnAqfP8Ye4aoFoonuO4KY9vspXqD4Qa+maBrlI6ohx7jVlR+6G0BjmFU1u5BZy6rvkVaRN3zP3eMJ9YFWgAtPsnBrcLYY03Ssim/g7qXXSoXQvxAkJqrj5zGasCb1v3cmb21yvMk/Dxy+6BzpBYrEBTujI70YXH6auQO0zB0NzxXm+vyJ/LvKcdVScmbBw10ajXMYY6QQANRUYIkgeZF4xciAEHUrhr18FnVEG/HatFxVx+lhyT71wI/s2pZHGL+r0tJ4X+hrZYk5pnmR+tRar8T8ioZ8md44nsHgcDNNKylLt/MUS/N04buI8rRevJhsdg3WWXoEzKNMaJ2wzq2jR+eexeiEIhQaMvTWWj8/8McQTvE/vO7+/WgQ806p8MlKu9brZ3LG0+3qcfW+5AEy0WT2vXWrvLyVJtBTnN6dwpdmyrGKlI2OD3p8eQG2zsJwkdoPD21SUUOJq053s2FWsiqY3AceFdkHTWrclhlCLri73yOdrcCOkPu7ZZUYo4SXkJJzvJp1p5x7WS87p4+7a3pUXlHDYIcCQ6gpuLBnlceEWylbAr2oJbuIfFCL0NiH3fQnmNEuEsxG4JMcqLKI6nD7QD9LAK6cE0+Rb1WrhvW/IgmH1K0giMZzQcjYYlYnwGW+xbWp7brJOyRAMLR85My0xVTENCjCriJp7wHZgPFbCXJjt/2kqEUWvlGLQDoJzVVsI9wxA0V0i3VFkgEPkYbGHMpxW1jt+Ib0eG03LzndmQvkO3IzJXBhpJq7pUJQRd6QZrwSsAyxjatnirwlfDO2/xADR32Khb/ahIZvSogWLUnIz7zjrEAQ/5MOJE1jvnoO/OYeGDo0sdg3JzrkiixZ5ntkaIJVnIe4+qinjg4A1xwve5Vlwnibnbma2Gug71Sa6yi3BtNyjEQWXq+8l+g9jRN/0IERMXQ0MStC63BXUh0NKpLCPezIrIcDNykOvpCwSqF+0XG+b0RsKYn2Fi2NUUpIP5Dird+pTc/uSl37ZkBJhnNPYEuX9UQPiEu3nXAuhDPHtGRD4AgH0faA6RDNuNTLz4MW8lFhpi3wMqo8XTQseda+LApkc5Qil+kgkkmpP98PJq8jJwjH0CiFjWq3y7ILZ1lmHGhPRxy1gvIbbXBeYRuTtB9yM86dNMPdfwxt/L/hP2XyiewIJUoUClnMdgxyFvP8usgLgMrEMiiZkaWxBAv53/h/qmQDi37dWlYJdeRf2XFifKvvoFdX8GrXRSJQwLlxJnkW9hMqbWo50Z3cNdTV3pbT6esQ5rG/88/F0ZgUEq836DlrOSIYShvJXEpkxc2bsi+8s3tMNIk4pH+3WO2rMLZLPvN2lW6O8azqlBH5nV1qHaZ7TM+Ox/+thUeCoDISM2+Kk4ClDI6dgpRNGgiMkvC51zrAHbSkLNDHHaZ/fiJUh37XYDrRtyKuAzOiZaw8gcj965y4SbzHe8qgi19s/IjtUuTEeO4EwYhwW4s+gUoxXZWtAc79dwHQnA9y9EQTxlMNeeU/a7SaBr27qvFcOpDxL6vi8RD0s7kiTAeW9RCW/v0Av5I1i0BB4fc3KSi9jhyaPp/BR4KjphZa6XY7z58iUlDN7QqFzAn+xSRJe1s3DoR7+CTsMUL7jKcIWkk4zrhRfqRJNdNXFOXVSF39IzOaZW03kMCJYgUSJ/EA1uDX0biEJY5cQvieWG7z0yybDw2GAglElHL1QfisT4sgp5bIYQEoD859UgDmfKuogliFlZigj3RDlGV5ElyohAkG7EFVhEKlJN2dl95ynG5/X4qL27VRrUdkVD4RaeqeuqpOK1drN8Zq++osvGkfQCld8vVPOlPRsMOXixk/TdjzwBfBupmKgPb5JkKzFWcOXAtfUZ6PM+B4xeogKVRokySXU82tN9aBDnDfeVp7jiMqFz5TaJspSjVB5Fg2RGyG2CzL7jJ7Gpgwwps7FK7+Hh8ElRaf6aVKbvK38RLAI/TYUuv985LXdxet7h7lPh9K/Hd8+HRa4taV6sKU39LtY2WimoJf80m0Lt+8pVya0WInUsKK5zguYCz0E20HvzoByZUGJg8F9x5zHYOB4/Ojpty69kn8/vvZb7hCEOfOuIU0vtJ2nJFiub9uFmlUiMBhgC7cgu4pQCc91E9MatvPKoGasfwl/DH9mjsA5c5NqHV/qpiGQ5GXFPd907I7y+XT/2Pcj89kH5xHz+x56Svg1wLLsxJZiUD9wftorHtGeUXILad2siDpzvTPkfK51ZkXvCm+VXikui/q1FLAk3jDy2pKAYWazEv9ixtCQEvnbcKFGqYPn7NUo/nYQLyYtxOvBK/UTRg/qpnyCymkaU7lXYgQXnHfuHzE8Ve4/gW5pW2lipeXTYeH7nyxuLKLfn+H2DGbxRMXbCPBWZ4fFWLeIAetc9wVJL6e8/gm6xnQivW+EbMxFlutJBOpk/IDCtqus3c+eTts8Edo6aaP+3IiJS11pfrpmrK9CHyYYNPqyu83h3Pqe7rwP6frzOPppLf7TRi2qWYBTSaTOyWkm2SeafoOggz7Ter0NCshC9T3EV4qI+fftt9Hkr59vEecfFiYkB7uG6IrxoVzhTGkr/sgmua2iIJnt6drTRk6jadOycsKOzkOSihxCePlPXQSJtZ6LqSJMgPpv99aRdiqOmff+n+osFVg30hYJ5qQ2mCBBGI4Nqt0m/5Q8y9fgKK1GnBRXzVW+Fpfvtnpsix2aKvOvtC5rMI3qph3jP45HQ5RSiKJAx/2MoApT4Xz24oua4a4kqBtmqzGmbOeLSLSLQAADzZY66wihCvPxVb+AHVPy4Uzma1e5ndFoCV6wUbmZSf/EgHEidM0VDS+JBXEbrxIH9vuNxK/OKNoEReNU5yxbgrCbjEREpJ+Pjx+40rdzgwTM/bLFsxiRo8d1vuPEkKupGTq3XizJW6T/+CmV6imzMzI1bHYdCI/EPiFpA4oqRrEP5x3f3bTvinSYDZpyTAswoHKG9/6R0oygAtBL3IAsT0fTBN9hXr8liQkZHbCOZmBVjTrDcKTetvZuLeguAzD2xNXg5tJR2px5PSxprT+IdkE0KJLpn9Tk8lZaZHH3YbwzVoma0NjUdVFL81Xpzmo2rmLqgBGrVUto83Wkjw+/LHERNARjNsPcb2Rimjd5wO8JqN79YHVsYjbYFI2CqMhHfFp8iquIdXZXPTsFk+R9AbzjI0dUxKeAFWP0Z1cnJF0VHOmhkqESTUjxtRrKQSDzLqIWSkeTJYEQ/HKs/emzmYCjif8QyjWQWOFMsPCQcm6fX3XxM389jVYPE3FhlO4OFHKtF1eZ1LtprtxU6Vs4jYYqPtS4CuFCXd/tZpiSPydoxwsnxk8zylcugmbcMYwvc/F+6pu8xfhJUerObgNENwLjSEUOrGBkQO63jBBppmiRZgMxknLj/2DKuZ1Ga0dy9QPX8y/BZ/Qa/4FVGS4DTSSi2l5HZoH5mEM6Gxi8zVg3NvZguFp/TbjQ28sytiW0+JD639URGE1yGWSx49Y2ayePOcW8DPFUrTD9z0lKrzshlEFzCPdl/q8XA9K/zOyd3uWzGjILrz0nJoYxMbOqHtptC+OtIZi+dMq/lmsFZeelWRgBEM7SMWo1v6kb71KxTb2GQl+HYP8ZWI9TjhdL82M+MditrAlNzZ7czfNIJTlnUMoaWTRsdp81Ebvhz34a/2uLub5seMp3fCQgAzNtdwyODfLGZxogkaibwuYzT90YUTt9py0RZv4ZfVfhu9U9XASt/ggOTioAqGVdqsuegf83P1Rr7pG2vzioQ8ryvcBoeCewFPz83ooSL5lRgMv0ecIee7CT9y7TR133e7pJDgEPWkzffC/i4afTceBqfEGlr6D+JUbUNKZ/tiil2ZnfCJ9Gv2H5uaUiiGf3URIidxm5bl0g5MWVZe7QSYk8c0QLghvbTm5ZGIQYKxX0xLvv28LqJJhwqskXV5YuUN1Z5pTy6hW1r5AgX8I7/TaQ+7qejdy0C3xQXuOuRNeP7Un8wR02KfnXpVW4Vo/OyVcm1Yd0Rjd5jkGjL92zaePCNXgfbis1gL612+2wqZXiLFX7qCFUfoZNGdPiQwE5wtzhdu2+qlvwzHKl4Kv448Nh8mKFiRgZMqBjekZXkPIeU3W6y+rpaiRkurezROCcClUqzfPJWg2l26EDjB1Me4lHzfN61mweK2UBD5g9gq5pKyzp2tJqfVWKpwZqYoIsKWOtyOiAJuwLKl0fBSYXk91CEHJakFD2NOwj6iBRmXqdqdHttvbzWCxvQnrvWbzz6NG2YzBHjaE88gtM4P3gwFWmQMwhrleQm80jJts3ZYUrQqIaDQ/VT7cjdc03iM4gBYlhaExjXZYK8EwlQwtcqdXSRrHCGjDOBrVtJTbr+qAVLxXNR7rsmzt5Ar+vP+cX8DnbHwyYDcR+Rqnmq0YZSXzHtkOpiDgQ9+3vuhC8QeYRcEcw11wNuCjgckCWwd5pecrtnvA/BeQXAlv8q/1MVBmwPjyRd5AgWkuC0DTjB3ViI2WnIjOrCwJBw0s9eAsm5xOqom6Pm9TgomCZP1QVZy48pJrW2tVI0bN5szMda9KM9ffMyXu/IdlvOPdxenZSIQzOVN95U70EhofY9T7W9tnHVlaA7LvNNmCR+sg8p6nagpQFG9XvfjBji6pYiKh4GZG9ll5ScrsuH6upbHOCa/nbnzSEEeCMT5B5CyCpJN9PLoz6maJcF0f6T1AGOMtDkcGCA5OpvUYVbwISmB0FP5pW0zjnsMYl/hlvTcJPgq5yWnc+ZlFyQBfOo5BeEPBkpyuqZ1psr/LjaGLS6ogMtrIFcEDRuFDXJ2LjIzKnzq8zIX7xTm60BgPic7eo89YgPOFCtTTG73824wFWt+RFwMpK5xQdNY83ENXMn7iReRaw3CnhiPkAom5OqWpo3L4sAa+g/2iOBHnVvhQrGUXLEXF1V+xN5D3HlZC+1TSYL06XddTZX6PsiKjKW6sZ1WVaIaPhJm+KC4Ifd/8uYkOVjIbItb4sYkf463mxSFAY+AtSNAkaMCnF4IaQfUJrXq83fVSMtEFGeZ6O7Ii0UkP1A4gWpSNhVwk/Wv0vlrPKJGbZpU6LABhQ5KFw9eJM8vAkOXjk/c1zt3VXsoYfusxfRvcQs1jZMRcPObSV6j6+ObE/QzT8+kqCz2Qg7b9zlmnarc9s7dILZcHRznMiaX8UYrNiRqHJD6xdrqPuCfg9+2AAqgb+uNkOAJICk/pW6J1vyBZCXwLLjJtZsat60k5EwVSKsonsn4rJr7ntZhhzFQlWZ1fsIbwsaOz7/YmkDW5txtU6SB+eEGGpfibPF5MGXkVOfkRVeSkOfhPDI+RhDZ0doyD4CcVN+1km+YHLIfgDqy54O5enlq/S5M+dfU6ZovzMhdY+aZ5uu7TRn2CxbJVTAWTziv4e0qDjEDjB0uAO5Hr0Q1ebaImJMlh1+a54aUoFnBVvOztFa3VssNSCKC1/atLgkYmJxIbwg2yl7hF6J2CtDa6/6JRHZFxHez/oaurCxqhqPpBLQunJEVfDLj39XOn/vRP/31cj5vUokk5A9su6wNme0tRZiJnG2tSTZEwSuv25/oU0yatQZMtILvvJnLkPfctBOBLigwjtaZoMEt/+mn7dZ2U1Hc7gbYvx7Vp3U1rWb80UP2j9nGI7RH9wun1rS+ET6tgYC5HMv8bMa/8eca7XPmXTuU0XLLANdTF6a+DqysOEviO8ZM9zn9785enRqCR4M6/JkvkhkBTiQIl7kr4ZfrkU/3E4N1qK6ULeRpU7L+R4+0gDnl/i4jEkMCTGTS0SnjL3NDC8wHCyh4vh2ljzA9T+78lF5U1JW5CLD/8poszwC9VTixyl69333tBxqtZS/yvbNnXyEb/BOJoC9FwPVrftr7N8A/oZQfaGwuUS8gbtGBEud5EZsqBcy/9DZrLAA7he2ChBO54aplx2MizIm917WMXr1jzNJFW1Z6vpc1SY00wcptGucwi14JRk8/7Zc+klaWSeBF1WvPldIxOcHf7/9znvDAP45tpTKd34tiqr6DNIM5rAdXNTPCRaXRqNlYEkihVNZkgmEJP+56g8KcRQsTg+PtirAUQnlVBZY1sXAsIjsJB6dyy4pjvZ+cUjCupb3a9qYW1YQPyAANMce68PomAW+6AwdS9f7KMRA7+OR5vZjaHy5FVBRkcD3c2PdmtZHVLPbIGNErnmVgw7785gsC3Vout/9vvWT1i64NcQ7oX0KQbW7J9BA07zWru72776VSNHN81s8lfUWqKkMG5cRwoipsaBRS5o7rRtatmgHFED95RwpfMjKFBG2J9tZk9fgWi6SLget5sbGNjGvSc+iopaqRhObhc3J/WL7qs8z0Ahx+cUERRnzhs6OYVpWE72JYtXIV82R57JVetjby6acEZ8VTO6qvZ5/+8Y8K1SwHqcqOnrY9OUtDN/7DEKqbdTd1ec9ScMtNFAr6fRFm1jy10d2YRXATLmxhzFVkDXKBZVMr9osucrlQvcOaKv5An3YFbATZljxx2GEZgXdOo63v6h8qYXJHs+vg7Cr2wQFzya+Bse+UeWnZ8j08acx/feC1Mtt/KqYYyDH9V4DO+Nkr7bdORqM0nHLY8cyoun+DCqUlTx3Q8bTqTL2GFeQHM9ouQjlgcbKjKhKYKHzTkXoReYGN+E4VnbjFN5KVNufAAwCnqa8e5vwUuc2FhKoa/ScaHuom87EIA5GcnHC7vzl0dnwmU8gqiKQVEocEBvNLKYMi0wRt90eN4cWr6Yui+lAUJrIfMh0Cp9FEBrRk2QSJxoWHGNGx2c+OoTdD85TNiWa9g9DHdxssbZmVPw3CsCgm3CO5HG2dZuCGXvYM1TjvEXS0uhcxZaB/0bge9N+wHCPKv0yht3HAfqU6W3E4lrC+OL3KzzMcD5ALDnzNvCFErqVarP6hy6+3Yh0tNO3gbXWeLon9tjb3pAPph4AZMnEwC+ICxI+4SPk3KfJn4H3LqWjP7zMH7edggvc68J17UyHXDIbXMZv53g6LiEeKFShP5eEydvs6CwPAcpSN2c1W1QDfDe42mINlxizmQukg9ZpqgwkXh6koilSW5cMEqunLqsj364KMR6TZ88egKbOfPGzma6slCSzmgEXsJWriqrZGcSypRxUW0/LVzrYlBagalivYrvEWd/KB7/bSgAU/ixNdPSCKWwoHekM6458n+y4b0dVPSfA3eVuMzBuy8L5fq2AAA4ni9/XM4B9qehwIKacn6ACguvb6cxBjN3xxSuLdsk/SuQPkO8Qy7hFnkGffUe7TPJjWDZ93xJacKIar73k3TKpak0XHS2h4Ojr8LbMG7n/l4vTlJl+paDaWf63RAA7LvuNEUR3SAS9KI0f4vEjzmQ6MDmmfWbGPlQAOad098T8iscx/pCa1i2PrTCNRo3231TxuGgjq92R414nyOLLoopQUgWtOH6LnEISemFRDmY+yyKbdsAW6FwqxU0/VrM6g0yCWsyp82piMHECuCrEPltiT0Ld9DwglJyAz02sdduYAF7J1Y+ZqbVx5STTBzR639h0/i6nGcJlezdNIIoSlBPoesmtqww/tBEYOot7UspWKUVd5CbQ4jw4eSvlSQKYD0fZ71yYQ6OVrVLAOrVtkWeJp9ljAE2RMkPSjJuLaDl8azoy0lyJf586jMYZ6PzyDGUpyFESwBMoBMzOfVxIuBWBtYSdJgLrsWI/sfevsPHuMvukXX0C81X895QHAcyemLO/Ub8J2ruyBCrNbIBp7YvqcW1x68JqHuasmzZs2PA7gbrx42vqTE1gitoPBPLDuvDl28ONxQ2T8zHtk1wZC2Kdo4UDERQm16k/sSZA7PRtQg0THsnF2JNPN04toQKQ1Eq584y8Sh/OH1ORnF1WEI1Q8Ov7kFY0X5eoxDNm1BHkEE3UaGLxMR1zMHF6ULf34yGxOS6yjTiPiGjnMz1neqMJLtZnw1rv0LsjiSySOO4qHZaC9GNsI2qq4jyReFceVoLMISOo6WcOfvO9Ub5X01aurG1drCTVruO9BEHID4gRRpJSfHcR4fDmcXJlreW2mh67USUDQyABgFRIDtJyrLMC7I0KcDcUUHc4mI+ncesPn18vcK6f9Hc6isv7PT91PEB2PB5xNflzcjzaZo2uFJ1YU9PHUROV6rpSYW2NpdIIqJCMVLzN9fwgDiSnmH9flDVOa9QmVZavFoyuQABOIx9sZsyNFXcpBx8S783f/cquJpddmCnpP1yPiQcH1clwsH18S3Ox6Whi852+7vbw7DBTZ1pzV9oq3bryZigzjcrcD3sEdn9fV+67FH5sd4UPsb6D55jC7jpp6rNRGMhwieKNuWRdI9KZGwkY760wOe2wMemME4rJSFsI0152VjTE7j9bs9N9QH7RZhEWZkd96rcg8c0r3Bng0H+4wrZkaGm934QUmujXdWmp6c5FNzSLQyVrOSrFrR52V8CK6cvo2bbkW/741bW3Gl/alYwDYVYnk/nRcT79PfxzUgynXfgecKrvPu0+f+D+YUsi5Dqesgdz3fiwn7isisdPEdqp+JKsUlWopIzz/8ubFDailm1btJQBSnm0ZS+GWQrTgAH4sn4UUNIhavxDNbQgsML+wHz01eb8YFUdb6ezIHddrmBu2e3qB/NF+Ae1jkVZCWkA7dqFYQUXsvWdra3skmS/CrFNxWDfvcC1WR14pyH+18PaabhVOUgqe7UG8xR1gZo3OPfvNO0NbusuyfBP8+MCpVqKKcgLM5sD0881lfJKOj2KuzFXfkrx+GC27znkkcu7dHPfh5eGNT7rLZ13V+5DAYLSQYgDCVmUkwQJu+J/3GePRZr0SbFLWXjnYyimR5PbP+aNLFo1paBqn+X0puWsvBDNktSkVlDGCCWVE3wOlbN7QNAB/ThQ8sGpb2+4PK7+GyyXLx/RwnNSpGZTX2BxLkl/leba9XXvlOn4uCAwLMtEVTlJM37IY3SRbKlLC/SlHn7h0czg7yXoVeh10Vf04Cv0IOBl9wHu5ZqbgupmT6ucBjZeQle9qlrlCweaGV+u5qqF+ATTpVbGPcpcILzYHZcob75W4azIlYV95LkVaxdpGfPPxRaZ+37GLVasG4b86R1IPteUTrVQAc9N/xci1bUbNYj4f932/wzTHCArNpB7Imvo8S0kW1W/6DsDxB8/ZdkNawRa692MsS3DbDJ9Mi4pv2xJS6UyzlnoKaviosui3FslHM2BipWTCJoT2Aq6fJJ3t5WKShpnDhO11kG5NfhlZFd4jww5Ed85moDaKiZWltkRAmfRB9kVoN4e39y3bxAlF64sWQJV0m/sDceJYaXlP0vbdy3C5dxju1HcZ4veZb/XqbyF1GV14DVAHAFyigLFnbBwgvQ0qciit+3g5Z6gmeEbo7unG9+Qx3nmgBP/bYJRl9WZv95zgM8XrwaWJ4SlmpqYdluLX6ExtDBWQ8bhw81OFPeasKsfBfzJ1+0MoBcBsn3d4vPP5Y5Yzind8KowUD/tiS7UIlV5rX/VDGXD7flJGH8JcPkS+1zGlNsk7pOv2KMq3MYmStXWiJF8RD7MVUl2mwpSp6Fl42j/z0F1lS21pQj8zFTsA+Kne63aUyrx9ZD+1t6MtYf79oYvc7vjlYaKBHnDgWvxqV+dJcroqr3bv91IrsVMaiOcXUcumaVZIes6ULeZUsLynUSeDZIgSopbLnJ912vQNTx8264qHejUNIEDpkMQ057fw+WvL9rsx/xhLkA+7/pAOfv9FHR+IJ+7rteogeGcH1l+aIiBzw2GFxHr8n4cVidz6Tz7LMuJy1YgbpUonobHMVeKwt26uf2hEhHWSTLMYKshDK5hrL/wpPwvKnuZg6g4PxOnetaplcl5taav57b7RWB/mhsN+b6gOWNdTYTk1PYeQAUyo1kW32z4RJ/IgQBJ5SegzetRbKtZoqH7gL2daHdA18L1WCWVvokwuRRzRL80jggm1jLIj0wm6JNaMYh4UMlRU7Dk/ygXZhlDSas6Ui9SnBY2tfGSbCbznMbEm3smiZpShhp6i25g9ZWnucRM5z9PY3/RtZ7aJlpBDUWej6666ivaR1j4lRkGNB/FjB7CIwopWD/B5ypuBN4cm/ciLnmNyLsPeUlWC5KL0kR5/qTkDr7VVOWFN9WOgl4bZGd9zdb+iJ1HXEG29GHOpjvJCq5ofLvJsUKDXMa+HkJQvgA1UlYdI3yEDGUxaHMR/sZjeZuYIjJ6dYeXWvN/krAtiDsUD9H/mu4eP1Hr5T47iXWY8PPssPyq16pplHk447dLY95T8liHXSaE55pyNNMfBbNgO8XFK0QDlnx1UEK37bUTTVHQ4pRrbO3arrkmn57fa9B5FuWkR/T88IuqF3khiMM/MUg6hKiyeHKETw5NeEmA+dCHBVrvc18o3Cdjs1hd5Ib4hjQ188G58AGN1h9N4klS7NEd+o+5+v/eXvT3iR0nd27RJHi5qnGBt8NDEawl+UKs/PZpT1G6jdDVlIjEdVUxeWEMNybsaNMQKkHNEmACO0UuVl4E8Hbo1uaQVqhDPrXYn5+ipEYwBgP4o/KTQuwlCVHS9vh7ELA40wik5UuI4kRylUazraC5ylaM53I6oFyz6jXpky6H5VZaXdqa4D1JPSoNaSdNIXbEj183C1W3xZKWJ/3GhyWNNASRdAoUkCY+91axuf3SMpAlnravCraKr5XB+sgA0lJ2UJ8TRqq/c9Yayfg6IAvR08DRO26fCWXOvf4CsNTsOJwDOnr7SIkS9GzM7SRZc2MfhynUoL4PRSkhhMcY3c/IvbyttpCcPN/hfZz/X0IQPmap4+81Glh2+YxoY5a5DctJzKxjLdPm+f4Kjm/yNa9zWkDhyxbgZwiQ4kJClJwH6z4h8OuX9EsYVfBu0vi4UOZ9drBKB8G9NrjkQmwpGI1rQcem3bYEFNVbqjl1Y56TuSsmiW0qiOxlKE7ASDWswxJdRoWoDRsWjp2tNahxczi0pGvp3+/SHXFt4/XAd3zYWK+z7vge6/0cNAYux2rcDw0+4q78TrdbhFiS1YF1jQCI41IHojhXNrlq550frndXrWIHkAj/7Wcpa5lK9NmG3EzHvm8FlmfDZm3CA5zbOoXTI+ti/s6xmIYAe/28AdduR3t8ygr44Ioa4Z0dgTQfmFoc/JlxXUrAAAAbctLyW/IyNgdbg1yJIRfqUwdIROs966oPMZFjajwjgmuuxmTDdn5lOpcxDL3c+Xsg9MZbHO7mEVZ+PvZVHCrERLI/vhBi1v/17v/vD3YQcXczMjHWtrisU9sXKc8yz3Rw5dz0f3fh9lpzdNVZVHt2Pg5Aevfet+/ighNuikrAIHZ/AIOexQAGBaEAaK27s+nyoGkqw3hX98VRO4Ji3dEqCpFDQBIGTw5mjcHvdC+F0uVsw0wJBNVT12/R+VW6fmcjggsHLlklR9rihd4Yi+HabfS13Y1L/G82oUMPRGTMSkfLnNAn9m5qlXVAcpWBRf9YtHrBBZbxN7Avj2lWFbBe4jKcOUxBYRn7AKgGPrm71bplgOp3fTwcdC9eNK0C6QwK4pKSU+Zq/oxOYf3LG7SWiSey2Kaa+Ha1/jPKJUoJ7LDS+Iw2HhYp7sIjENqBVgvw3XlXkTl7yote0QvtE4ZSliobs0Z/WND7ZFBOD2sfC41r+x+B8cSwnlqCWVKA8hCdkklICABgdkJIYYfBxfGs+Li9dakmNYmrWLzRMU+2Z/MkwTq4Vakli6aCs2I1ZxZDVSgz0LaH9b9yRzU7uFtxMcj2Dy4SYITcbBThfRaJx0ix0Xx7W9TTA2eokNCkNyFb4OpB4txIbGjHIMjMKHlvlqD5ejyYnrUJ+7O3NYMCPDmDSwCETvkykdb7qX8cek0IzbJgBnNLXGDscWGjgdEBwaIkjxAdTHKaltQaaMY19hp22TU7dqGGlPwch8yiRA7KZIrPsJmmCKZWJpg6OEeKuNXFim+mY0PwBxmT1huhqX7llnGL2HZS4nRshjO09jo++aYHg7APuGXQFBEIURkvf9RUpz7r9mCjSqosH6YoOBMqBUgvsijvvG6YffLA+ZxWRQWI7x72StebUoqNN5HbBknkOchYNG/3Dwz4HX/bY12kNG1EhxoocLGWCISVbn7ExLPgTm+PJt/wC7cGOTp81KmgpXIKLZ7zes0w6FdXL8YTD0BcS+cLNmRSiIpzHtRby+PFGHfHiElTbfnipU00geRS1+WcZZnEvKdycqeSZ3E+e/5pJ3jGcP3hd/ZZ1fJPrVe7yrEHsJQ9Xzp1cIXVIyBdkME0pbuUUzKyXaOUYjfkF5TsWxznWvb9aHQfU0uUILj9NUroeqIt06PluzRcVpZi+/fNYJqN7uHrbLbvDZQw5mCB6Yhe2iFh8SgicvkaUW2ooe6KAWsXnGgpMmKde+zpPNm0kVbZZQCfaOXPYM2CcmESTqFPgLW8/aIfTTkR/4ayXxDvQHRjkOj47tS5Guh8snvjN5RthSGVm6sbQWa1m7bm4xQH0GPNQi1/4Alp8gqfZJY08jcUui/yCICc1KfT0CTDDzdF1NwJ9W+mRjl4X9qDPzaHHnLrxM5UV78MO2iFmsoB64y9W5IsMYMf3U56CuCGdaczgoUwq3NSEzCXknod1iIOHdboVbrYry+fWKbA52FAPrEdEy4oV7AVA6N1yf4V29gg6yEb7Y1qjIfDDzJz/kdnOT1m2pq1/yOLVhc/hZlcjnu0nmOAavAdPFf3yiORsafu6bW28hG8L5gyIz6Vcoxkuv3mrdWuGGzlhWPCwWSFasa1+GLk+i9xEMrAVR9URBZIevu3rDFQhEVcp7Dld5A7xeRr6sRkAeGPu575s0or5IVTkvsw9jlhgws6rcCWt65stDGSGnjLa8H9FX2cXtAr8dGLg+FGnLD6emFQgUxqeeA7uLRvznpVWI0jDnIdltjlXex68sI5N9qSTcNEvJZIHLeNJcX/HTrUzEHtIyqy8twvoeHQ4Hr6RrOlzZEM6HbeBaMDEyT4B3Lf/35WAcHPiRHQrPgIQOwVrnWVfG9luUm3s90b9+woQevWlRgufoq8l3csQauVl1Bi0Dt3uZjRaWlmCMhX7TrdGFLGt+KNjYBdBVYdAIT3aUgVgsK84uwUs7ux3visDEKdOGysoqMJcQROgiiLQXE/aJkVYLde4F2HT1i5ZDHB1PP4nivAsLESGCHj2uwdShmXT5h8/Jg/kBbf4Dv0hiaeICvEwEMYJDMdfIO1aEe3sEqy/VH2e5FEzzV5nr4NHqc9a2qF+LFT/1dTBgf0oLsmz2GUCcgKg3mxKnRlT14YMNRqr+eO+a3LnXisviMWFpJC/tJ9XWqM4VtWyPaUzBE9V+CGNrrJ4iU3A78qanql8g00I14iRIgShbpKfppE6clSvkhTwY6LeCb//Vr7pT01Kb4jfVflOPQWRkDSvsYWXVhWYgcZDTZvv3RJDb+KL8aAenXz52vm6pg8KchhhiToWLm9EGZKyAtT6CQJ90nLD63Hrgw1siDtu1waihMxwrqyDLIpbt/Mj3n/UCPzJ6IeUh/ZBCmoVhPsKRx6RWfErn5cOXanUZNnYEQAfJ3iwdJh7VhOY01X2Tw6fKP9IfqhzGiLlbKIl7Vv3Pw9STouM+tNDYYe0NbfysmFUIDtjz9qNB0HGI8oOVoV4sd+gBKHWPYWrXfg+PWvUz0adjxjXJI2XRW6lLKX/2w3TngEnXnHFRkLCRgogjCWSsCd0Ks019nlOnlHAFwMQMLUGPJ7K5O84sqTlTu+UpY/y4erzT5nToTpg9IrmhPxcvI+PsA+TniDXiydAAnUvYM/NsNtu4d8wnk/DWyGkYD3gpEGpvyb3e6tmfPXOivYbENhuvToTtt9um7bxWqlx+0S4OsyytB+YI7toytU3diAVoZA4RT+ssRZ8gazDz25qhcqi8AxW3D+0yOqkNSpy73vmse7tTt/kTGigpmj+J5PzYVBkguMWVJU0hxxz/8zy/iulAGRMf+EVkTklQEG+qRdhlMBGCjrPrTX4xK0a8XSOTxGUrCcr4oH/r7W3mFkR6EQVP6+YSiDVnGWJ+0BThKIbEx9MKMzIF/kysd6CIb2qNXvkwEK55d048sJiAvuG1BD5+cSvBaFCu2v6Cmdbs1Ohr2H3u0Ohvdpn5b+n6gUJ/OYriucTRulPVjfrJ4kLB5y7c4deK39uRtT9AgyM1O9gMfffFDfTJmLDeERnaZsPHFTmJBlj5y0RxpQETW2ZFqIQOEXukCwU2+g+8YHg6hi2J0kLdM+BR5F5KS9+k1O7MjOWyCpsKAMYk+RsC42I8vXpgjThKvxn4LBiAMbTHW4cq9qvCxfB1PsOAVTTOumwMfltEKGOTWfccp9pIYGy9x43sNaiJzu8a8VAVy9/K81BNOXHXFaGJBpbDx1mFPtuZpt6J+fottf28lUW9R+prH3KqWou5pALSDX5cO3TfDsjy+u2S6EFFJITBBuNLnquYpcKFQjK5WR5GsgWcaF6Fk3kGEyQbrSQI+T/+fgAAAXgikKes0sZFjhrxT3/9u25b2+TVPqehKiVKJeRDtnS4o9VRc7v/i0CenCuiCaGVY+/fH/9w0H+ACWJRbqjvqJDEYbLeMNPIdeZo7eAxTgnXKK4UAAABuLbxFRU74UK6UVEVETL7jbF5/9tcO0CMobPxsvru5/612jpAJ7HndVtPn3LuM09yIoPItS3msOxpSIP7DgUW1gMsacT6cw1kC8xPVVJ9D/Gc2+1pxNFkquAQw32SOyNR+SfOSgMM/4oTvH4JFZEEsUPX80GcJsAIyncWBP6/jphlw+grVhQDdROnNxiubXmM63ApZiPdLDIJiorg0bUynje1Q5Nl5y57oubx8z9safwYWi6CCyQbSCY++ZH+K9pOPFKbG1APzuSuHzn6s2DXXmahLFJJYitCrbbUKYhkUyXzNW6UaS4Vdv9YQntf9KgVjrHgpP+To4IOtuNcFJf8BtaQkOn542hJh79rOO9qX9Xtbxx+SdP3tRiA/SbSLjohPXb1oOzN3N8yfPSZaHuUNmbvQhKmH10V+2wCVxrTp1q2lHs5fz0WgXXk5XENjB1/gtsfxhX9zO0G3SDJWkVKPEnUxuUOVDtW9PgU9pNTHyeuQqYyoVZcsrC8BVpkWdEb8H3SvurxgiFB8TurVhY9TSYm1/dXzkP9qJmJHf90IaQYv4xTt6Ab0+aWjEG2v1L30E7k6QUTxDcy0fipR+BeOGxeFYzmP8y9BG9soZLWxBr2XqzKSya9OVp1RsDCBqCZg7lYqxIzpV4mcFXf8QGQNY3bZ9YDX6B/bq945FQoUEB2gyB25UksriSecmR9qAV417Sxk68vZTtV6MDGezDo9Pe1899Pb3arxNe5JxIYhQSrCgQQXNamkbTicZYafFmGNaY1WveYEKP/pTFBdLPAbBCWGYM+Dvz+QQ6+u1ds+TnDFl4+eFhJtcymKh3IzZFXi9JqKefxKNbBIWVNr3cp+d+S2pX4ssCK9DluJdOL4KnO3X9rZCYr4lvBT2LblD8/ZeUs5JX+WHgexY/hI/I+Y+3tyGt8bqeLkS2hfF8DQp8PTs5ox6LE8Az/6mq2Xthy4jcttKkKYMILB0ZyzVt0sUq5uTJsSvMir/+xDaUhzT4T4NFR63wG139Nf0VhoHBoQRqh9zBUJ/BIvoV1Bt2kN3VtFR5Pr5t6yCsvVKgiW/YnYcT6HQbySvoJceTvaRvleSm6hwAJiRLts+4wDnzCgDAG2t26Jb8eXwqxfSu3vb0iGaoXCGx5+mK7R65chhAdCzuOjrwJnEZVbAsHMa5jW3sgHNZ0dR0gn3g53esIvv7rSaDjdLM5mKB+YiM9rVDpTktZktcpAhNEOYusL2AXHF+7AFYkiuBrPFXhe41iuQwdLIAL8gtwzBXotzfrLfKgLCEgfEvrWTGYi0mIKpHJB4arkDiKgYzfghAJBlPCKuSAWwmnJMCAEFebjAs8t9YjyQrahAM60baGb09pgI3k/JNapZ0wR57LZvLmhAeQQvDkLI5XqTg6gwmUCP2YBZ3W94EZWGhfvAsROMRIXLE97pEOiukTL0q3c/8v5myAlEalNjWUGgNxWqBMoQtWHjayrbIqLU1kNvU9iUSVGhp7jiU1KbtykSnRr4wd0tli7l98knLFktU2463/p/vUyEITr5NgrHSckqvddLiEafxesuGN8/pW99le6euUzVD890D2r+f07SlKtt8sCd+V24A42dCNUpYBViEE/nzmokT04w3JKC1XWAH0k7nmV10uf7gh6UF50WPf8aEtLMrhTB5QTuggZYAarzD8Wxxc+XnbOYc9+9lafJHOpcwwRE7jCuhk/4jQfeZklrKVx9JDzZcVBPMxgbXis8KfIQ1zy/il7300CpViH7uCgZTQ97eBRMwwwZHxcRbSU7zGVa44iYrdq8HQTitiEliqrmqS8tsdSWxGF9PbHPIzW2/TBOjK570dQIMnJI9lCK+fHKl+X2QWcfrGBR9eBskT+l/JrMdZ13+L+rznaVO5BXxbtGyL7GhRIyo1G716SOUimsA753KY3V3ikoIbHQmUlwi1pj26KsXscaweNfQtHqAhR61aCEoStiOQBHVuxDVPGKYCAAamAEmBKwBWQVS79cKUZZmbDUk/XDki/aVVJDaT+pJRjza/DzkbexnYUKq2xvwVS4YeeakpCToIDaxXwUYWg0KuXoiWgPq9q2pdlpcqBaBGc+Lz+zgHliWhwNoyybS+viYDwYuvQLoWYm0h7XSTuqiruBwRtHFOhLEc2q5moqeGfwVGTBWFYgY4YvOQxuUxUiDDy1qQ24xQSXZ84zxCY1FX+b7oRUBbQWNXcxLFGqB0+TeMViF2gpAIUhiUnI+x6SOvvEODpAe7ClebjcOuD4GxmscRKjH2a0God4UxdUekQ4rEZyidh0h3ERt+yJowVxP6I2UTCqhGeWBfohSiva6VSaRGuCrQPrXKtzeEI9IgXcKcRc6VYCUnEarsG00NRa6CgrFa6m3m0FWvaitvQe9dFNaRl4AQXD+DFsDcOIgX4FT8hxieLsq4mMGrcZsLN/kwN9Ss95JUc6exE8PuXc+hvaVTcPAmJeW2CT5+dx3Ot2q7N4QgCMynTzc3Y431MPEuvbNpsiT4aRclm5Q7lEjkTLxyc9rczoGSVc1DLt4HLxhL9ajPSOFwJ3J/vdkZhmPhi8P4zjH6EWlj4khETuWoESLtOhSIiDbKzFjoxsF6EfZLHXIxcXENi4sJwztU7NcDhfdRjYqLZSFND2Zel8Sv4eUqNFaWBfnpOF7dn3lttVwPYw95NDTcmOn/bvXt8k4ok6pavmcTvpFuThbIiH7dDorYThNf+IAJmhpaPx2X0eRw+g5qXxzdZgDnxPkUSPqd26BmHfEZkRykSuRu0wNpKmVruIFj4XuLTonnaIF+LGR2ohg8qdvN83Lh6REg/c94FXLCAP/7KgACSMHJHR/5TFRp7PtpCXf7SYVRDlrO5DlvwouJ/OAALOKvlcb3//62RAAAAABK4IqYnpjbEaiwTB5QbwMT068m/LTPe7z4VNjlRmcJd8dJwKUNNmVCvrVs1LTJElnkN86TWFteld0YkSG6RoF9QOpiEvdHLbsju5VccXN8kky4osODUOBXSVQ9AADc+o1EXWVk+5nd1qJFwl0C+ToiU9PxwasvGb7aVkReF6Iay/h9jq9U8egjcSWbeTixMXmVdLeMbwtasqN76HPtYph1GCJoPMhSvALIImD/BO1esYCxlFQLc8vcUqrQSRsoGOt9WS2xIldgX32XnYk9Q0hPYRgmvVXnU28uaK0VXN1g+UFiP9ybqspi7cxkUbiyspw5xA8iJSyn+TvdUailwMuBExa3xkQDvAPUHN09JABWyzxvwSw36turuI+/Ydre9KH/pBFELUWrWGbbD6j2p3ntFZmn/wNiYCKHbAM5VtMI+qCSQkVCrQiCTmIkxzCvqQ3v9HOIa+UKxw2pe2ZMbvNFnjcWPdPsLK6eNp2H8zOkYRe0Y5eKbSf9z0V+lAPaj6q1YZRL4XK4s2mjQ61OvSbPsOf4w03J+6SFDxEgHFEx5OkAi92bVcEN8enISDMe4j1FrhdsBUfRCD2y1+FcF6UHxgW03hcC6nR1iaKMtU/pyI7lYXQE/sjn5JwgQP90PKtpN99DDf+M8ttwLhDs9X6G2Eh5K418FzBTnZaZubEOjGunazFapyS+js+2l+N3pHchS7WKIMvqmw/6Upb4hJRNGsUrCvzgSdvha83bS7mEh0xycygdYCR4ew6vfk5T+Nv9kPto1xDVeZQoRG7K1HwjwT4/Rh2GSTjL9s3fdJg0IMOyZLVSifihSoNXSA+0vuuujO7Id9u29mW/Dx0wLYtpvmnIMpzEFfItCY0ZZ1bzxqhNYkFy0Z/UUkYbgMrfnxJgqqldoh6fYZyndKaDssFNp2vXGJM1WfQccL24xGY4OTRWXiMnGbrqWJtmoX1umQbFH+HBx/QKgZGguggLLwj03pxEAg90N69Qdgtwl/cynpj69sEvioQ/lLp9OFy1kskYohplWEx/7U91JUc77RkRJwwbroRzRTksFRJSR7KTPF9aEpsqYYOlR8pi6auytHfERhkLrqDaQEfBPu0PoDsUHMBUSWxjHG5fMQb2TjccW5P+fA/AyKcYS8ssRH9S2L3QX/UvqV9HZVPpf0GFTS1wYIEKTlllfJALyYSNA7TsPmVJTLdSn4yLfCmPzxklZAQ+itFkPRmB53P86clP29+hjT14XIkqyh9lgYNHGFTQcdYwJQt99cnGDIPllj58FPjXeTk1vSY/JyJix1jeWNVnYcY07w7X4pVWW5Jnq8PibsUHdZ+RI/jXQBj/K/jW1au3IC/Oa9lEIDYtXyCdgKhaGTULZjMyzjMAIgtVxTm2s9xpRg1t87gZ0xMpsXh7VCFXRQJlzwULNpe1ikejaLpjV0SXR/28Y1yj6sEjYxyq2LZCAnXoXcRPl61sGsDJ+h0BnV+LuGpRH4bvfaFuCh5gfh5qwN73CTpy0AakFWNuKR4PPqsPR8XNEVDP40IvKS3658VHyx4gv+1gnShCSYWVJsO1zVWLzQBi+xJSPnNJSKnAGPBmulNxtUCf54hNOG7/eBwbysLGVs19FMo06ogOQM5qHl9w03m1lyK2xORSEeKMyAC9OEDQq+8SpP8Y/1Ubk+4QrAV/3wAETsAgCNN9BsBI3Ew18syUQJIPOuXAHRqsSXfNAccY0ydaaHaATLnw82GaxMYCIFGgAagGoK0PGRGPxBuoFkLWiuxe7vFdU1VmOiGsnQtrVZQg1Gyp+19fn8zAA3tE7+AVLc88Z1M8UBToKHn6lXvKg/W3zHIK73XEjVG9rHNP9rzQH/92EAEWI+fKZPD8TGvz/JOygdOynqJnDpedX9Jb8x/8UI5wTgcoz17ZqX//fFgJj0T10PsVJCi1HHWStMMeG6cAAAAABH2PGksNDeMLnUHyUEqcaF2RGlwsQkqYNyL3QfdXWmMi5VLxeluP8Ak/oQFfBO/TSgNh2sIx9VDrjme6R/fL8oX9rvHnqD48KAALQurP/g52xmBsOP125txAV3u/BcS1P0g341DL+Vi1ry9HzdC8Ykwn4Pol55/jf6Vb99DgylACSAAtjWp0+2HovRR9A1EiIMhBt6HB463X72H72L4kf8/arGLoxPLUYBxWe9tJpCelErgPiYr5Ij3BHStinouvWVc5vTG/+dVDDob8G3x43kd4AAAAAAAAAA=;" vertex="1" parent="7">
                    <mxGeometry x="30" y="160" width="230" height="230" as="geometry"/>
                </mxCell>
                <mxCell id="11" value="&lt;font style=&quot;font-size: 24px;&quot;&gt;Your cookie count is #&lt;/font&gt;" style="text;html=1;align=center;verticalAlign=middle;resizable=0;points=[];autosize=1;strokeColor=none;fillColor=none;" vertex="1" parent="7">
                    <mxGeometry x="30" y="410" width="260" height="40" as="geometry"/>
                </mxCell>
            </root>
        </mxGraphModel>
    </diagram>
</mxfile>